{"glyphs":{"0":{"ha":810,"x_min":56,"x_max":755,"o":"m 408 60 q 527 106 478 60 q 602 239 576 151 q 628 453 628 326 q 613 639 628 558 q 570 775 599 720 q 499 859 541 831 q 403 888 457 888 q 283 842 332 888 q 208 710 233 797 q 182 495 182 622 q 197 308 182 390 q 241 172 212 227 q 311 89 269 117 q 408 60 353 60 m 407 962 q 592 902 514 962 q 713 735 670 843 q 755 481 755 628 q 713 219 755 331 q 592 47 671 108 q 403 -14 513 -14 q 219 45 297 -14 q 98 213 141 104 q 56 467 56 321 q 98 728 56 617 q 219 901 140 840 q 407 962 298 962 z "},"1":{"ha":810,"x_min":117,"x_max":719,"o":"m 400 82 l 400 883 l 436 828 l 134 736 l 117 787 l 472 962 l 519 962 l 519 82 l 719 44 l 719 0 l 188 0 l 188 44 l 400 82 z "},"2":{"ha":810,"x_min":67,"x_max":737,"o":"m 593 92 l 690 270 l 737 270 l 691 -26 l 654 -26 l 590 0 l 87 0 l 87 44 l 365 353 q 471 488 433 430 q 525 591 510 545 q 541 677 541 636 q 494 810 541 762 q 364 858 447 858 q 261 839 308 858 q 181 774 215 819 q 126 649 147 728 l 67 659 q 186 886 100 810 q 403 962 272 962 q 541 931 481 962 q 634 842 601 899 q 667 707 667 785 q 658 624 667 664 q 623 540 648 584 q 554 443 599 497 q 439 319 509 390 l 160 44 l 180 111 l 639 111 l 593 92 z "},"3":{"ha":810,"x_min":91,"x_max":706,"o":"m 284 449 l 270 510 q 424 567 369 535 q 503 638 480 598 q 526 724 526 677 q 490 826 526 785 q 376 868 453 868 q 244 825 298 868 q 165 686 190 783 l 109 697 q 167 842 126 783 q 269 931 208 901 q 408 962 330 962 q 535 937 483 962 q 615 867 588 912 q 642 765 642 823 q 616 666 642 712 q 540 585 590 619 q 416 529 490 550 l 427 535 q 579 515 517 542 q 674 435 641 489 q 706 304 706 381 q 653 141 706 213 q 506 28 601 69 q 283 -14 410 -14 q 171 -1 214 -14 q 109 34 128 12 q 90 82 90 56 q 110 131 90 111 q 156 150 130 150 q 186 141 170 150 q 221 117 203 131 q 261 88 240 103 q 306 64 282 74 q 355 55 329 55 q 473 82 420 55 q 556 160 525 108 q 587 287 587 213 q 558 401 587 357 q 474 462 528 446 q 342 461 419 478 l 284 449 z "},"4":{"ha":810,"x_min":16,"x_max":792,"o":"m 562 957 l 562 76 l 691 40 l 691 0 l 305 0 l 305 40 l 444 76 l 444 862 l 500 883 l 108 359 l 89 390 l 655 390 l 792 410 l 753 288 l 16 288 l 16 342 l 457 957 l 562 957 z "},"5":{"ha":810,"x_min":78,"x_max":726,"o":"m 265 -14 q 155 0 197 -14 q 95 35 114 13 q 77 82 77 57 q 98 133 77 114 q 141 153 118 153 q 170 143 154 153 q 205 120 186 134 q 244 92 223 106 q 288 68 265 78 q 335 59 310 59 q 458 86 403 59 q 544 164 513 113 q 576 291 576 216 q 559 378 576 338 q 497 450 542 419 q 369 501 451 481 q 156 526 287 522 l 274 948 l 541 948 l 726 974 l 683 836 l 276 836 l 324 867 l 233 574 l 215 644 q 403 617 324 636 q 536 569 483 598 q 620 503 590 540 q 665 420 651 465 q 678 324 678 376 q 649 188 678 249 q 564 81 619 126 q 433 11 509 35 q 265 -14 357 -14 z "},"6":{"ha":810,"x_min":94,"x_max":734,"o":"m 634 981 l 662 929 q 489 859 563 898 q 363 774 415 821 q 277 668 310 726 q 229 538 244 609 q 214 380 214 467 q 237 210 214 283 q 307 97 260 138 q 424 56 353 56 q 532 82 488 56 q 599 155 576 108 q 622 267 622 202 q 574 420 622 368 q 439 472 527 472 q 371 465 404 472 q 306 442 338 457 q 249 406 275 427 q 201 357 222 384 l 171 368 q 246 456 208 419 q 322 515 283 492 q 400 548 360 538 q 481 559 440 559 q 611 530 554 559 q 701 444 669 501 q 734 301 734 387 q 695 139 734 210 q 586 27 657 67 q 419 -14 515 -14 q 241 37 314 -14 q 131 175 169 88 q 94 371 94 262 q 111 528 94 453 q 166 667 128 602 q 266 789 203 733 q 419 893 328 845 q 634 981 510 942 z "},"7":{"ha":810,"x_min":97,"x_max":749,"o":"m 166 837 l 212 863 l 144 679 l 97 679 l 103 973 l 132 973 l 204 948 l 749 948 l 749 934 l 400 0 l 263 0 l 658 863 l 675 837 l 166 837 z "},"8":{"ha":810,"x_min":79,"x_max":728,"o":"m 421 962 q 570 933 510 962 q 663 854 631 904 q 694 739 694 804 q 628 590 694 651 q 440 504 563 528 l 405 525 q 541 603 497 555 q 585 728 585 651 q 566 813 585 776 q 509 871 547 850 q 413 892 471 892 q 278 849 327 892 q 230 738 230 805 q 257 647 230 682 q 328 589 284 612 q 426 549 373 567 q 533 511 479 531 q 631 459 586 490 q 702 379 675 428 q 729 253 729 329 q 686 110 729 170 q 569 18 642 50 q 406 -14 497 -14 q 234 15 308 -14 q 120 99 160 44 q 79 230 79 153 q 101 330 79 286 q 162 406 123 374 q 253 461 201 439 q 365 496 305 483 l 388 470 q 277 417 319 448 q 216 343 235 387 q 197 239 197 300 q 223 141 197 183 q 295 77 248 99 q 408 54 342 54 q 523 77 476 54 q 593 140 569 100 q 617 232 617 181 q 590 324 617 288 q 518 384 563 360 q 422 426 474 408 q 316 465 369 444 q 218 516 263 485 q 147 593 174 546 q 120 713 120 641 q 157 840 120 784 q 260 929 193 897 q 421 962 328 962 z "},"9":{"ha":810,"x_min":76,"x_max":715,"o":"m 183 -33 l 155 19 q 324 103 251 61 q 449 193 397 146 q 533 295 501 240 q 581 417 565 350 q 596 567 596 484 q 572 739 596 665 q 502 852 549 812 q 384 893 455 893 q 278 868 322 893 q 212 797 235 843 q 190 689 190 751 q 214 577 190 621 q 280 513 238 534 q 375 492 322 492 q 439 499 406 492 q 501 520 471 506 q 558 553 531 533 q 606 601 585 574 l 639 590 q 561 502 600 538 q 485 445 523 467 q 408 414 447 423 q 332 404 370 404 q 198 435 256 404 q 108 524 140 465 q 76 666 76 583 q 115 821 76 754 q 225 925 153 888 q 394 962 297 962 q 572 911 501 962 q 680 773 644 860 q 715 576 715 685 q 698 429 715 499 q 642 297 681 359 q 542 177 604 234 q 391 68 481 121 q 183 -33 302 16 z "}," ":{"ha":328,"x_min":0,"x_max":0,"o":""}," ":{"ha":328,"x_min":0,"x_max":0,"o":""},"A":{"ha":1018,"x_min":-1,"x_max":1024,"o":"m 265 340 l 265 419 l 737 419 l 737 340 l 265 340 m 912 78 l 1024 42 l 1024 0 l 654 0 l 654 42 l 777 77 l 455 863 l 497 863 l 200 77 l 318 42 l 318 0 l -1 0 l -1 42 l 109 77 l 461 962 l 544 962 l 912 78 z "},"B":{"ha":919,"x_min":67,"x_max":851,"o":"m 255 868 l 255 948 l 506 948 q 676 919 612 948 q 770 840 741 890 q 800 724 800 790 q 744 575 800 634 q 588 507 688 516 l 590 518 q 782 448 713 511 q 851 285 851 385 q 816 137 851 201 q 704 36 781 72 q 504 0 628 0 l 256 0 l 256 80 l 499 80 q 620 100 570 80 q 695 163 669 119 q 722 278 722 207 q 699 376 722 334 q 629 440 676 417 q 504 463 581 463 l 253 463 l 256 543 l 498 543 q 630 584 582 543 q 677 712 677 625 q 656 795 677 760 q 592 849 635 830 q 482 868 549 868 l 255 868 m 67 0 l 67 42 l 183 77 l 183 871 l 67 905 l 67 948 l 308 948 l 308 0 l 67 0 z "},"C":{"ha":999,"x_min":71,"x_max":931,"o":"m 610 65 q 724 75 667 65 q 833 105 780 85 l 779 60 l 875 267 l 931 267 l 906 42 q 776 2 858 18 q 604 -14 695 -14 q 383 18 481 -14 q 215 111 284 50 q 108 262 145 173 q 72 467 71 351 q 138 731 72 620 q 325 902 203 842 q 620 962 448 962 q 722 954 674 962 q 828 931 770 947 l 788 926 l 865 991 l 901 991 l 928 658 l 871 653 l 778 865 l 809 827 q 701 869 749 858 q 597 881 653 881 q 424 856 497 881 q 302 783 350 831 q 229 666 253 735 q 203 508 204 597 q 232 318 202 400 q 315 179 261 235 q 444 94 369 123 q 610 65 519 65 z "},"D":{"ha":1081,"x_min":65,"x_max":1009,"o":"m 876 486 q 762 774 876 681 q 435 868 648 868 l 233 868 l 233 948 l 474 948 q 772 898 653 948 q 950 748 890 848 q 1009 499 1009 649 q 940 228 1009 340 q 750 58 871 117 q 473 0 629 0 l 233 0 l 233 80 l 458 80 q 681 122 587 80 q 825 253 774 163 q 876 486 876 342 m 65 0 l 65 42 l 183 77 l 183 871 l 65 905 l 65 948 l 308 948 l 308 0 l 65 0 z "},"E":{"ha":917,"x_min":65,"x_max":863,"o":"m 651 676 l 651 496 l 651 315 l 586 315 l 572 456 l 233 456 l 233 536 l 572 536 l 586 676 l 651 676 m 838 687 l 784 683 l 689 897 l 733 868 l 233 868 l 233 948 l 705 948 l 775 987 l 808 987 l 838 687 m 694 48 l 813 276 l 863 272 l 813 -44 l 776 -44 l 713 0 l 233 0 l 233 80 l 731 80 l 694 48 m 65 0 l 65 42 l 183 77 l 183 871 l 65 905 l 65 948 l 308 948 l 308 0 l 65 0 z "},"F":{"ha":851,"x_min":65,"x_max":815,"o":"m 651 647 l 651 464 l 651 281 l 586 281 l 572 424 l 235 424 l 235 504 l 572 504 l 586 647 l 651 647 m 754 987 l 785 987 l 815 681 l 761 676 l 666 897 l 747 868 l 219 868 l 219 948 l 684 948 l 754 987 m 308 948 l 308 77 l 426 42 l 426 0 l 65 0 l 65 42 l 183 77 l 183 871 l 65 905 l 65 948 l 308 948 z "},"G":{"ha":1070,"x_min":71,"x_max":1026,"o":"m 931 132 l 971 88 l 971 65 q 863 23 923 41 q 736 -4 802 6 q 604 -14 670 -14 q 384 18 482 -14 q 215 111 285 50 q 108 262 145 173 q 72 467 71 351 q 137 731 72 620 q 323 902 201 842 q 616 962 444 962 q 723 954 674 962 q 828 931 772 946 l 782 925 l 861 991 l 897 991 l 923 662 l 866 658 l 767 876 l 826 813 q 715 865 769 849 q 592 881 660 881 q 421 856 494 881 q 301 783 349 831 q 228 666 253 735 q 203 508 204 597 q 252 266 201 365 q 393 116 303 167 q 603 65 484 65 q 696 73 649 65 q 783 96 743 81 q 850 134 824 112 l 806 37 l 806 354 l 664 392 l 664 434 l 1026 434 l 1026 392 l 931 357 l 931 132 z "},"H":{"ha":1139,"x_min":65,"x_max":1074,"o":"m 308 77 l 426 42 l 426 0 l 65 0 l 65 42 l 183 77 l 183 871 l 65 905 l 65 948 l 426 948 l 426 905 l 308 871 l 308 77 m 956 77 l 1074 42 l 1074 0 l 713 0 l 713 42 l 831 77 l 831 871 l 713 905 l 713 948 l 1074 948 l 1074 905 l 956 871 l 956 77 m 233 443 l 233 523 l 907 523 l 907 443 l 233 443 z "},"I":{"ha":491,"x_min":65,"x_max":426,"o":"m 426 42 l 426 0 l 65 0 l 65 42 l 183 77 l 183 871 l 65 905 l 65 948 l 426 948 l 426 905 l 308 871 l 308 77 l 426 42 z "},"J":{"ha":652,"x_min":14,"x_max":606,"o":"m 489 289 q 466 161 489 217 q 401 67 443 106 q 299 7 358 28 q 167 -13 240 -13 q 81 -2 115 -13 q 30 30 47 10 q 14 76 14 50 q 30 123 14 104 q 78 142 47 142 q 105 131 90 142 q 137 106 119 120 q 177 81 155 92 q 229 70 200 70 q 326 110 289 70 q 363 245 363 149 l 363 871 l 244 905 l 244 948 l 606 948 l 606 905 l 488 871 l 489 289 z "},"K":{"ha":1043,"x_min":65,"x_max":1042,"o":"m 935 76 l 1042 42 l 1042 0 l 704 0 l 704 33 l 774 67 l 414 451 l 267 451 l 267 529 l 423 529 l 758 874 l 649 905 l 649 948 l 972 948 l 972 905 l 863 871 l 473 485 l 493 536 l 935 76 m 308 871 l 308 77 l 426 42 l 426 0 l 65 0 l 65 42 l 183 77 l 183 871 l 65 905 l 65 948 l 426 948 l 426 905 l 308 871 z "},"L":{"ha":862,"x_min":65,"x_max":831,"o":"m 775 -44 l 736 -44 l 672 0 l 233 0 l 233 80 l 735 80 l 652 47 l 781 300 l 831 295 l 775 -44 m 308 871 l 308 0 l 65 0 l 65 42 l 183 77 l 183 871 l 65 905 l 65 948 l 426 948 l 426 905 l 308 871 z "},"M":{"ha":1392,"x_min":47,"x_max":1348,"o":"m 1232 77 l 1348 42 l 1348 0 l 992 0 l 992 42 l 1108 77 l 1055 848 l 1064 846 l 710 -9 l 635 -9 l 281 838 l 290 840 l 241 77 l 357 42 l 357 0 l 47 0 l 47 42 l 159 77 l 217 865 l 95 905 l 95 948 l 372 948 l 706 129 l 691 129 l 1028 948 l 1292 948 l 1292 905 l 1174 868 l 1232 77 z "},"N":{"ha":1099,"x_min":65,"x_max":1044,"o":"m 184 77 l 184 863 l 65 905 l 65 948 l 324 948 l 881 136 l 844 86 l 844 871 l 717 905 l 717 948 l 1044 948 l 1044 905 l 927 871 l 927 -9 l 841 -9 l 243 853 l 267 870 l 267 77 l 394 42 l 394 0 l 67 0 l 67 42 l 184 77 z "},"O":{"ha":1098,"x_min":71,"x_max":1027,"o":"m 548 962 q 742 926 654 962 q 894 825 831 890 q 992 672 958 760 q 1027 475 1027 583 q 993 278 1027 367 q 895 123 958 189 q 744 22 831 58 q 550 -14 657 -14 q 356 22 444 -14 q 204 122 268 58 q 106 276 140 187 q 71 472 71 365 q 105 669 71 580 q 203 825 140 759 q 354 926 267 890 q 548 962 442 962 m 555 67 q 738 114 663 67 q 854 248 814 161 q 894 453 894 334 q 851 684 894 588 q 729 830 808 779 q 543 881 650 881 q 360 834 436 881 q 244 700 284 787 q 204 495 204 614 q 247 265 204 360 q 369 118 290 169 q 555 67 449 67 z "},"P":{"ha":872,"x_min":65,"x_max":831,"o":"m 700 675 q 674 781 700 738 q 588 846 649 824 q 420 868 526 868 l 201 868 l 207 948 l 475 948 q 682 914 604 948 q 795 819 760 879 q 831 681 831 758 q 795 539 831 603 q 683 438 760 476 q 483 400 606 400 l 207 400 l 201 480 l 492 480 q 600 501 553 480 q 674 566 647 523 q 700 675 700 610 m 308 948 l 308 77 l 426 42 l 426 0 l 65 0 l 65 42 l 183 77 l 183 871 l 65 905 l 65 948 l 308 948 z "},"Q":{"ha":1098,"x_min":71,"x_max":1027,"o":"m 581 -178 l 279 58 q 159 178 205 115 q 92 314 113 241 q 71 472 71 387 q 105 669 71 580 q 203 825 140 759 q 354 926 267 890 q 548 962 442 962 q 742 926 654 962 q 894 825 831 890 q 992 672 958 760 q 1027 475 1027 583 q 984 265 1027 360 q 865 106 942 169 q 685 18 789 42 q 462 22 582 -6 l 453 47 l 719 -129 q 802 -180 767 -160 q 868 -209 837 -199 q 936 -222 900 -219 q 1020 -221 972 -224 l 1020 -265 q 970 -277 997 -271 q 913 -286 944 -283 q 844 -290 882 -290 q 776 -285 806 -290 q 718 -268 747 -280 q 658 -234 690 -256 q 581 -178 625 -212 m 555 67 q 738 114 663 67 q 854 248 814 161 q 894 453 894 334 q 851 684 894 588 q 729 830 808 779 q 543 881 650 881 q 360 834 436 881 q 244 700 284 787 q 204 495 204 614 q 247 265 204 360 q 369 118 290 169 q 555 67 449 67 z "},"R":{"ha":931,"x_min":65,"x_max":917,"o":"m 477 517 q 620 561 565 517 q 675 693 675 605 q 651 789 675 750 q 568 848 626 828 q 410 868 510 868 l 220 868 l 222 948 l 477 948 q 668 917 596 948 q 772 832 740 885 q 805 710 805 778 q 780 599 805 647 q 703 518 754 550 q 577 474 653 486 l 577 479 q 657 460 626 476 q 708 413 688 444 q 744 331 728 382 l 801 151 q 829 85 815 106 q 864 58 843 64 q 917 53 884 53 l 917 0 q 808 -2 849 -4 q 742 14 767 1 q 704 53 718 26 q 676 124 690 79 l 623 295 q 590 382 606 351 q 548 425 574 413 q 475 438 522 438 l 222 438 l 220 517 l 477 517 m 308 948 l 308 77 l 426 42 l 426 0 l 65 0 l 65 42 l 183 77 l 183 871 l 65 905 l 65 948 l 308 948 z "},"S":{"ha":799,"x_min":66,"x_max":724,"o":"m 653 903 l 553 926 l 629 991 l 665 991 l 694 671 l 637 667 l 538 878 l 569 841 q 490 879 530 868 q 401 890 449 890 q 255 851 308 890 q 202 738 202 812 q 222 661 202 692 q 275 609 241 630 q 353 574 309 589 q 445 544 397 559 q 543 512 494 530 q 633 465 592 494 q 699 388 674 435 q 724 269 724 341 q 679 111 724 174 q 554 17 634 49 q 366 -14 474 -14 q 237 -5 294 -14 q 120 26 180 3 l 66 281 l 129 281 l 277 29 l 151 116 q 254 74 208 87 q 358 61 301 61 q 496 80 440 61 q 581 138 552 98 q 610 238 610 177 q 586 325 610 291 q 523 381 563 360 q 435 418 483 403 q 338 449 387 433 q 247 484 290 465 q 169 532 203 503 q 115 603 135 560 q 96 707 96 645 q 134 844 96 788 q 244 932 172 901 q 417 962 317 962 q 539 948 483 962 q 653 903 596 934 z "},"T":{"ha":960,"x_min":34,"x_max":926,"o":"m 417 905 l 542 905 l 542 77 l 665 42 l 665 0 l 294 0 l 294 42 l 417 77 l 417 905 m 834 868 l 126 868 l 181 885 l 90 673 l 34 677 l 70 1000 l 105 1000 l 188 935 l 119 948 l 841 948 l 772 935 l 855 1000 l 890 1000 l 926 677 l 869 673 l 778 885 l 834 868 z "},"U":{"ha":1092,"x_min":42,"x_max":1049,"o":"m 847 342 l 847 871 l 728 905 l 728 948 l 1049 948 l 1049 905 l 931 871 l 931 354 q 886 154 931 236 q 758 29 842 72 q 555 -14 674 -14 q 339 29 426 -14 q 205 158 251 72 q 160 372 160 244 l 160 871 l 42 905 l 42 948 l 403 948 l 403 905 l 285 871 l 285 368 q 316 208 285 272 q 410 114 347 144 q 568 83 474 83 q 721 113 659 83 q 815 199 783 142 q 847 342 847 257 z "},"V":{"ha":994,"x_min":-8,"x_max":993,"o":"m 103 869 l -8 905 l -8 948 l 361 948 l 361 905 l 238 871 l 558 85 l 515 85 l 797 871 l 678 905 l 678 948 l 993 948 l 993 905 l 883 871 l 552 -14 l 469 -14 l 103 869 z "},"W":{"ha":1385,"x_min":1,"x_max":1381,"o":"m 714 828 l 410 -9 l 319 -9 l 113 869 l 1 905 l 1 948 l 367 948 l 367 905 l 244 871 l 415 127 l 388 127 l 677 957 l 760 957 l 1073 101 l 1022 83 l 1191 871 l 1069 905 l 1069 948 l 1381 948 l 1381 905 l 1274 871 l 1071 -9 l 983 -9 l 681 812 l 714 828 z "},"X":{"ha":1033,"x_min":17,"x_max":1026,"o":"m 522 456 l 221 77 l 336 42 l 336 0 l 17 0 l 17 42 l 126 77 l 478 505 l 508 531 l 772 871 l 657 905 l 657 948 l 976 948 l 976 905 l 867 871 l 549 478 l 522 456 m 762 77 l 482 439 l 465 458 l 146 869 l 39 905 l 39 948 l 426 948 l 426 905 l 303 871 l 549 549 l 566 531 l 919 78 l 1026 42 l 1026 0 l 639 0 l 639 42 l 762 77 z "},"Y":{"ha":977,"x_min":-3,"x_max":965,"o":"m 104 869 l -3 905 l -3 948 l 381 948 l 381 905 l 261 871 l 556 455 l 518 456 l 765 871 l 644 905 l 644 948 l 965 948 l 965 905 l 860 871 l 566 409 l 566 77 l 685 42 l 685 0 l 323 0 l 323 42 l 442 77 l 442 403 l 104 869 z "},"Z":{"ha":897,"x_min":63,"x_max":849,"o":"m 815 948 l 815 907 l 226 63 l 206 80 l 706 80 l 798 263 l 849 260 l 803 -40 l 767 -40 l 705 0 l 76 0 l 76 41 l 663 885 l 683 868 l 208 868 l 115 675 l 63 680 l 97 991 l 133 991 l 206 948 l 815 948 z "},"À":{"ha":1018,"x_min":-1,"x_max":1024,"o":"m 265 340 l 265 419 l 737 419 l 737 340 l 265 340 m 912 78 l 1024 42 l 1024 0 l 654 0 l 654 42 l 777 77 l 455 863 l 497 863 l 200 77 l 318 42 l 318 0 l -1 0 l -1 42 l 109 77 l 461 962 l 544 962 l 912 78 m 537 1041 l 481 1041 l 284 1209 l 284 1227 l 446 1227 l 537 1041 z "},"Á":{"ha":1018,"x_min":-1,"x_max":1024,"o":"m 265 340 l 265 419 l 737 419 l 737 340 l 265 340 m 912 78 l 1024 42 l 1024 0 l 654 0 l 654 42 l 777 77 l 455 863 l 497 863 l 200 77 l 318 42 l 318 0 l -1 0 l -1 42 l 109 77 l 461 962 l 544 962 l 912 78 m 470 1041 l 561 1227 l 723 1227 l 723 1209 l 526 1041 l 470 1041 z "},"Â":{"ha":1018,"x_min":-1,"x_max":1024,"o":"m 265 340 l 265 419 l 737 419 l 737 340 l 265 340 m 912 78 l 1024 42 l 1024 0 l 654 0 l 654 42 l 777 77 l 455 863 l 497 863 l 200 77 l 318 42 l 318 0 l -1 0 l -1 42 l 109 77 l 461 962 l 544 962 l 912 78 m 492 1151 l 515 1151 l 361 1041 l 289 1041 l 447 1227 l 560 1227 l 718 1041 l 646 1041 l 492 1151 z "},"Ã":{"ha":1018,"x_min":-1,"x_max":1024,"o":"m 265 340 l 265 419 l 737 419 l 737 340 l 265 340 m 912 78 l 1024 42 l 1024 0 l 654 0 l 654 42 l 777 77 l 455 863 l 497 863 l 200 77 l 318 42 l 318 0 l -1 0 l -1 42 l 109 77 l 461 962 l 544 962 l 912 78 m 708 1224 q 680 1108 695 1148 q 644 1053 665 1068 q 588 1039 622 1039 q 537 1053 562 1039 q 489 1085 512 1067 q 447 1117 467 1103 q 410 1131 427 1131 q 390 1125 399 1131 q 373 1100 381 1119 q 356 1044 365 1081 l 297 1044 q 324 1160 310 1120 q 361 1215 339 1200 q 416 1229 383 1229 q 467 1215 442 1229 q 515 1183 492 1201 q 557 1151 538 1165 q 594 1137 577 1137 q 615 1143 606 1137 q 632 1168 624 1149 q 649 1224 640 1188 l 708 1224 z "},"Ä":{"ha":1018,"x_min":-1,"x_max":1024,"o":"m 265 340 l 265 419 l 737 419 l 737 340 l 265 340 m 912 78 l 1024 42 l 1024 0 l 654 0 l 654 42 l 777 77 l 455 863 l 497 863 l 200 77 l 318 42 l 318 0 l -1 0 l -1 42 l 109 77 l 461 962 l 544 962 l 912 78 m 367 1057 q 308 1079 330 1057 q 287 1135 287 1101 q 308 1190 287 1169 q 367 1211 330 1211 q 427 1190 406 1211 q 449 1135 449 1169 q 427 1079 449 1101 q 367 1057 406 1057 m 640 1057 q 580 1079 602 1057 q 558 1135 558 1101 q 580 1190 558 1169 q 640 1211 602 1211 q 699 1190 677 1211 q 720 1135 720 1169 q 699 1079 720 1101 q 640 1057 677 1057 z "},"Å":{"ha":1018,"x_min":-1,"x_max":1024,"o":"m 265 340 l 265 419 l 737 419 l 737 340 l 265 340 m 912 78 l 1024 42 l 1024 0 l 654 0 l 654 42 l 777 77 l 455 863 l 497 863 l 200 77 l 318 42 l 318 0 l -1 0 l -1 42 l 109 77 l 461 962 l 544 962 l 912 78 m 503 1258 q 594 1224 559 1258 q 628 1135 628 1190 q 594 1045 628 1080 q 503 1011 559 1011 q 413 1045 448 1011 q 378 1135 378 1080 q 413 1224 378 1190 q 503 1258 448 1258 m 503 1055 q 560 1077 539 1055 q 582 1135 582 1099 q 560 1193 582 1171 q 503 1215 539 1215 q 446 1193 467 1215 q 424 1135 424 1171 q 446 1077 424 1099 q 503 1055 467 1055 z "},"Ā":{"ha":1018,"x_min":-1,"x_max":1024,"o":"m 265 340 l 265 419 l 737 419 l 737 340 l 265 340 m 912 78 l 1024 42 l 1024 0 l 654 0 l 654 42 l 777 77 l 455 863 l 497 863 l 200 77 l 318 42 l 318 0 l -1 0 l -1 42 l 109 77 l 461 962 l 544 962 l 912 78 m 316 1094 l 316 1174 l 691 1174 l 691 1094 l 316 1094 z "},"Ă":{"ha":1018,"x_min":-1,"x_max":1024,"o":"m 265 340 l 265 419 l 737 419 l 737 340 l 265 340 m 912 78 l 1024 42 l 1024 0 l 654 0 l 654 42 l 777 77 l 455 863 l 497 863 l 200 77 l 318 42 l 318 0 l -1 0 l -1 42 l 109 77 l 461 962 l 544 962 l 912 78 m 503 1127 q 597 1150 561 1127 q 647 1227 632 1173 l 703 1227 q 663 1113 688 1154 q 600 1053 639 1071 q 503 1036 561 1036 q 407 1053 446 1036 q 344 1113 368 1071 q 304 1227 319 1154 l 360 1227 q 411 1150 375 1173 q 503 1127 447 1127 z "},"Ą":{"ha":1018,"x_min":-1,"x_max":1024,"o":"m 265 340 l 265 419 l 737 419 l 737 340 l 265 340 m 912 78 l 1024 42 l 1024 0 l 654 0 l 654 42 l 777 77 l 455 863 l 497 863 l 200 77 l 318 42 l 318 0 l -1 0 l -1 42 l 109 77 l 461 962 l 544 962 l 912 78 m 827 -79 q 797 -155 805 -125 q 789 -210 789 -185 q 808 -262 789 -244 q 860 -281 828 -281 q 903 -271 881 -281 q 958 -232 925 -261 l 971 -261 q 920 -315 944 -294 q 871 -344 896 -335 q 817 -353 847 -353 q 731 -322 763 -353 q 699 -240 699 -292 q 704 -195 699 -217 q 723 -143 709 -172 q 765 -76 738 -115 l 838 32 l 882 32 l 827 -79 z "},"Ǻ":{"ha":1018,"x_min":-1,"x_max":1024,"o":"m 265 340 l 265 419 l 737 419 l 737 340 l 265 340 m 912 78 l 1024 42 l 1024 0 l 654 0 l 654 42 l 777 77 l 455 863 l 497 863 l 200 77 l 318 42 l 318 0 l -1 0 l -1 42 l 109 77 l 461 962 l 544 962 l 912 78 m 503 1258 q 594 1224 559 1258 q 628 1135 628 1190 q 594 1045 628 1080 q 503 1011 559 1011 q 413 1045 448 1011 q 378 1135 378 1080 q 413 1224 378 1190 q 503 1258 448 1258 m 503 1055 q 560 1077 539 1055 q 582 1135 582 1099 q 560 1193 582 1171 q 503 1215 539 1215 q 446 1193 467 1215 q 424 1135 424 1171 q 446 1077 424 1099 q 503 1055 467 1055 m 470 1321 l 561 1507 l 723 1507 l 723 1489 l 526 1321 l 470 1321 z "},"Ȁ":{"ha":1018,"x_min":-1,"x_max":1024,"o":"m 265 340 l 265 419 l 737 419 l 737 340 l 265 340 m 912 78 l 1024 42 l 1024 0 l 654 0 l 654 42 l 777 77 l 455 863 l 497 863 l 200 77 l 318 42 l 318 0 l -1 0 l -1 42 l 109 77 l 461 962 l 544 962 l 912 78 m 442 1041 l 384 1041 l 163 1210 l 163 1227 l 326 1227 l 442 1041 m 625 1041 l 574 1041 l 422 1212 l 422 1227 l 573 1227 l 625 1041 z "},"Ȃ":{"ha":1018,"x_min":-1,"x_max":1024,"o":"m 265 340 l 265 419 l 737 419 l 737 340 l 265 340 m 912 78 l 1024 42 l 1024 0 l 654 0 l 654 42 l 777 77 l 455 863 l 497 863 l 200 77 l 318 42 l 318 0 l -1 0 l -1 42 l 109 77 l 461 962 l 544 962 l 912 78 m 503 1141 q 411 1118 447 1141 q 360 1041 375 1095 l 304 1041 q 344 1156 319 1115 q 408 1215 369 1197 q 503 1232 447 1232 q 600 1215 561 1232 q 663 1156 638 1197 q 703 1041 688 1115 l 647 1041 q 597 1118 632 1095 q 503 1141 561 1141 z "},"Ạ":{"ha":1018,"x_min":-1,"x_max":1024,"o":"m 265 340 l 265 419 l 737 419 l 737 340 l 265 340 m 912 78 l 1024 42 l 1024 0 l 654 0 l 654 42 l 777 77 l 455 863 l 497 863 l 200 77 l 318 42 l 318 0 l -1 0 l -1 42 l 109 77 l 461 962 l 544 962 l 912 78 m 503 -250 q 437 -227 461 -250 q 413 -168 413 -205 q 437 -109 413 -131 q 503 -87 461 -87 q 568 -109 544 -87 q 592 -168 592 -131 q 568 -227 592 -205 q 503 -250 544 -250 z "},"Ả":{"ha":1018,"x_min":-1,"x_max":1024,"o":"m 265 340 l 265 419 l 737 419 l 737 340 l 265 340 m 912 78 l 1024 42 l 1024 0 l 654 0 l 654 42 l 777 77 l 455 863 l 497 863 l 200 77 l 318 42 l 318 0 l -1 0 l -1 42 l 109 77 l 461 962 l 544 962 l 912 78 m 390 1180 l 403 1274 q 518 1260 473 1270 q 588 1234 563 1249 q 622 1199 613 1219 q 632 1155 632 1178 q 618 1099 632 1124 q 566 1054 605 1074 q 453 1022 528 1035 l 444 1066 q 506 1083 485 1074 q 535 1101 527 1091 q 542 1126 542 1112 q 531 1152 542 1141 q 488 1169 520 1163 q 390 1180 455 1176 z "},"Ấ":{"ha":1018,"x_min":-1,"x_max":1024,"o":"m 265 340 l 265 419 l 737 419 l 737 340 l 265 340 m 912 78 l 1024 42 l 1024 0 l 654 0 l 654 42 l 777 77 l 455 863 l 497 863 l 200 77 l 318 42 l 318 0 l -1 0 l -1 42 l 109 77 l 461 962 l 544 962 l 912 78 m 678 1156 l 751 1317 l 911 1317 l 911 1302 l 733 1156 l 678 1156 m 492 1151 l 515 1151 l 361 1041 l 289 1041 l 447 1227 l 560 1227 l 718 1041 l 646 1041 l 492 1151 z "},"Ầ":{"ha":1018,"x_min":-1,"x_max":1024,"o":"m 265 340 l 265 419 l 737 419 l 737 340 l 265 340 m 912 78 l 1024 42 l 1024 0 l 654 0 l 654 42 l 777 77 l 455 863 l 497 863 l 200 77 l 318 42 l 318 0 l -1 0 l -1 42 l 109 77 l 461 962 l 544 962 l 912 78 m 328 1156 l 274 1156 l 96 1302 l 96 1317 l 256 1317 l 328 1156 m 515 1151 l 361 1041 l 289 1041 l 447 1227 l 560 1227 l 718 1041 l 646 1041 l 492 1151 l 515 1151 z "},"Ẩ":{"ha":1018,"x_min":-1,"x_max":1024,"o":"m 265 340 l 265 419 l 737 419 l 737 340 l 265 340 m 912 78 l 1024 42 l 1024 0 l 654 0 l 654 42 l 777 77 l 455 863 l 497 863 l 200 77 l 318 42 l 318 0 l -1 0 l -1 42 l 109 77 l 461 962 l 544 962 l 912 78 m 515 1151 l 361 1041 l 289 1041 l 447 1227 l 560 1227 l 718 1041 l 646 1041 l 492 1151 l 515 1151 m 681 1192 q 750 1216 733 1202 q 766 1248 766 1229 q 756 1271 766 1261 q 715 1289 745 1281 q 624 1299 684 1296 l 637 1385 q 745 1373 703 1382 q 810 1349 787 1363 q 843 1315 834 1334 q 853 1274 853 1297 q 839 1220 853 1244 q 790 1178 826 1196 q 688 1151 755 1161 l 681 1192 z "},"Ẫ":{"ha":1018,"x_min":-1,"x_max":1024,"o":"m 265 340 l 265 419 l 737 419 l 737 340 l 265 340 m 912 78 l 1024 42 l 1024 0 l 654 0 l 654 42 l 777 77 l 455 863 l 497 863 l 200 77 l 318 42 l 318 0 l -1 0 l -1 42 l 109 77 l 461 962 l 544 962 l 912 78 m 517 1096 l 369 1011 l 301 1011 l 442 1158 l 565 1158 l 706 1011 l 638 1011 l 490 1096 l 517 1096 m 369 1189 l 317 1189 q 347 1266 332 1238 q 384 1308 363 1295 q 436 1320 405 1320 q 473 1312 454 1320 q 511 1293 492 1303 q 548 1274 531 1283 q 581 1266 566 1266 q 616 1277 603 1266 q 638 1319 628 1288 l 690 1319 q 660 1241 676 1269 q 624 1200 644 1213 q 571 1188 603 1188 q 533 1195 552 1188 q 494 1214 513 1203 q 458 1233 476 1225 q 426 1241 441 1241 q 391 1231 403 1241 q 369 1189 379 1220 z "},"Ậ":{"ha":1018,"x_min":-1,"x_max":1024,"o":"m 265 340 l 265 419 l 737 419 l 737 340 l 265 340 m 912 78 l 1024 42 l 1024 0 l 654 0 l 654 42 l 777 77 l 455 863 l 497 863 l 200 77 l 318 42 l 318 0 l -1 0 l -1 42 l 109 77 l 461 962 l 544 962 l 912 78 m 492 1151 l 515 1151 l 361 1041 l 289 1041 l 447 1227 l 560 1227 l 718 1041 l 646 1041 l 492 1151 m 503 -250 q 437 -227 461 -250 q 413 -168 413 -205 q 437 -109 413 -131 q 503 -87 461 -87 q 568 -109 544 -87 q 592 -168 592 -131 q 568 -227 592 -205 q 503 -250 544 -250 z "},"Ắ":{"ha":1018,"x_min":-1,"x_max":1024,"o":"m 265 340 l 265 419 l 737 419 l 737 340 l 265 340 m 912 78 l 1024 42 l 1024 0 l 654 0 l 654 42 l 777 77 l 455 863 l 497 863 l 200 77 l 318 42 l 318 0 l -1 0 l -1 42 l 109 77 l 461 962 l 544 962 l 912 78 m 478 1144 l 550 1319 l 689 1319 l 689 1304 l 524 1144 l 478 1144 m 503 1089 q 595 1108 564 1089 q 640 1165 627 1126 l 690 1165 q 654 1074 677 1108 q 594 1024 631 1040 q 503 1009 557 1009 q 413 1024 450 1009 q 353 1074 376 1040 q 317 1165 330 1108 l 367 1165 q 411 1108 380 1126 q 503 1089 443 1089 z "},"Ằ":{"ha":1018,"x_min":-1,"x_max":1024,"o":"m 265 340 l 265 419 l 737 419 l 737 340 l 265 340 m 912 78 l 1024 42 l 1024 0 l 654 0 l 654 42 l 777 77 l 455 863 l 497 863 l 200 77 l 318 42 l 318 0 l -1 0 l -1 42 l 109 77 l 461 962 l 544 962 l 912 78 m 529 1144 l 483 1144 l 318 1304 l 318 1319 l 457 1319 l 529 1144 m 503 1089 q 595 1108 564 1089 q 640 1165 627 1126 l 690 1165 q 654 1074 677 1108 q 594 1024 631 1040 q 503 1009 557 1009 q 413 1024 450 1009 q 353 1074 376 1040 q 317 1165 330 1108 l 367 1165 q 411 1108 380 1126 q 503 1089 443 1089 z "},"Ẳ":{"ha":1018,"x_min":-1,"x_max":1024,"o":"m 265 340 l 265 419 l 737 419 l 737 340 l 265 340 m 912 78 l 1024 42 l 1024 0 l 654 0 l 654 42 l 777 77 l 455 863 l 497 863 l 200 77 l 318 42 l 318 0 l -1 0 l -1 42 l 109 77 l 461 962 l 544 962 l 912 78 m 503 1089 q 596 1106 564 1089 q 640 1160 628 1124 l 690 1160 q 655 1072 678 1105 q 594 1024 631 1038 q 503 1009 557 1009 q 413 1024 450 1009 q 353 1072 376 1038 q 317 1160 330 1105 l 367 1160 q 411 1106 379 1124 q 503 1089 443 1089 m 468 1176 q 540 1192 523 1183 q 558 1219 558 1201 q 549 1240 558 1231 q 515 1254 541 1248 q 435 1264 489 1260 l 444 1344 q 558 1326 518 1340 q 614 1290 599 1312 q 630 1242 630 1268 q 616 1188 630 1210 q 567 1153 601 1166 q 473 1136 533 1141 l 468 1176 z "},"Ẵ":{"ha":1018,"x_min":-1,"x_max":1024,"o":"m 265 340 l 265 419 l 737 419 l 737 340 l 265 340 m 912 78 l 1024 42 l 1024 0 l 654 0 l 654 42 l 777 77 l 455 863 l 497 863 l 200 77 l 318 42 l 318 0 l -1 0 l -1 42 l 109 77 l 461 962 l 544 962 l 912 78 m 503 1089 q 596 1106 564 1089 q 640 1160 628 1124 l 690 1160 q 655 1072 678 1105 q 594 1024 631 1038 q 503 1009 557 1009 q 413 1024 450 1009 q 353 1072 376 1038 q 317 1160 330 1105 l 367 1160 q 411 1106 379 1124 q 503 1089 443 1089 m 369 1189 l 317 1189 q 347 1266 332 1238 q 384 1308 363 1295 q 436 1320 405 1320 q 473 1312 454 1320 q 511 1293 492 1303 q 548 1274 531 1283 q 581 1266 566 1266 q 616 1277 603 1266 q 638 1319 628 1288 l 690 1319 q 660 1241 676 1269 q 624 1200 644 1213 q 571 1188 603 1188 q 533 1195 552 1188 q 494 1214 513 1203 q 458 1233 476 1225 q 426 1241 441 1241 q 391 1231 403 1241 q 369 1189 379 1220 z "},"Ặ":{"ha":1018,"x_min":-1,"x_max":1024,"o":"m 265 340 l 265 419 l 737 419 l 737 340 l 265 340 m 912 78 l 1024 42 l 1024 0 l 654 0 l 654 42 l 777 77 l 455 863 l 497 863 l 200 77 l 318 42 l 318 0 l -1 0 l -1 42 l 109 77 l 461 962 l 544 962 l 912 78 m 503 1127 q 597 1150 561 1127 q 647 1227 632 1173 l 703 1227 q 663 1113 688 1154 q 600 1053 639 1071 q 503 1036 561 1036 q 407 1053 446 1036 q 344 1113 368 1071 q 304 1227 319 1154 l 360 1227 q 411 1150 375 1173 q 503 1127 447 1127 m 503 -250 q 437 -227 461 -250 q 413 -168 413 -205 q 437 -109 413 -131 q 503 -87 461 -87 q 568 -109 544 -87 q 592 -168 592 -131 q 568 -227 592 -205 q 503 -250 544 -250 z "},"Æ":{"ha":1428,"x_min":-10,"x_max":1374,"o":"m 333 345 l 333 424 l 751 424 l 751 345 l 333 345 m 651 948 l 723 948 l 723 911 l 196 77 l 315 42 l 315 0 l -10 0 l -10 42 l 100 77 l 651 948 m 487 905 l 487 948 l 666 948 l 635 863 l 487 905 m 1161 676 l 1161 496 l 1161 315 l 1097 315 l 1082 456 l 743 456 l 743 536 l 1082 536 l 1097 676 l 1161 676 m 1349 687 l 1294 683 l 1199 897 l 1243 868 l 743 868 l 743 948 l 1215 948 l 1285 987 l 1318 987 l 1349 687 m 1205 48 l 1324 276 l 1374 272 l 1323 -44 l 1286 -44 l 1223 0 l 743 0 l 743 80 l 1242 80 l 1205 48 m 575 0 l 575 42 l 694 77 l 694 948 l 818 948 l 818 0 l 575 0 z "},"Ǽ":{"ha":1428,"x_min":-10,"x_max":1374,"o":"m 333 345 l 333 424 l 751 424 l 751 345 l 333 345 m 651 948 l 723 948 l 723 911 l 196 77 l 315 42 l 315 0 l -10 0 l -10 42 l 100 77 l 651 948 m 487 905 l 487 948 l 666 948 l 635 863 l 487 905 m 1161 676 l 1161 496 l 1161 315 l 1097 315 l 1082 456 l 743 456 l 743 536 l 1082 536 l 1097 676 l 1161 676 m 1349 687 l 1294 683 l 1199 897 l 1243 868 l 743 868 l 743 948 l 1215 948 l 1285 987 l 1318 987 l 1349 687 m 1205 48 l 1324 276 l 1374 272 l 1323 -44 l 1286 -44 l 1223 0 l 743 0 l 743 80 l 1242 80 l 1205 48 m 575 0 l 575 42 l 694 77 l 694 948 l 818 948 l 818 0 l 575 0 m 723 1041 l 814 1227 l 976 1227 l 976 1209 l 778 1041 l 723 1041 z "},"Ç":{"ha":999,"x_min":71,"x_max":931,"o":"m 610 65 q 724 75 667 65 q 833 105 780 85 l 779 60 l 875 267 l 931 267 l 906 42 q 776 2 858 18 q 604 -14 695 -14 q 383 18 481 -14 q 215 111 284 50 q 108 262 145 173 q 72 467 71 351 q 138 731 72 620 q 325 902 203 842 q 620 962 448 962 q 722 954 674 962 q 828 931 770 947 l 788 926 l 865 991 l 901 991 l 928 658 l 871 653 l 778 865 l 809 827 q 701 869 749 858 q 597 881 653 881 q 424 856 497 881 q 302 783 350 831 q 229 666 253 735 q 203 508 204 597 q 232 318 202 400 q 315 179 261 235 q 444 94 369 123 q 610 65 519 65 m 485 -353 q 407 -336 430 -353 q 385 -294 385 -319 q 396 -267 385 -277 q 423 -256 408 -256 q 450 -267 438 -256 q 477 -290 463 -278 q 515 -301 492 -301 q 568 -285 549 -301 q 588 -239 588 -268 q 574 -201 588 -217 q 526 -174 560 -185 q 429 -155 492 -163 l 429 -142 l 561 28 l 622 28 l 494 -142 l 490 -81 q 596 -111 558 -92 q 649 -155 634 -131 q 663 -209 663 -180 q 639 -286 663 -253 q 574 -335 615 -318 q 485 -353 533 -353 z "},"Ć":{"ha":999,"x_min":71,"x_max":931,"o":"m 610 65 q 724 75 667 65 q 833 105 780 85 l 779 60 l 875 267 l 931 267 l 906 42 q 776 2 858 18 q 604 -14 695 -14 q 383 18 481 -14 q 215 111 284 50 q 108 262 145 173 q 72 467 71 351 q 138 731 72 620 q 325 902 203 842 q 620 962 448 962 q 722 954 674 962 q 828 931 770 947 l 788 926 l 865 991 l 901 991 l 928 658 l 871 653 l 778 865 l 809 827 q 701 869 749 858 q 597 881 653 881 q 424 856 497 881 q 302 783 350 831 q 229 666 253 735 q 203 508 204 597 q 232 318 202 400 q 315 179 261 235 q 444 94 369 123 q 610 65 519 65 m 526 1041 l 617 1227 l 778 1227 l 778 1209 l 581 1041 l 526 1041 z "},"Ĉ":{"ha":999,"x_min":71,"x_max":931,"o":"m 610 65 q 724 75 667 65 q 833 105 780 85 l 779 60 l 875 267 l 931 267 l 906 42 q 776 2 858 18 q 604 -14 695 -14 q 383 18 481 -14 q 215 111 284 50 q 108 262 145 173 q 72 467 71 351 q 138 731 72 620 q 325 902 203 842 q 620 962 448 962 q 722 954 674 962 q 828 931 770 947 l 788 926 l 865 991 l 901 991 l 928 658 l 871 653 l 778 865 l 809 827 q 701 869 749 858 q 597 881 653 881 q 424 856 497 881 q 302 783 350 831 q 229 666 253 735 q 203 508 204 597 q 232 318 202 400 q 315 179 261 235 q 444 94 369 123 q 610 65 519 65 m 547 1151 l 571 1151 l 417 1041 l 344 1041 l 502 1227 l 616 1227 l 774 1041 l 701 1041 l 547 1151 z "},"Ċ":{"ha":999,"x_min":71,"x_max":931,"o":"m 610 65 q 724 75 667 65 q 833 105 780 85 l 779 60 l 875 267 l 931 267 l 906 42 q 776 2 858 18 q 604 -14 695 -14 q 383 18 481 -14 q 215 111 284 50 q 108 262 145 173 q 72 467 71 351 q 138 731 72 620 q 325 902 203 842 q 620 962 448 962 q 722 954 674 962 q 828 931 770 947 l 788 926 l 865 991 l 901 991 l 928 658 l 871 653 l 778 865 l 809 827 q 701 869 749 858 q 597 881 653 881 q 424 856 497 881 q 302 783 350 831 q 229 666 253 735 q 203 508 204 597 q 232 318 202 400 q 315 179 261 235 q 444 94 369 123 q 610 65 519 65 m 559 1052 q 493 1075 517 1052 q 469 1135 469 1098 q 493 1194 469 1172 q 559 1216 517 1216 q 625 1194 601 1216 q 649 1135 649 1172 q 625 1075 649 1098 q 559 1052 601 1052 z "},"Č":{"ha":999,"x_min":71,"x_max":931,"o":"m 610 65 q 724 75 667 65 q 833 105 780 85 l 779 60 l 875 267 l 931 267 l 906 42 q 776 2 858 18 q 604 -14 695 -14 q 383 18 481 -14 q 215 111 284 50 q 108 262 145 173 q 72 467 71 351 q 138 731 72 620 q 325 902 203 842 q 620 962 448 962 q 722 954 674 962 q 828 931 770 947 l 788 926 l 865 991 l 901 991 l 928 658 l 871 653 l 778 865 l 809 827 q 701 869 749 858 q 597 881 653 881 q 424 856 497 881 q 302 783 350 831 q 229 666 253 735 q 203 508 204 597 q 232 318 202 400 q 315 179 261 235 q 444 94 369 123 q 610 65 519 65 m 571 1117 l 547 1117 l 701 1227 l 774 1227 l 616 1041 l 502 1041 l 344 1227 l 417 1227 l 571 1117 z "},"Ď":{"ha":1081,"x_min":65,"x_max":1009,"o":"m 876 486 q 762 774 876 681 q 435 868 648 868 l 233 868 l 233 948 l 474 948 q 772 898 653 948 q 950 748 890 848 q 1009 499 1009 649 q 940 228 1009 340 q 750 58 871 117 q 473 0 629 0 l 233 0 l 233 80 l 458 80 q 681 122 587 80 q 825 253 774 163 q 876 486 876 342 m 65 0 l 65 42 l 183 77 l 183 871 l 65 905 l 65 948 l 308 948 l 308 0 l 65 0 m 557 1117 l 533 1117 l 688 1227 l 760 1227 l 602 1041 l 488 1041 l 331 1227 l 403 1227 l 557 1117 z "},"Đ":{"ha":1083,"x_min":67,"x_max":1011,"o":"m 67 443 l 67 517 l 535 517 l 535 443 l 67 443 m 878 486 q 764 774 878 681 q 438 868 650 868 l 235 868 l 235 948 l 476 948 q 774 898 655 948 q 952 748 892 848 q 1011 499 1011 649 q 942 228 1011 340 q 752 58 873 117 q 475 0 631 0 l 235 0 l 235 80 l 460 80 q 683 122 589 80 q 827 253 776 163 q 878 486 878 342 m 67 0 l 67 42 l 185 77 l 185 871 l 67 905 l 67 948 l 310 948 l 310 0 l 67 0 z "},"È":{"ha":917,"x_min":65,"x_max":863,"o":"m 651 676 l 651 496 l 651 315 l 586 315 l 572 456 l 233 456 l 233 536 l 572 536 l 586 676 l 651 676 m 838 687 l 784 683 l 689 897 l 733 868 l 233 868 l 233 948 l 705 948 l 775 987 l 808 987 l 838 687 m 694 48 l 813 276 l 863 272 l 813 -44 l 776 -44 l 713 0 l 233 0 l 233 80 l 731 80 l 694 48 m 65 0 l 65 42 l 183 77 l 183 871 l 65 905 l 65 948 l 308 948 l 308 0 l 65 0 m 502 1041 l 447 1041 l 249 1209 l 249 1227 l 411 1227 l 502 1041 z "},"É":{"ha":917,"x_min":65,"x_max":863,"o":"m 651 676 l 651 496 l 651 315 l 586 315 l 572 456 l 233 456 l 233 536 l 572 536 l 586 676 l 651 676 m 838 687 l 784 683 l 689 897 l 733 868 l 233 868 l 233 948 l 705 948 l 775 987 l 808 987 l 838 687 m 694 48 l 813 276 l 863 272 l 813 -44 l 776 -44 l 713 0 l 233 0 l 233 80 l 731 80 l 694 48 m 65 0 l 65 42 l 183 77 l 183 871 l 65 905 l 65 948 l 308 948 l 308 0 l 65 0 m 435 1041 l 526 1227 l 688 1227 l 688 1209 l 491 1041 l 435 1041 z "},"Ê":{"ha":917,"x_min":65,"x_max":863,"o":"m 651 676 l 651 496 l 651 315 l 586 315 l 572 456 l 233 456 l 233 536 l 572 536 l 586 676 l 651 676 m 838 687 l 784 683 l 689 897 l 733 868 l 233 868 l 233 948 l 705 948 l 775 987 l 808 987 l 838 687 m 694 48 l 813 276 l 863 272 l 813 -44 l 776 -44 l 713 0 l 233 0 l 233 80 l 731 80 l 694 48 m 65 0 l 65 42 l 183 77 l 183 871 l 65 905 l 65 948 l 308 948 l 308 0 l 65 0 m 457 1151 l 481 1151 l 326 1041 l 254 1041 l 412 1227 l 526 1227 l 683 1041 l 611 1041 l 457 1151 z "},"Ë":{"ha":917,"x_min":65,"x_max":863,"o":"m 651 676 l 651 496 l 651 315 l 586 315 l 572 456 l 233 456 l 233 536 l 572 536 l 586 676 l 651 676 m 838 687 l 784 683 l 689 897 l 733 868 l 233 868 l 233 948 l 705 948 l 775 987 l 808 987 l 838 687 m 694 48 l 813 276 l 863 272 l 813 -44 l 776 -44 l 713 0 l 233 0 l 233 80 l 731 80 l 694 48 m 65 0 l 65 42 l 183 77 l 183 871 l 65 905 l 65 948 l 308 948 l 308 0 l 65 0 m 333 1057 q 274 1079 295 1057 q 252 1135 252 1101 q 274 1190 252 1169 q 333 1211 295 1211 q 392 1190 371 1211 q 414 1135 414 1169 q 392 1079 414 1101 q 333 1057 371 1057 m 605 1057 q 545 1079 567 1057 q 524 1135 524 1101 q 545 1190 524 1169 q 605 1211 567 1211 q 664 1190 642 1211 q 685 1135 685 1169 q 664 1079 685 1101 q 605 1057 642 1057 z "},"Ē":{"ha":917,"x_min":65,"x_max":863,"o":"m 651 676 l 651 496 l 651 315 l 586 315 l 572 456 l 233 456 l 233 536 l 572 536 l 586 676 l 651 676 m 838 687 l 784 683 l 689 897 l 733 868 l 233 868 l 233 948 l 705 948 l 775 987 l 808 987 l 838 687 m 694 48 l 813 276 l 863 272 l 813 -44 l 776 -44 l 713 0 l 233 0 l 233 80 l 731 80 l 694 48 m 65 0 l 65 42 l 183 77 l 183 871 l 65 905 l 65 948 l 308 948 l 308 0 l 65 0 m 281 1094 l 281 1174 l 656 1174 l 656 1094 l 281 1094 z "},"Ĕ":{"ha":917,"x_min":65,"x_max":863,"o":"m 651 676 l 651 496 l 651 315 l 586 315 l 572 456 l 233 456 l 233 536 l 572 536 l 586 676 l 651 676 m 838 687 l 784 683 l 689 897 l 733 868 l 233 868 l 233 948 l 705 948 l 775 987 l 808 987 l 838 687 m 694 48 l 813 276 l 863 272 l 813 -44 l 776 -44 l 713 0 l 233 0 l 233 80 l 731 80 l 694 48 m 65 0 l 65 42 l 183 77 l 183 871 l 65 905 l 65 948 l 308 948 l 308 0 l 65 0 m 469 1127 q 562 1150 526 1127 q 612 1227 597 1173 l 668 1227 q 628 1113 653 1154 q 565 1053 604 1071 q 469 1036 526 1036 q 372 1053 411 1036 q 309 1113 333 1071 q 269 1227 285 1154 l 326 1227 q 376 1150 340 1173 q 469 1127 412 1127 z "},"Ė":{"ha":917,"x_min":65,"x_max":863,"o":"m 651 676 l 651 496 l 651 315 l 586 315 l 572 456 l 233 456 l 233 536 l 572 536 l 586 676 l 651 676 m 838 687 l 784 683 l 689 897 l 733 868 l 233 868 l 233 948 l 705 948 l 775 987 l 808 987 l 838 687 m 694 48 l 813 276 l 863 272 l 813 -44 l 776 -44 l 713 0 l 233 0 l 233 80 l 731 80 l 694 48 m 65 0 l 65 42 l 183 77 l 183 871 l 65 905 l 65 948 l 308 948 l 308 0 l 65 0 m 469 1052 q 403 1075 427 1052 q 379 1135 379 1098 q 403 1194 379 1172 q 469 1216 427 1216 q 534 1194 510 1216 q 558 1135 558 1172 q 534 1075 558 1098 q 469 1052 510 1052 z "},"Ę":{"ha":917,"x_min":65,"x_max":863,"o":"m 651 676 l 651 496 l 651 315 l 586 315 l 572 456 l 233 456 l 233 536 l 572 536 l 586 676 l 651 676 m 838 687 l 784 683 l 689 897 l 733 868 l 233 868 l 233 948 l 705 948 l 775 987 l 808 987 l 838 687 m 694 48 l 813 276 l 863 272 l 813 -44 l 776 -44 l 713 0 l 233 0 l 233 80 l 731 80 l 694 48 m 65 0 l 65 42 l 183 77 l 183 871 l 65 905 l 65 948 l 308 948 l 308 0 l 65 0 m 669 -80 q 643 -133 653 -110 q 629 -175 633 -156 q 625 -210 625 -194 q 644 -262 625 -244 q 695 -281 664 -281 q 739 -271 717 -281 q 793 -232 760 -261 l 807 -261 q 756 -315 781 -294 q 707 -344 732 -335 q 653 -353 682 -353 q 566 -322 598 -353 q 535 -240 535 -292 q 541 -195 535 -217 q 562 -143 547 -172 q 608 -76 578 -115 l 688 32 l 731 32 l 669 -80 z "},"Ě":{"ha":917,"x_min":65,"x_max":863,"o":"m 651 676 l 651 496 l 651 315 l 586 315 l 572 456 l 233 456 l 233 536 l 572 536 l 586 676 l 651 676 m 838 687 l 784 683 l 689 897 l 733 868 l 233 868 l 233 948 l 705 948 l 775 987 l 808 987 l 838 687 m 694 48 l 813 276 l 863 272 l 813 -44 l 776 -44 l 713 0 l 233 0 l 233 80 l 731 80 l 694 48 m 65 0 l 65 42 l 183 77 l 183 871 l 65 905 l 65 948 l 308 948 l 308 0 l 65 0 m 481 1117 l 457 1117 l 611 1227 l 683 1227 l 526 1041 l 412 1041 l 254 1227 l 326 1227 l 481 1117 z "},"Ȅ":{"ha":917,"x_min":65,"x_max":863,"o":"m 651 676 l 651 496 l 651 315 l 586 315 l 572 456 l 233 456 l 233 536 l 572 536 l 586 676 l 651 676 m 838 687 l 784 683 l 689 897 l 733 868 l 233 868 l 233 948 l 705 948 l 775 987 l 808 987 l 838 687 m 694 48 l 813 276 l 863 272 l 813 -44 l 776 -44 l 713 0 l 233 0 l 233 80 l 731 80 l 694 48 m 65 0 l 65 42 l 183 77 l 183 871 l 65 905 l 65 948 l 308 948 l 308 0 l 65 0 m 408 1041 l 349 1041 l 128 1210 l 128 1227 l 292 1227 l 408 1041 m 590 1041 l 540 1041 l 388 1212 l 388 1227 l 538 1227 l 590 1041 z "},"Ȇ":{"ha":917,"x_min":65,"x_max":863,"o":"m 651 676 l 651 496 l 651 315 l 586 315 l 572 456 l 233 456 l 233 536 l 572 536 l 586 676 l 651 676 m 838 687 l 784 683 l 689 897 l 733 868 l 233 868 l 233 948 l 705 948 l 775 987 l 808 987 l 838 687 m 694 48 l 813 276 l 863 272 l 813 -44 l 776 -44 l 713 0 l 233 0 l 233 80 l 731 80 l 694 48 m 65 0 l 65 42 l 183 77 l 183 871 l 65 905 l 65 948 l 308 948 l 308 0 l 65 0 m 469 1141 q 376 1118 412 1141 q 326 1041 340 1095 l 269 1041 q 309 1156 285 1115 q 373 1215 334 1197 q 469 1232 412 1232 q 565 1215 526 1232 q 628 1156 603 1197 q 668 1041 653 1115 l 612 1041 q 562 1118 597 1095 q 469 1141 526 1141 z "},"Ẹ":{"ha":917,"x_min":65,"x_max":863,"o":"m 651 676 l 651 496 l 651 315 l 586 315 l 572 456 l 233 456 l 233 536 l 572 536 l 586 676 l 651 676 m 838 687 l 784 683 l 689 897 l 733 868 l 233 868 l 233 948 l 705 948 l 775 987 l 808 987 l 838 687 m 694 48 l 813 276 l 863 272 l 813 -44 l 776 -44 l 713 0 l 233 0 l 233 80 l 731 80 l 694 48 m 65 0 l 65 42 l 183 77 l 183 871 l 65 905 l 65 948 l 308 948 l 308 0 l 65 0 m 478 -250 q 413 -227 437 -250 q 389 -168 389 -205 q 413 -109 389 -131 q 478 -87 437 -87 q 544 -109 520 -87 q 568 -168 568 -131 q 544 -227 568 -205 q 478 -250 520 -250 z "},"Ẻ":{"ha":917,"x_min":65,"x_max":863,"o":"m 651 676 l 651 496 l 651 315 l 586 315 l 572 456 l 233 456 l 233 536 l 572 536 l 586 676 l 651 676 m 838 687 l 784 683 l 689 897 l 733 868 l 233 868 l 233 948 l 705 948 l 775 987 l 808 987 l 838 687 m 694 48 l 813 276 l 863 272 l 813 -44 l 776 -44 l 713 0 l 233 0 l 233 80 l 731 80 l 694 48 m 65 0 l 65 42 l 183 77 l 183 871 l 65 905 l 65 948 l 308 948 l 308 0 l 65 0 m 355 1180 l 369 1274 q 483 1260 438 1270 q 553 1234 528 1249 q 588 1199 578 1219 q 597 1155 597 1178 q 584 1099 597 1124 q 532 1054 570 1074 q 419 1022 493 1035 l 410 1066 q 472 1083 451 1074 q 500 1101 492 1091 q 508 1126 508 1112 q 497 1152 508 1141 q 453 1169 485 1163 q 355 1180 420 1176 z "},"Ẽ":{"ha":917,"x_min":65,"x_max":863,"o":"m 651 676 l 651 496 l 651 315 l 586 315 l 572 456 l 233 456 l 233 536 l 572 536 l 586 676 l 651 676 m 838 687 l 784 683 l 689 897 l 733 868 l 233 868 l 233 948 l 705 948 l 775 987 l 808 987 l 838 687 m 694 48 l 813 276 l 863 272 l 813 -44 l 776 -44 l 713 0 l 233 0 l 233 80 l 731 80 l 694 48 m 65 0 l 65 42 l 183 77 l 183 871 l 65 905 l 65 948 l 308 948 l 308 0 l 65 0 m 673 1224 q 645 1108 660 1148 q 609 1053 631 1068 q 553 1039 588 1039 q 502 1053 527 1039 q 455 1085 477 1067 q 412 1117 432 1103 q 376 1131 392 1131 q 355 1125 364 1131 q 338 1100 346 1119 q 321 1044 330 1081 l 262 1044 q 290 1160 275 1120 q 326 1215 304 1200 q 381 1229 348 1229 q 433 1215 408 1229 q 480 1183 458 1201 q 523 1151 503 1165 q 559 1137 542 1137 q 580 1143 571 1137 q 597 1168 589 1149 q 614 1224 606 1188 l 673 1224 z "},"Ế":{"ha":917,"x_min":65,"x_max":877,"o":"m 651 676 l 651 496 l 651 315 l 586 315 l 572 456 l 233 456 l 233 536 l 572 536 l 586 676 l 651 676 m 838 687 l 784 683 l 689 897 l 733 868 l 233 868 l 233 948 l 705 948 l 775 987 l 808 987 l 838 687 m 694 48 l 813 276 l 863 272 l 813 -44 l 776 -44 l 713 0 l 233 0 l 233 80 l 731 80 l 694 48 m 65 0 l 65 42 l 183 77 l 183 871 l 65 905 l 65 948 l 308 948 l 308 0 l 65 0 m 644 1156 l 717 1317 l 876 1317 l 876 1302 l 698 1156 l 644 1156 m 457 1151 l 481 1151 l 326 1041 l 254 1041 l 412 1227 l 526 1227 l 683 1041 l 611 1041 l 457 1151 z "},"Ề":{"ha":917,"x_min":61,"x_max":863,"o":"m 651 676 l 651 496 l 651 315 l 586 315 l 572 456 l 233 456 l 233 536 l 572 536 l 586 676 l 651 676 m 838 687 l 784 683 l 689 897 l 733 868 l 233 868 l 233 948 l 705 948 l 775 987 l 808 987 l 838 687 m 694 48 l 813 276 l 863 272 l 813 -44 l 776 -44 l 713 0 l 233 0 l 233 80 l 731 80 l 694 48 m 65 0 l 65 42 l 183 77 l 183 871 l 65 905 l 65 948 l 308 948 l 308 0 l 65 0 m 294 1156 l 240 1156 l 61 1302 l 61 1317 l 221 1317 l 294 1156 m 481 1151 l 326 1041 l 254 1041 l 412 1227 l 526 1227 l 683 1041 l 611 1041 l 457 1151 l 481 1151 z "},"Ể":{"ha":917,"x_min":65,"x_max":863,"o":"m 651 676 l 651 496 l 651 315 l 586 315 l 572 456 l 233 456 l 233 536 l 572 536 l 586 676 l 651 676 m 838 687 l 784 683 l 689 897 l 733 868 l 233 868 l 233 948 l 705 948 l 775 987 l 808 987 l 838 687 m 694 48 l 813 276 l 863 272 l 813 -44 l 776 -44 l 713 0 l 233 0 l 233 80 l 731 80 l 694 48 m 65 0 l 65 42 l 183 77 l 183 871 l 65 905 l 65 948 l 308 948 l 308 0 l 65 0 m 481 1151 l 326 1041 l 254 1041 l 412 1227 l 526 1227 l 683 1041 l 611 1041 l 457 1151 l 481 1151 m 646 1192 q 715 1216 699 1202 q 731 1248 731 1229 q 721 1271 731 1261 q 680 1289 710 1281 q 589 1299 649 1296 l 602 1385 q 710 1373 668 1382 q 776 1349 752 1363 q 809 1315 799 1334 q 818 1274 818 1297 q 805 1220 818 1244 q 756 1178 791 1196 q 653 1151 720 1161 l 646 1192 z "},"Ễ":{"ha":917,"x_min":65,"x_max":863,"o":"m 651 676 l 651 496 l 651 315 l 586 315 l 572 456 l 233 456 l 233 536 l 572 536 l 586 676 l 651 676 m 838 687 l 784 683 l 689 897 l 733 868 l 233 868 l 233 948 l 705 948 l 775 987 l 808 987 l 838 687 m 694 48 l 813 276 l 863 272 l 813 -44 l 776 -44 l 713 0 l 233 0 l 233 80 l 731 80 l 694 48 m 65 0 l 65 42 l 183 77 l 183 871 l 65 905 l 65 948 l 308 948 l 308 0 l 65 0 m 482 1096 l 334 1011 l 266 1011 l 407 1158 l 531 1158 l 672 1011 l 603 1011 l 456 1096 l 482 1096 m 334 1189 l 282 1189 q 313 1266 297 1238 q 349 1308 328 1295 q 401 1320 370 1320 q 439 1312 419 1320 q 477 1293 458 1303 q 514 1274 496 1283 q 547 1266 531 1266 q 581 1277 569 1266 q 603 1319 593 1288 l 656 1319 q 625 1241 641 1269 q 589 1200 610 1213 q 536 1188 568 1188 q 498 1195 517 1188 q 460 1214 478 1203 q 424 1233 441 1225 q 391 1241 406 1241 q 357 1231 369 1241 q 334 1189 344 1220 z "},"Ệ":{"ha":917,"x_min":65,"x_max":863,"o":"m 651 676 l 651 496 l 651 315 l 586 315 l 572 456 l 233 456 l 233 536 l 572 536 l 586 676 l 651 676 m 838 687 l 784 683 l 689 897 l 733 868 l 233 868 l 233 948 l 705 948 l 775 987 l 808 987 l 838 687 m 694 48 l 813 276 l 863 272 l 813 -44 l 776 -44 l 713 0 l 233 0 l 233 80 l 731 80 l 694 48 m 65 0 l 65 42 l 183 77 l 183 871 l 65 905 l 65 948 l 308 948 l 308 0 l 65 0 m 457 1151 l 481 1151 l 326 1041 l 254 1041 l 412 1227 l 526 1227 l 683 1041 l 611 1041 l 457 1151 m 478 -250 q 413 -227 437 -250 q 389 -168 389 -205 q 413 -109 389 -131 q 478 -87 437 -87 q 544 -109 520 -87 q 568 -168 568 -131 q 544 -227 568 -205 q 478 -250 520 -250 z "},"Ĝ":{"ha":1070,"x_min":71,"x_max":1026,"o":"m 931 132 l 971 88 l 971 65 q 863 23 923 41 q 736 -4 802 6 q 604 -14 670 -14 q 384 18 482 -14 q 215 111 285 50 q 108 262 145 173 q 72 467 71 351 q 137 731 72 620 q 323 902 201 842 q 616 962 444 962 q 723 954 674 962 q 828 931 772 946 l 782 925 l 861 991 l 897 991 l 923 662 l 866 658 l 767 876 l 826 813 q 715 865 769 849 q 592 881 660 881 q 421 856 494 881 q 301 783 349 831 q 228 666 253 735 q 203 508 204 597 q 252 266 201 365 q 393 116 303 167 q 603 65 484 65 q 696 73 649 65 q 783 96 743 81 q 850 134 824 112 l 806 37 l 806 354 l 664 392 l 664 434 l 1026 434 l 1026 392 l 931 357 l 931 132 m 553 1151 l 576 1151 l 422 1041 l 350 1041 l 508 1227 l 622 1227 l 779 1041 l 707 1041 l 553 1151 z "},"Ğ":{"ha":1070,"x_min":71,"x_max":1026,"o":"m 931 132 l 971 88 l 971 65 q 863 23 923 41 q 736 -4 802 6 q 604 -14 670 -14 q 384 18 482 -14 q 215 111 285 50 q 108 262 145 173 q 72 467 71 351 q 137 731 72 620 q 323 902 201 842 q 616 962 444 962 q 723 954 674 962 q 828 931 772 946 l 782 925 l 861 991 l 897 991 l 923 662 l 866 658 l 767 876 l 826 813 q 715 865 769 849 q 592 881 660 881 q 421 856 494 881 q 301 783 349 831 q 228 666 253 735 q 203 508 204 597 q 252 266 201 365 q 393 116 303 167 q 603 65 484 65 q 696 73 649 65 q 783 96 743 81 q 850 134 824 112 l 806 37 l 806 354 l 664 392 l 664 434 l 1026 434 l 1026 392 l 931 357 l 931 132 m 565 1127 q 658 1150 622 1127 q 708 1227 693 1173 l 764 1227 q 724 1113 749 1154 q 661 1053 700 1071 q 565 1036 622 1036 q 468 1053 507 1036 q 405 1113 429 1071 q 365 1227 381 1154 l 422 1227 q 472 1150 436 1173 q 565 1127 508 1127 z "},"Ġ":{"ha":1070,"x_min":71,"x_max":1026,"o":"m 931 132 l 971 88 l 971 65 q 863 23 923 41 q 736 -4 802 6 q 604 -14 670 -14 q 384 18 482 -14 q 215 111 285 50 q 108 262 145 173 q 72 467 71 351 q 137 731 72 620 q 323 902 201 842 q 616 962 444 962 q 723 954 674 962 q 828 931 772 946 l 782 925 l 861 991 l 897 991 l 923 662 l 866 658 l 767 876 l 826 813 q 715 865 769 849 q 592 881 660 881 q 421 856 494 881 q 301 783 349 831 q 228 666 253 735 q 203 508 204 597 q 252 266 201 365 q 393 116 303 167 q 603 65 484 65 q 696 73 649 65 q 783 96 743 81 q 850 134 824 112 l 806 37 l 806 354 l 664 392 l 664 434 l 1026 434 l 1026 392 l 931 357 l 931 132 m 565 1052 q 499 1075 523 1052 q 475 1135 475 1098 q 499 1194 475 1172 q 565 1216 523 1216 q 630 1194 606 1216 q 654 1135 654 1172 q 630 1075 654 1098 q 565 1052 606 1052 z "},"Ģ":{"ha":1070,"x_min":71,"x_max":1026,"o":"m 931 132 l 971 88 l 971 65 q 863 23 923 41 q 736 -4 802 6 q 604 -14 670 -14 q 384 18 482 -14 q 215 111 285 50 q 108 262 145 173 q 72 467 71 351 q 137 731 72 620 q 323 902 201 842 q 616 962 444 962 q 723 954 674 962 q 828 931 772 946 l 782 925 l 861 991 l 897 991 l 923 662 l 866 658 l 767 876 l 826 813 q 715 865 769 849 q 592 881 660 881 q 421 856 494 881 q 301 783 349 831 q 228 666 253 735 q 203 508 204 597 q 252 266 201 365 q 393 116 303 167 q 603 65 484 65 q 696 73 649 65 q 783 96 743 81 q 850 134 824 112 l 806 37 l 806 354 l 664 392 l 664 434 l 1026 434 l 1026 392 l 931 357 l 931 132 m 647 1106 q 629 1052 647 1076 q 568 1029 610 1029 q 509 1050 533 1029 q 484 1117 484 1070 q 498 1170 484 1144 q 545 1217 511 1197 q 639 1244 578 1238 l 647 1203 q 586 1188 603 1199 q 569 1158 569 1176 q 581 1138 569 1146 q 608 1126 592 1131 q 635 1116 624 1121 q 647 1106 647 1112 z "},"Ǧ":{"ha":1070,"x_min":71,"x_max":1026,"o":"m 931 132 l 971 88 l 971 65 q 863 23 923 41 q 736 -4 802 6 q 604 -14 670 -14 q 384 18 482 -14 q 215 111 285 50 q 108 262 145 173 q 72 467 71 351 q 137 731 72 620 q 323 902 201 842 q 616 962 444 962 q 723 954 674 962 q 828 931 772 946 l 782 925 l 861 991 l 897 991 l 923 662 l 866 658 l 767 876 l 826 813 q 715 865 769 849 q 592 881 660 881 q 421 856 494 881 q 301 783 349 831 q 228 666 253 735 q 203 508 204 597 q 252 266 201 365 q 393 116 303 167 q 603 65 484 65 q 696 73 649 65 q 783 96 743 81 q 850 134 824 112 l 806 37 l 806 354 l 664 392 l 664 434 l 1026 434 l 1026 392 l 931 357 l 931 132 m 576 1117 l 553 1117 l 707 1227 l 779 1227 l 622 1041 l 508 1041 l 350 1227 l 422 1227 l 576 1117 z "},"Ĥ":{"ha":1139,"x_min":65,"x_max":1074,"o":"m 308 77 l 426 42 l 426 0 l 65 0 l 65 42 l 183 77 l 183 871 l 65 905 l 65 948 l 426 948 l 426 905 l 308 871 l 308 77 m 956 77 l 1074 42 l 1074 0 l 713 0 l 713 42 l 831 77 l 831 871 l 713 905 l 713 948 l 1074 948 l 1074 905 l 956 871 l 956 77 m 233 443 l 233 523 l 907 523 l 907 443 l 233 443 m 558 1151 l 581 1151 l 427 1041 l 355 1041 l 513 1227 l 626 1227 l 784 1041 l 712 1041 l 558 1151 z "},"Ħ":{"ha":1142,"x_min":66,"x_max":1076,"o":"m 309 77 l 428 42 l 428 0 l 66 0 l 66 42 l 185 77 l 185 871 l 66 905 l 66 948 l 428 948 l 428 905 l 309 871 l 309 77 m 957 77 l 1076 42 l 1076 0 l 714 0 l 714 42 l 833 77 l 833 871 l 714 905 l 714 948 l 1076 948 l 1076 905 l 957 871 l 957 77 m 66 672 l 66 746 l 1076 746 l 1076 672 l 66 672 m 234 443 l 234 523 l 908 523 l 908 443 l 234 443 z "},"Ì":{"ha":491,"x_min":26,"x_max":426,"o":"m 426 42 l 426 0 l 65 0 l 65 42 l 183 77 l 183 871 l 65 905 l 65 948 l 426 948 l 426 905 l 308 871 l 308 77 l 426 42 m 279 1041 l 224 1041 l 26 1209 l 26 1227 l 188 1227 l 279 1041 z "},"Í":{"ha":491,"x_min":65,"x_max":465,"o":"m 426 42 l 426 0 l 65 0 l 65 42 l 183 77 l 183 871 l 65 905 l 65 948 l 426 948 l 426 905 l 308 871 l 308 77 l 426 42 m 213 1041 l 303 1227 l 465 1227 l 465 1209 l 268 1041 l 213 1041 z "},"Î":{"ha":491,"x_min":31,"x_max":460,"o":"m 426 42 l 426 0 l 65 0 l 65 42 l 183 77 l 183 871 l 65 905 l 65 948 l 426 948 l 426 905 l 308 871 l 308 77 l 426 42 m 234 1151 l 258 1151 l 103 1041 l 31 1041 l 189 1227 l 303 1227 l 460 1041 l 388 1041 l 234 1151 z "},"Ï":{"ha":491,"x_min":29,"x_max":463,"o":"m 426 42 l 426 0 l 65 0 l 65 42 l 183 77 l 183 871 l 65 905 l 65 948 l 426 948 l 426 905 l 308 871 l 308 77 l 426 42 m 110 1057 q 51 1079 72 1057 q 29 1135 29 1101 q 51 1190 29 1169 q 110 1211 72 1211 q 169 1190 148 1211 q 191 1135 191 1169 q 169 1079 191 1101 q 110 1057 148 1057 m 382 1057 q 323 1079 344 1057 q 301 1135 301 1101 q 323 1190 301 1169 q 382 1211 344 1211 q 441 1190 419 1211 q 463 1135 463 1169 q 441 1079 463 1101 q 382 1057 419 1057 z "},"Ī":{"ha":491,"x_min":58,"x_max":433,"o":"m 426 42 l 426 0 l 65 0 l 65 42 l 183 77 l 183 871 l 65 905 l 65 948 l 426 948 l 426 905 l 308 871 l 308 77 l 426 42 m 58 1094 l 58 1174 l 433 1174 l 433 1094 l 58 1094 z "},"Ĭ":{"ha":491,"x_min":47,"x_max":445,"o":"m 426 42 l 426 0 l 65 0 l 65 42 l 183 77 l 183 871 l 65 905 l 65 948 l 426 948 l 426 905 l 308 871 l 308 77 l 426 42 m 246 1127 q 339 1150 303 1127 q 389 1227 374 1173 l 445 1227 q 406 1113 430 1154 q 342 1053 381 1071 q 246 1036 303 1036 q 149 1053 188 1036 q 86 1113 110 1071 q 47 1227 62 1154 l 103 1227 q 153 1150 117 1173 q 246 1127 189 1127 z "},"Ĩ":{"ha":491,"x_min":39,"x_max":449,"o":"m 426 42 l 426 0 l 65 0 l 65 42 l 183 77 l 183 871 l 65 905 l 65 948 l 426 948 l 426 905 l 308 871 l 308 77 l 426 42 m 450 1224 q 423 1108 438 1148 q 386 1053 408 1068 q 331 1039 365 1039 q 279 1053 304 1039 q 232 1085 254 1067 q 189 1117 209 1103 q 153 1131 169 1131 q 132 1125 141 1131 q 115 1100 123 1119 q 98 1044 107 1081 l 39 1044 q 67 1160 52 1120 q 103 1215 81 1200 q 158 1229 125 1229 q 210 1215 185 1229 q 257 1183 235 1201 q 300 1151 280 1165 q 336 1137 319 1137 q 357 1143 348 1137 q 374 1168 366 1149 q 391 1224 383 1188 l 450 1224 z "},"Į":{"ha":491,"x_min":65,"x_max":426,"o":"m 426 42 l 426 0 l 65 0 l 65 42 l 183 77 l 183 871 l 65 905 l 65 948 l 426 948 l 426 905 l 308 871 l 308 77 l 426 42 m 234 -78 q 210 -132 219 -108 q 199 -175 202 -156 q 195 -210 195 -194 q 215 -262 195 -244 q 266 -281 234 -281 q 309 -271 288 -281 q 364 -232 331 -261 l 377 -261 q 326 -315 351 -294 q 277 -344 302 -335 q 224 -353 253 -353 q 137 -322 169 -353 q 106 -240 106 -292 q 110 -194 106 -217 q 130 -143 115 -172 q 172 -75 144 -114 l 245 32 l 289 32 l 234 -78 z "},"İ":{"ha":491,"x_min":65,"x_max":426,"o":"m 426 42 l 426 0 l 65 0 l 65 42 l 183 77 l 183 871 l 65 905 l 65 948 l 426 948 l 426 905 l 308 871 l 308 77 l 426 42 m 246 1052 q 180 1075 204 1052 q 156 1135 156 1098 q 180 1194 156 1172 q 246 1216 204 1216 q 311 1194 288 1216 q 335 1135 335 1172 q 311 1075 335 1098 q 246 1052 288 1052 z "},"Ȉ":{"ha":491,"x_min":-95,"x_max":426,"o":"m 426 42 l 426 0 l 65 0 l 65 42 l 183 77 l 183 871 l 65 905 l 65 948 l 426 948 l 426 905 l 308 871 l 308 77 l 426 42 m 185 1041 l 126 1041 l -95 1210 l -95 1227 l 69 1227 l 185 1041 m 367 1041 l 317 1041 l 165 1212 l 165 1227 l 315 1227 l 367 1041 z "},"Ȋ":{"ha":491,"x_min":47,"x_max":445,"o":"m 426 42 l 426 0 l 65 0 l 65 42 l 183 77 l 183 871 l 65 905 l 65 948 l 426 948 l 426 905 l 308 871 l 308 77 l 426 42 m 246 1141 q 153 1118 189 1141 q 103 1041 117 1095 l 47 1041 q 86 1156 62 1115 q 150 1215 111 1197 q 246 1232 189 1232 q 342 1215 303 1232 q 405 1156 381 1197 q 445 1041 430 1115 l 389 1041 q 339 1118 374 1095 q 246 1141 303 1141 z "},"Ỉ":{"ha":491,"x_min":65,"x_max":426,"o":"m 426 42 l 426 0 l 65 0 l 65 42 l 183 77 l 183 871 l 65 905 l 65 948 l 426 948 l 426 905 l 308 871 l 308 77 l 426 42 m 132 1180 l 146 1274 q 260 1260 215 1270 q 330 1234 305 1249 q 365 1199 355 1219 q 374 1155 374 1178 q 361 1099 374 1124 q 309 1054 347 1074 q 196 1022 270 1035 l 187 1066 q 249 1083 228 1074 q 277 1101 269 1091 q 285 1126 285 1112 q 274 1152 285 1141 q 230 1169 263 1163 q 132 1180 197 1176 z "},"Ị":{"ha":491,"x_min":65,"x_max":426,"o":"m 426 42 l 426 0 l 65 0 l 65 42 l 183 77 l 183 871 l 65 905 l 65 948 l 426 948 l 426 905 l 308 871 l 308 77 l 426 42 m 246 -250 q 180 -227 204 -250 q 156 -168 156 -205 q 180 -109 156 -131 q 246 -87 204 -87 q 311 -109 288 -87 q 335 -168 335 -131 q 311 -227 335 -205 q 246 -250 288 -250 z "},"Ĵ":{"ha":652,"x_min":14,"x_max":640,"o":"m 489 289 q 466 161 489 217 q 401 67 443 106 q 299 7 358 28 q 167 -13 240 -13 q 81 -2 115 -13 q 30 30 47 10 q 14 76 14 50 q 30 123 14 104 q 78 142 47 142 q 105 131 90 142 q 137 106 119 120 q 177 81 155 92 q 229 70 200 70 q 326 110 289 70 q 363 245 363 149 l 363 871 l 244 905 l 244 948 l 606 948 l 606 905 l 488 871 l 489 289 m 413 1151 l 437 1151 l 283 1041 l 210 1041 l 368 1227 l 482 1227 l 640 1041 l 567 1041 l 413 1151 z "},"Ķ":{"ha":1043,"x_min":65,"x_max":1042,"o":"m 935 76 l 1042 42 l 1042 0 l 704 0 l 704 33 l 774 67 l 414 451 l 267 451 l 267 529 l 423 529 l 758 874 l 649 905 l 649 948 l 972 948 l 972 905 l 863 871 l 473 485 l 493 536 l 935 76 m 308 871 l 308 77 l 426 42 l 426 0 l 65 0 l 65 42 l 183 77 l 183 871 l 65 905 l 65 948 l 426 948 l 426 905 l 308 871 m 461 -301 q 536 -271 516 -287 q 556 -230 556 -255 q 542 -200 556 -211 q 511 -180 529 -188 q 481 -165 494 -172 q 467 -148 467 -157 q 490 -91 467 -112 q 553 -69 513 -69 q 618 -94 592 -69 q 644 -173 644 -120 q 630 -246 644 -212 q 580 -307 616 -281 q 474 -349 543 -333 l 461 -301 z "},"Ĺ":{"ha":862,"x_min":65,"x_max":831,"o":"m 775 -44 l 736 -44 l 672 0 l 233 0 l 233 80 l 735 80 l 652 47 l 781 300 l 831 295 l 775 -44 m 308 871 l 308 0 l 65 0 l 65 42 l 183 77 l 183 871 l 65 905 l 65 948 l 426 948 l 426 905 l 308 871 m 213 1041 l 303 1227 l 465 1227 l 465 1209 l 268 1041 l 213 1041 z "},"Ļ":{"ha":862,"x_min":65,"x_max":831,"o":"m 775 -44 l 736 -44 l 672 0 l 233 0 l 233 80 l 735 80 l 652 47 l 781 300 l 831 295 l 775 -44 m 308 871 l 308 0 l 65 0 l 65 42 l 183 77 l 183 871 l 65 905 l 65 948 l 426 948 l 426 905 l 308 871 m 352 -301 q 427 -271 407 -287 q 447 -230 447 -255 q 433 -200 447 -211 q 402 -180 420 -188 q 372 -165 385 -172 q 358 -148 358 -157 q 381 -91 358 -112 q 444 -69 403 -69 q 509 -94 483 -69 q 535 -173 535 -120 q 521 -246 535 -212 q 470 -307 507 -281 q 365 -349 434 -333 l 352 -301 z "},"Ł":{"ha":888,"x_min":66,"x_max":858,"o":"m 235 401 l 66 304 l 66 388 l 235 484 l 294 505 l 554 653 l 554 571 l 294 422 l 235 401 m 801 -44 l 763 -44 l 697 0 l 259 0 l 259 80 l 761 80 l 678 47 l 807 300 l 858 295 l 801 -44 m 334 871 l 334 0 l 91 0 l 91 42 l 210 77 l 210 871 l 91 905 l 91 948 l 453 948 l 453 905 l 334 871 z "},"Ľ":{"ha":865,"x_min":65,"x_max":831,"o":"m 775 -44 l 736 -44 l 672 0 l 233 0 l 233 80 l 735 80 l 652 47 l 781 300 l 831 295 l 775 -44 m 308 871 l 308 0 l 65 0 l 65 42 l 183 77 l 183 871 l 65 905 l 65 948 l 426 948 l 426 905 l 308 871 m 572 687 l 606 947 l 745 947 l 745 929 l 628 687 l 572 687 z "},"Ŀ":{"ha":864,"x_min":65,"x_max":831,"o":"m 775 -44 l 736 -44 l 672 0 l 233 0 l 233 80 l 735 80 l 652 47 l 781 300 l 831 295 l 775 -44 m 308 871 l 308 0 l 65 0 l 65 42 l 183 77 l 183 871 l 65 905 l 65 948 l 426 948 l 426 905 l 308 871 m 674 422 q 609 444 633 422 q 585 504 585 467 q 609 563 585 541 q 674 585 633 585 q 740 563 716 585 q 764 504 764 541 q 740 444 764 467 q 674 422 716 422 z "},"Ñ":{"ha":1099,"x_min":65,"x_max":1044,"o":"m 184 77 l 184 863 l 65 905 l 65 948 l 324 948 l 881 136 l 844 86 l 844 871 l 717 905 l 717 948 l 1044 948 l 1044 905 l 927 871 l 927 -9 l 841 -9 l 243 853 l 267 870 l 267 77 l 394 42 l 394 0 l 67 0 l 67 42 l 184 77 m 769 1224 q 742 1108 757 1148 q 706 1053 727 1068 q 650 1039 684 1039 q 599 1053 624 1039 q 551 1085 574 1067 q 509 1117 528 1103 q 472 1131 489 1131 q 451 1125 460 1131 q 434 1100 442 1119 q 417 1044 426 1081 l 358 1044 q 386 1160 372 1120 q 423 1215 401 1200 q 478 1229 444 1229 q 529 1215 504 1229 q 577 1183 554 1201 q 619 1151 599 1165 q 656 1137 639 1137 q 676 1143 667 1137 q 694 1168 685 1149 q 710 1224 702 1188 l 769 1224 z "},"Ń":{"ha":1099,"x_min":65,"x_max":1044,"o":"m 184 77 l 184 863 l 65 905 l 65 948 l 324 948 l 881 136 l 844 86 l 844 871 l 717 905 l 717 948 l 1044 948 l 1044 905 l 927 871 l 927 -9 l 841 -9 l 243 853 l 267 870 l 267 77 l 394 42 l 394 0 l 67 0 l 67 42 l 184 77 m 532 1041 l 623 1227 l 785 1227 l 785 1209 l 588 1041 l 532 1041 z "},"Ņ":{"ha":1099,"x_min":65,"x_max":1044,"o":"m 184 77 l 184 863 l 65 905 l 65 948 l 324 948 l 881 136 l 844 86 l 844 871 l 717 905 l 717 948 l 1044 948 l 1044 905 l 927 871 l 927 -9 l 841 -9 l 243 853 l 267 870 l 267 77 l 394 42 l 394 0 l 67 0 l 67 42 l 184 77 m 483 -301 q 557 -271 538 -287 q 577 -230 577 -255 q 564 -200 577 -211 q 533 -180 551 -188 q 502 -165 515 -172 q 489 -148 489 -157 q 511 -91 489 -112 q 575 -69 534 -69 q 640 -94 614 -69 q 665 -173 665 -120 q 651 -246 665 -212 q 601 -307 638 -281 q 495 -349 565 -333 l 483 -301 z "},"Ň":{"ha":1099,"x_min":65,"x_max":1044,"o":"m 184 77 l 184 863 l 65 905 l 65 948 l 324 948 l 881 136 l 844 86 l 844 871 l 717 905 l 717 948 l 1044 948 l 1044 905 l 927 871 l 927 -9 l 841 -9 l 243 853 l 267 870 l 267 77 l 394 42 l 394 0 l 67 0 l 67 42 l 184 77 m 577 1117 l 553 1117 l 708 1227 l 780 1227 l 622 1041 l 508 1041 l 351 1227 l 423 1227 l 577 1117 z "},"Ŋ":{"ha":1099,"x_min":65,"x_max":1044,"o":"m 880 154 l 875 -56 l 243 853 l 267 870 l 267 77 l 394 42 l 394 0 l 67 0 l 67 42 l 184 77 l 184 863 l 65 905 l 65 948 l 328 948 l 880 154 m 927 -55 q 897 -224 927 -158 q 809 -322 866 -290 q 672 -353 751 -353 q 559 -329 596 -353 q 523 -269 523 -306 q 537 -224 523 -244 q 578 -204 551 -204 q 603 -213 590 -204 q 633 -234 617 -222 q 669 -255 650 -246 q 710 -264 688 -264 q 779 -246 749 -264 q 826 -184 809 -228 q 844 -59 844 -139 l 844 871 l 717 905 l 717 948 l 1044 948 l 1044 905 l 927 871 l 927 -55 z "},"Ò":{"ha":1098,"x_min":71,"x_max":1027,"o":"m 548 962 q 742 926 654 962 q 894 825 831 890 q 992 672 958 760 q 1027 475 1027 583 q 993 278 1027 367 q 895 123 958 189 q 744 22 831 58 q 550 -14 657 -14 q 356 22 444 -14 q 204 122 268 58 q 106 276 140 187 q 71 472 71 365 q 105 669 71 580 q 203 825 140 759 q 354 926 267 890 q 548 962 442 962 m 555 67 q 738 114 663 67 q 854 248 814 161 q 894 453 894 334 q 851 684 894 588 q 729 830 808 779 q 543 881 650 881 q 360 834 436 881 q 244 700 284 787 q 204 495 204 614 q 247 265 204 360 q 369 118 290 169 q 555 67 449 67 m 582 1041 l 526 1041 l 329 1209 l 329 1227 l 491 1227 l 582 1041 z "},"Ó":{"ha":1098,"x_min":71,"x_max":1027,"o":"m 548 962 q 742 926 654 962 q 894 825 831 890 q 992 672 958 760 q 1027 475 1027 583 q 993 278 1027 367 q 895 123 958 189 q 744 22 831 58 q 550 -14 657 -14 q 356 22 444 -14 q 204 122 268 58 q 106 276 140 187 q 71 472 71 365 q 105 669 71 580 q 203 825 140 759 q 354 926 267 890 q 548 962 442 962 m 555 67 q 738 114 663 67 q 854 248 814 161 q 894 453 894 334 q 851 684 894 588 q 729 830 808 779 q 543 881 650 881 q 360 834 436 881 q 244 700 284 787 q 204 495 204 614 q 247 265 204 360 q 369 118 290 169 q 555 67 449 67 m 515 1041 l 606 1227 l 768 1227 l 768 1209 l 571 1041 l 515 1041 z "},"Ô":{"ha":1098,"x_min":71,"x_max":1027,"o":"m 548 962 q 742 926 654 962 q 894 825 831 890 q 992 672 958 760 q 1027 475 1027 583 q 993 278 1027 367 q 895 123 958 189 q 744 22 831 58 q 550 -14 657 -14 q 356 22 444 -14 q 204 122 268 58 q 106 276 140 187 q 71 472 71 365 q 105 669 71 580 q 203 825 140 759 q 354 926 267 890 q 548 962 442 962 m 555 67 q 738 114 663 67 q 854 248 814 161 q 894 453 894 334 q 851 684 894 588 q 729 830 808 779 q 543 881 650 881 q 360 834 436 881 q 244 700 284 787 q 204 495 204 614 q 247 265 204 360 q 369 118 290 169 q 555 67 449 67 m 537 1151 l 560 1151 l 406 1041 l 334 1041 l 492 1227 l 606 1227 l 763 1041 l 691 1041 l 537 1151 z "},"Õ":{"ha":1098,"x_min":71,"x_max":1027,"o":"m 548 962 q 742 926 654 962 q 894 825 831 890 q 992 672 958 760 q 1027 475 1027 583 q 993 278 1027 367 q 895 123 958 189 q 744 22 831 58 q 550 -14 657 -14 q 356 22 444 -14 q 204 122 268 58 q 106 276 140 187 q 71 472 71 365 q 105 669 71 580 q 203 825 140 759 q 354 926 267 890 q 548 962 442 962 m 555 67 q 738 114 663 67 q 854 248 814 161 q 894 453 894 334 q 851 684 894 588 q 729 830 808 779 q 543 881 650 881 q 360 834 436 881 q 244 700 284 787 q 204 495 204 614 q 247 265 204 360 q 369 118 290 169 q 555 67 449 67 m 753 1224 q 725 1108 740 1148 q 689 1053 710 1068 q 633 1039 667 1039 q 582 1053 607 1039 q 534 1085 557 1067 q 492 1117 512 1103 q 456 1131 472 1131 q 435 1125 444 1131 q 418 1100 426 1119 q 401 1044 410 1081 l 342 1044 q 369 1160 355 1120 q 406 1215 384 1200 q 461 1229 428 1229 q 513 1215 488 1229 q 560 1183 538 1201 q 602 1151 583 1165 q 639 1137 622 1137 q 660 1143 651 1137 q 677 1168 669 1149 q 694 1224 685 1188 l 753 1224 z "},"Ö":{"ha":1098,"x_min":71,"x_max":1027,"o":"m 548 962 q 742 926 654 962 q 894 825 831 890 q 992 672 958 760 q 1027 475 1027 583 q 993 278 1027 367 q 895 123 958 189 q 744 22 831 58 q 550 -14 657 -14 q 356 22 444 -14 q 204 122 268 58 q 106 276 140 187 q 71 472 71 365 q 105 669 71 580 q 203 825 140 759 q 354 926 267 890 q 548 962 442 962 m 555 67 q 738 114 663 67 q 854 248 814 161 q 894 453 894 334 q 851 684 894 588 q 729 830 808 779 q 543 881 650 881 q 360 834 436 881 q 244 700 284 787 q 204 495 204 614 q 247 265 204 360 q 369 118 290 169 q 555 67 449 67 m 413 1057 q 353 1079 375 1057 q 332 1135 332 1101 q 353 1190 332 1169 q 413 1211 375 1211 q 472 1190 451 1211 q 494 1135 494 1169 q 472 1079 494 1101 q 413 1057 451 1057 m 685 1057 q 625 1079 647 1057 q 603 1135 603 1101 q 625 1190 603 1169 q 685 1211 647 1211 q 744 1190 722 1211 q 765 1135 765 1169 q 744 1079 765 1101 q 685 1057 722 1057 z "},"Ō":{"ha":1098,"x_min":71,"x_max":1027,"o":"m 548 962 q 742 926 654 962 q 894 825 831 890 q 992 672 958 760 q 1027 475 1027 583 q 993 278 1027 367 q 895 123 958 189 q 744 22 831 58 q 550 -14 657 -14 q 356 22 444 -14 q 204 122 268 58 q 106 276 140 187 q 71 472 71 365 q 105 669 71 580 q 203 825 140 759 q 354 926 267 890 q 548 962 442 962 m 555 67 q 738 114 663 67 q 854 248 814 161 q 894 453 894 334 q 851 684 894 588 q 729 830 808 779 q 543 881 650 881 q 360 834 436 881 q 244 700 284 787 q 204 495 204 614 q 247 265 204 360 q 369 118 290 169 q 555 67 449 67 m 361 1094 l 361 1174 l 736 1174 l 736 1094 l 361 1094 z "},"Ŏ":{"ha":1098,"x_min":71,"x_max":1027,"o":"m 548 962 q 742 926 654 962 q 894 825 831 890 q 992 672 958 760 q 1027 475 1027 583 q 993 278 1027 367 q 895 123 958 189 q 744 22 831 58 q 550 -14 657 -14 q 356 22 444 -14 q 204 122 268 58 q 106 276 140 187 q 71 472 71 365 q 105 669 71 580 q 203 825 140 759 q 354 926 267 890 q 548 962 442 962 m 555 67 q 738 114 663 67 q 854 248 814 161 q 894 453 894 334 q 851 684 894 588 q 729 830 808 779 q 543 881 650 881 q 360 834 436 881 q 244 700 284 787 q 204 495 204 614 q 247 265 204 360 q 369 118 290 169 q 555 67 449 67 m 549 1127 q 642 1150 606 1127 q 692 1227 677 1173 l 748 1227 q 708 1113 733 1154 q 645 1053 684 1071 q 549 1036 606 1036 q 452 1053 491 1036 q 389 1113 413 1071 q 349 1227 365 1154 l 406 1227 q 456 1150 420 1173 q 549 1127 492 1127 z "},"Ő":{"ha":1098,"x_min":71,"x_max":1027,"o":"m 548 962 q 742 926 654 962 q 894 825 831 890 q 992 672 958 760 q 1027 475 1027 583 q 993 278 1027 367 q 895 123 958 189 q 744 22 831 58 q 550 -14 657 -14 q 356 22 444 -14 q 204 122 268 58 q 106 276 140 187 q 71 472 71 365 q 105 669 71 580 q 203 825 140 759 q 354 926 267 890 q 548 962 442 962 m 555 67 q 738 114 663 67 q 854 248 814 161 q 894 453 894 334 q 851 684 894 588 q 729 830 808 779 q 543 881 650 881 q 360 834 436 881 q 244 700 284 787 q 204 495 204 614 q 247 265 204 360 q 369 118 290 169 q 555 67 449 67 m 610 1041 l 726 1227 l 890 1227 l 890 1210 l 668 1041 l 610 1041 m 427 1041 l 479 1227 l 630 1227 l 630 1212 l 478 1041 l 427 1041 z "},"Ơ":{"ha":1100,"x_min":71,"x_max":1027,"o":"m 555 67 q 738 114 663 67 q 854 248 814 161 q 894 453 894 334 q 851 684 894 588 q 729 830 808 779 q 543 881 650 881 q 360 834 436 881 q 244 700 284 787 q 204 495 204 614 q 247 265 204 360 q 369 118 290 169 q 555 67 449 67 m 548 962 q 629 957 591 962 q 704 948 667 953 q 781 943 742 943 q 867 959 842 943 q 892 1002 892 976 q 887 1034 892 1022 q 877 1057 882 1047 q 872 1077 872 1067 q 889 1111 872 1097 q 929 1124 906 1124 q 983 1103 963 1124 q 1004 1041 1004 1082 q 954 925 1004 967 q 797 888 904 884 l 797 899 q 921 795 869 859 q 1000 650 972 731 q 1027 475 1027 569 q 993 278 1027 367 q 895 123 958 189 q 744 22 831 58 q 550 -14 657 -14 q 356 22 444 -14 q 204 122 268 58 q 106 276 140 187 q 71 472 71 365 q 105 669 71 580 q 203 825 140 759 q 354 926 267 890 q 548 962 442 962 z "},"Ǫ":{"ha":1098,"x_min":71,"x_max":1027,"o":"m 548 962 q 742 926 654 962 q 894 825 831 890 q 992 672 958 760 q 1027 475 1027 583 q 993 278 1027 367 q 895 123 958 189 q 744 22 831 58 q 550 -14 657 -14 q 356 22 444 -14 q 204 122 268 58 q 106 276 140 187 q 71 472 71 365 q 105 669 71 580 q 203 825 140 759 q 354 926 267 890 q 548 962 442 962 m 555 67 q 738 114 663 67 q 854 248 814 161 q 894 453 894 334 q 851 684 894 588 q 729 830 808 779 q 543 881 650 881 q 360 834 436 881 q 244 700 284 787 q 204 495 204 614 q 247 265 204 360 q 369 118 290 169 q 555 67 449 67 m 569 -79 q 545 -132 554 -109 q 533 -175 537 -156 q 530 -210 530 -194 q 549 -262 530 -244 q 601 -281 569 -281 q 644 -271 622 -281 q 699 -232 666 -261 l 712 -261 q 661 -315 685 -294 q 612 -344 637 -335 q 558 -353 588 -353 q 472 -322 503 -353 q 440 -240 440 -292 q 445 -194 440 -217 q 465 -143 450 -172 q 507 -76 479 -115 l 582 32 l 626 32 l 569 -79 z "},"Ȍ":{"ha":1098,"x_min":71,"x_max":1027,"o":"m 548 962 q 742 926 654 962 q 894 825 831 890 q 992 672 958 760 q 1027 475 1027 583 q 993 278 1027 367 q 895 123 958 189 q 744 22 831 58 q 550 -14 657 -14 q 356 22 444 -14 q 204 122 268 58 q 106 276 140 187 q 71 472 71 365 q 105 669 71 580 q 203 825 140 759 q 354 926 267 890 q 548 962 442 962 m 555 67 q 738 114 663 67 q 854 248 814 161 q 894 453 894 334 q 851 684 894 588 q 729 830 808 779 q 543 881 650 881 q 360 834 436 881 q 244 700 284 787 q 204 495 204 614 q 247 265 204 360 q 369 118 290 169 q 555 67 449 67 m 488 1041 l 429 1041 l 208 1210 l 208 1227 l 372 1227 l 488 1041 m 670 1041 l 619 1041 l 467 1212 l 467 1227 l 618 1227 l 670 1041 z "},"Ȏ":{"ha":1098,"x_min":71,"x_max":1027,"o":"m 548 962 q 742 926 654 962 q 894 825 831 890 q 992 672 958 760 q 1027 475 1027 583 q 993 278 1027 367 q 895 123 958 189 q 744 22 831 58 q 550 -14 657 -14 q 356 22 444 -14 q 204 122 268 58 q 106 276 140 187 q 71 472 71 365 q 105 669 71 580 q 203 825 140 759 q 354 926 267 890 q 548 962 442 962 m 555 67 q 738 114 663 67 q 854 248 814 161 q 894 453 894 334 q 851 684 894 588 q 729 830 808 779 q 543 881 650 881 q 360 834 436 881 q 244 700 284 787 q 204 495 204 614 q 247 265 204 360 q 369 118 290 169 q 555 67 449 67 m 549 1141 q 456 1118 492 1141 q 406 1041 420 1095 l 349 1041 q 389 1156 365 1115 q 453 1215 414 1197 q 549 1232 492 1232 q 645 1215 606 1232 q 708 1156 683 1197 q 748 1041 733 1115 l 692 1041 q 642 1118 677 1095 q 549 1141 606 1141 z "},"Ȫ":{"ha":1098,"x_min":71,"x_max":1027,"o":"m 548 962 q 742 926 654 962 q 894 825 831 890 q 992 672 958 760 q 1027 475 1027 583 q 993 278 1027 367 q 895 123 958 189 q 744 22 831 58 q 550 -14 657 -14 q 356 22 444 -14 q 204 122 268 58 q 106 276 140 187 q 71 472 71 365 q 105 669 71 580 q 203 825 140 759 q 354 926 267 890 q 548 962 442 962 m 555 67 q 738 114 663 67 q 854 248 814 161 q 894 453 894 334 q 851 684 894 588 q 729 830 808 779 q 543 881 650 881 q 360 834 436 881 q 244 700 284 787 q 204 495 204 614 q 247 265 204 360 q 369 118 290 169 q 555 67 449 67 m 413 1057 q 353 1079 375 1057 q 332 1135 332 1101 q 353 1190 332 1169 q 413 1211 375 1211 q 472 1190 451 1211 q 494 1135 494 1169 q 472 1079 494 1101 q 413 1057 451 1057 m 685 1057 q 625 1079 647 1057 q 603 1135 603 1101 q 625 1190 603 1169 q 685 1211 647 1211 q 744 1190 722 1211 q 765 1135 765 1169 q 744 1079 765 1101 q 685 1057 722 1057 m 361 1338 l 361 1417 l 736 1417 l 736 1338 l 361 1338 z "},"Ȭ":{"ha":1098,"x_min":71,"x_max":1027,"o":"m 548 962 q 742 926 654 962 q 894 825 831 890 q 992 672 958 760 q 1027 475 1027 583 q 993 278 1027 367 q 895 123 958 189 q 744 22 831 58 q 550 -14 657 -14 q 356 22 444 -14 q 204 122 268 58 q 106 276 140 187 q 71 472 71 365 q 105 669 71 580 q 203 825 140 759 q 354 926 267 890 q 548 962 442 962 m 555 67 q 738 114 663 67 q 854 248 814 161 q 894 453 894 334 q 851 684 894 588 q 729 830 808 779 q 543 881 650 881 q 360 834 436 881 q 244 700 284 787 q 204 495 204 614 q 247 265 204 360 q 369 118 290 169 q 555 67 449 67 m 753 1224 q 725 1108 740 1148 q 689 1053 710 1068 q 633 1039 667 1039 q 582 1053 607 1039 q 534 1085 557 1067 q 492 1117 512 1103 q 456 1131 472 1131 q 435 1125 444 1131 q 418 1100 426 1119 q 401 1044 410 1081 l 342 1044 q 369 1160 355 1120 q 406 1215 384 1200 q 461 1229 428 1229 q 513 1215 488 1229 q 560 1183 538 1201 q 602 1151 583 1165 q 639 1137 622 1137 q 660 1143 651 1137 q 677 1168 669 1149 q 694 1224 685 1188 l 753 1224 m 361 1338 l 361 1417 l 736 1417 l 736 1338 l 361 1338 z "},"Ȱ":{"ha":1098,"x_min":71,"x_max":1027,"o":"m 548 962 q 742 926 654 962 q 894 825 831 890 q 992 672 958 760 q 1027 475 1027 583 q 993 278 1027 367 q 895 123 958 189 q 744 22 831 58 q 550 -14 657 -14 q 356 22 444 -14 q 204 122 268 58 q 106 276 140 187 q 71 472 71 365 q 105 669 71 580 q 203 825 140 759 q 354 926 267 890 q 548 962 442 962 m 555 67 q 738 114 663 67 q 854 248 814 161 q 894 453 894 334 q 851 684 894 588 q 729 830 808 779 q 543 881 650 881 q 360 834 436 881 q 244 700 284 787 q 204 495 204 614 q 247 265 204 360 q 369 118 290 169 q 555 67 449 67 m 549 1052 q 483 1075 507 1052 q 459 1135 459 1098 q 483 1194 459 1172 q 549 1216 507 1216 q 614 1194 590 1216 q 638 1135 638 1172 q 614 1075 638 1098 q 549 1052 590 1052 m 361 1338 l 361 1417 l 736 1417 l 736 1338 l 361 1338 z "},"Ọ":{"ha":1098,"x_min":71,"x_max":1027,"o":"m 548 962 q 742 926 654 962 q 894 825 831 890 q 992 672 958 760 q 1027 475 1027 583 q 993 278 1027 367 q 895 123 958 189 q 744 22 831 58 q 550 -14 657 -14 q 356 22 444 -14 q 204 122 268 58 q 106 276 140 187 q 71 472 71 365 q 105 669 71 580 q 203 825 140 759 q 354 926 267 890 q 548 962 442 962 m 555 67 q 738 114 663 67 q 854 248 814 161 q 894 453 894 334 q 851 684 894 588 q 729 830 808 779 q 543 881 650 881 q 360 834 436 881 q 244 700 284 787 q 204 495 204 614 q 247 265 204 360 q 369 118 290 169 q 555 67 449 67 m 549 -250 q 483 -227 507 -250 q 459 -168 459 -205 q 483 -109 459 -131 q 549 -87 507 -87 q 614 -109 590 -87 q 638 -168 638 -131 q 614 -227 638 -205 q 549 -250 590 -250 z "},"Ỏ":{"ha":1098,"x_min":71,"x_max":1027,"o":"m 548 962 q 742 926 654 962 q 894 825 831 890 q 992 672 958 760 q 1027 475 1027 583 q 993 278 1027 367 q 895 123 958 189 q 744 22 831 58 q 550 -14 657 -14 q 356 22 444 -14 q 204 122 268 58 q 106 276 140 187 q 71 472 71 365 q 105 669 71 580 q 203 825 140 759 q 354 926 267 890 q 548 962 442 962 m 555 67 q 738 114 663 67 q 854 248 814 161 q 894 453 894 334 q 851 684 894 588 q 729 830 808 779 q 543 881 650 881 q 360 834 436 881 q 244 700 284 787 q 204 495 204 614 q 247 265 204 360 q 369 118 290 169 q 555 67 449 67 m 435 1180 l 449 1274 q 563 1260 518 1270 q 633 1234 608 1249 q 667 1199 658 1219 q 677 1155 677 1178 q 664 1099 677 1124 q 611 1054 650 1074 q 499 1022 573 1035 l 490 1066 q 551 1083 531 1074 q 580 1101 572 1091 q 588 1126 588 1112 q 576 1152 588 1141 q 533 1169 565 1163 q 435 1180 500 1176 z "},"Ố":{"ha":1098,"x_min":71,"x_max":1027,"o":"m 548 962 q 742 926 654 962 q 894 825 831 890 q 992 672 958 760 q 1027 475 1027 583 q 993 278 1027 367 q 895 123 958 189 q 744 22 831 58 q 550 -14 657 -14 q 356 22 444 -14 q 204 122 268 58 q 106 276 140 187 q 71 472 71 365 q 105 669 71 580 q 203 825 140 759 q 354 926 267 890 q 548 962 442 962 m 555 67 q 738 114 663 67 q 854 248 814 161 q 894 453 894 334 q 851 684 894 588 q 729 830 808 779 q 543 881 650 881 q 360 834 436 881 q 244 700 284 787 q 204 495 204 614 q 247 265 204 360 q 369 118 290 169 q 555 67 449 67 m 724 1156 l 797 1317 l 956 1317 l 956 1302 l 778 1156 l 724 1156 m 537 1151 l 560 1151 l 406 1041 l 334 1041 l 492 1227 l 606 1227 l 763 1041 l 691 1041 l 537 1151 z "},"Ồ":{"ha":1098,"x_min":71,"x_max":1027,"o":"m 548 962 q 742 926 654 962 q 894 825 831 890 q 992 672 958 760 q 1027 475 1027 583 q 993 278 1027 367 q 895 123 958 189 q 744 22 831 58 q 550 -14 657 -14 q 356 22 444 -14 q 204 122 268 58 q 106 276 140 187 q 71 472 71 365 q 105 669 71 580 q 203 825 140 759 q 354 926 267 890 q 548 962 442 962 m 555 67 q 738 114 663 67 q 854 248 814 161 q 894 453 894 334 q 851 684 894 588 q 729 830 808 779 q 543 881 650 881 q 360 834 436 881 q 244 700 284 787 q 204 495 204 614 q 247 265 204 360 q 369 118 290 169 q 555 67 449 67 m 374 1156 l 319 1156 l 141 1302 l 141 1317 l 301 1317 l 374 1156 m 560 1151 l 406 1041 l 334 1041 l 492 1227 l 606 1227 l 763 1041 l 691 1041 l 537 1151 l 560 1151 z "},"Ổ":{"ha":1098,"x_min":71,"x_max":1027,"o":"m 548 962 q 742 926 654 962 q 894 825 831 890 q 992 672 958 760 q 1027 475 1027 583 q 993 278 1027 367 q 895 123 958 189 q 744 22 831 58 q 550 -14 657 -14 q 356 22 444 -14 q 204 122 268 58 q 106 276 140 187 q 71 472 71 365 q 105 669 71 580 q 203 825 140 759 q 354 926 267 890 q 548 962 442 962 m 555 67 q 738 114 663 67 q 854 248 814 161 q 894 453 894 334 q 851 684 894 588 q 729 830 808 779 q 543 881 650 881 q 360 834 436 881 q 244 700 284 787 q 204 495 204 614 q 247 265 204 360 q 369 118 290 169 q 555 67 449 67 m 560 1151 l 406 1041 l 334 1041 l 492 1227 l 606 1227 l 763 1041 l 691 1041 l 537 1151 l 560 1151 m 726 1192 q 795 1216 778 1202 q 811 1248 811 1229 q 801 1271 811 1261 q 760 1289 790 1281 q 669 1299 729 1296 l 682 1385 q 790 1373 748 1382 q 856 1349 832 1363 q 889 1315 879 1334 q 898 1274 898 1297 q 884 1220 898 1244 q 835 1178 871 1196 q 733 1151 800 1161 l 726 1192 z "},"Ỗ":{"ha":1098,"x_min":71,"x_max":1027,"o":"m 548 962 q 742 926 654 962 q 894 825 831 890 q 992 672 958 760 q 1027 475 1027 583 q 993 278 1027 367 q 895 123 958 189 q 744 22 831 58 q 550 -14 657 -14 q 356 22 444 -14 q 204 122 268 58 q 106 276 140 187 q 71 472 71 365 q 105 669 71 580 q 203 825 140 759 q 354 926 267 890 q 548 962 442 962 m 555 67 q 738 114 663 67 q 854 248 814 161 q 894 453 894 334 q 851 684 894 588 q 729 830 808 779 q 543 881 650 881 q 360 834 436 881 q 244 700 284 787 q 204 495 204 614 q 247 265 204 360 q 369 118 290 169 q 555 67 449 67 m 562 1096 l 414 1011 l 346 1011 l 487 1158 l 610 1158 l 751 1011 l 683 1011 l 535 1096 l 562 1096 m 414 1189 l 362 1189 q 392 1266 377 1238 q 429 1308 408 1295 q 481 1320 450 1320 q 518 1312 499 1320 q 557 1293 538 1303 q 593 1274 576 1283 q 626 1266 611 1266 q 661 1277 649 1266 q 683 1319 673 1288 l 735 1319 q 705 1241 721 1269 q 669 1200 690 1213 q 616 1188 648 1188 q 578 1195 597 1188 q 540 1214 558 1203 q 503 1233 521 1225 q 471 1241 486 1241 q 436 1231 449 1241 q 414 1189 424 1220 z "},"Ộ":{"ha":1098,"x_min":71,"x_max":1027,"o":"m 548 962 q 742 926 654 962 q 894 825 831 890 q 992 672 958 760 q 1027 475 1027 583 q 993 278 1027 367 q 895 123 958 189 q 744 22 831 58 q 550 -14 657 -14 q 356 22 444 -14 q 204 122 268 58 q 106 276 140 187 q 71 472 71 365 q 105 669 71 580 q 203 825 140 759 q 354 926 267 890 q 548 962 442 962 m 555 67 q 738 114 663 67 q 854 248 814 161 q 894 453 894 334 q 851 684 894 588 q 729 830 808 779 q 543 881 650 881 q 360 834 436 881 q 244 700 284 787 q 204 495 204 614 q 247 265 204 360 q 369 118 290 169 q 555 67 449 67 m 537 1151 l 560 1151 l 406 1041 l 334 1041 l 492 1227 l 606 1227 l 763 1041 l 691 1041 l 537 1151 m 549 -250 q 483 -227 507 -250 q 459 -168 459 -205 q 483 -109 459 -131 q 549 -87 507 -87 q 614 -109 590 -87 q 638 -168 638 -131 q 614 -227 638 -205 q 549 -250 590 -250 z "},"Ớ":{"ha":1100,"x_min":71,"x_max":1027,"o":"m 555 67 q 738 114 663 67 q 854 248 814 161 q 894 453 894 334 q 851 684 894 588 q 729 830 808 779 q 543 881 650 881 q 360 834 436 881 q 244 700 284 787 q 204 495 204 614 q 247 265 204 360 q 369 118 290 169 q 555 67 449 67 m 548 962 q 629 957 591 962 q 704 948 667 953 q 781 943 742 943 q 867 959 842 943 q 892 1002 892 976 q 887 1034 892 1022 q 877 1057 882 1047 q 872 1077 872 1067 q 889 1111 872 1097 q 929 1124 906 1124 q 983 1103 963 1124 q 1004 1041 1004 1082 q 954 925 1004 967 q 797 888 904 884 l 797 899 q 921 795 869 859 q 1000 650 972 731 q 1027 475 1027 569 q 993 278 1027 367 q 895 123 958 189 q 744 22 831 58 q 550 -14 657 -14 q 356 22 444 -14 q 204 122 268 58 q 106 276 140 187 q 71 472 71 365 q 105 669 71 580 q 203 825 140 759 q 354 926 267 890 q 548 962 442 962 m 515 1041 l 606 1227 l 768 1227 l 768 1209 l 571 1041 l 515 1041 z "},"Ờ":{"ha":1100,"x_min":71,"x_max":1027,"o":"m 555 67 q 738 114 663 67 q 854 248 814 161 q 894 453 894 334 q 851 684 894 588 q 729 830 808 779 q 543 881 650 881 q 360 834 436 881 q 244 700 284 787 q 204 495 204 614 q 247 265 204 360 q 369 118 290 169 q 555 67 449 67 m 548 962 q 629 957 591 962 q 704 948 667 953 q 781 943 742 943 q 867 959 842 943 q 892 1002 892 976 q 887 1034 892 1022 q 877 1057 882 1047 q 872 1077 872 1067 q 889 1111 872 1097 q 929 1124 906 1124 q 983 1103 963 1124 q 1004 1041 1004 1082 q 954 925 1004 967 q 797 888 904 884 l 797 899 q 921 795 869 859 q 1000 650 972 731 q 1027 475 1027 569 q 993 278 1027 367 q 895 123 958 189 q 744 22 831 58 q 550 -14 657 -14 q 356 22 444 -14 q 204 122 268 58 q 106 276 140 187 q 71 472 71 365 q 105 669 71 580 q 203 825 140 759 q 354 926 267 890 q 548 962 442 962 m 582 1041 l 526 1041 l 329 1209 l 329 1227 l 491 1227 l 582 1041 z "},"Ở":{"ha":1100,"x_min":71,"x_max":1027,"o":"m 555 67 q 738 114 663 67 q 854 248 814 161 q 894 453 894 334 q 851 684 894 588 q 729 830 808 779 q 543 881 650 881 q 360 834 436 881 q 244 700 284 787 q 204 495 204 614 q 247 265 204 360 q 369 118 290 169 q 555 67 449 67 m 548 962 q 629 957 591 962 q 704 948 667 953 q 781 943 742 943 q 867 959 842 943 q 892 1002 892 976 q 887 1034 892 1022 q 877 1057 882 1047 q 872 1077 872 1067 q 889 1111 872 1097 q 929 1124 906 1124 q 983 1103 963 1124 q 1004 1041 1004 1082 q 954 925 1004 967 q 797 888 904 884 l 797 899 q 921 795 869 859 q 1000 650 972 731 q 1027 475 1027 569 q 993 278 1027 367 q 895 123 958 189 q 744 22 831 58 q 550 -14 657 -14 q 356 22 444 -14 q 204 122 268 58 q 106 276 140 187 q 71 472 71 365 q 105 669 71 580 q 203 825 140 759 q 354 926 267 890 q 548 962 442 962 m 435 1180 l 449 1274 q 563 1260 518 1270 q 633 1234 608 1249 q 667 1199 658 1219 q 677 1155 677 1178 q 664 1099 677 1124 q 611 1054 650 1074 q 499 1022 573 1035 l 490 1066 q 551 1083 531 1074 q 580 1101 572 1091 q 588 1126 588 1112 q 576 1152 588 1141 q 533 1169 565 1163 q 435 1180 500 1176 z "},"Ỡ":{"ha":1100,"x_min":71,"x_max":1027,"o":"m 555 67 q 738 114 663 67 q 854 248 814 161 q 894 453 894 334 q 851 684 894 588 q 729 830 808 779 q 543 881 650 881 q 360 834 436 881 q 244 700 284 787 q 204 495 204 614 q 247 265 204 360 q 369 118 290 169 q 555 67 449 67 m 548 962 q 629 957 591 962 q 704 948 667 953 q 781 943 742 943 q 867 959 842 943 q 892 1002 892 976 q 887 1034 892 1022 q 877 1057 882 1047 q 872 1077 872 1067 q 889 1111 872 1097 q 929 1124 906 1124 q 983 1103 963 1124 q 1004 1041 1004 1082 q 954 925 1004 967 q 797 888 904 884 l 797 899 q 921 795 869 859 q 1000 650 972 731 q 1027 475 1027 569 q 993 278 1027 367 q 895 123 958 189 q 744 22 831 58 q 550 -14 657 -14 q 356 22 444 -14 q 204 122 268 58 q 106 276 140 187 q 71 472 71 365 q 105 669 71 580 q 203 825 140 759 q 354 926 267 890 q 548 962 442 962 m 753 1224 q 725 1108 740 1148 q 689 1053 710 1068 q 633 1039 667 1039 q 582 1053 607 1039 q 534 1085 557 1067 q 492 1117 512 1103 q 456 1131 472 1131 q 435 1125 444 1131 q 418 1100 426 1119 q 401 1044 410 1081 l 342 1044 q 369 1160 355 1120 q 406 1215 384 1200 q 461 1229 428 1229 q 513 1215 488 1229 q 560 1183 538 1201 q 602 1151 583 1165 q 639 1137 622 1137 q 660 1143 651 1137 q 677 1168 669 1149 q 694 1224 685 1188 l 753 1224 z "},"Ợ":{"ha":1100,"x_min":71,"x_max":1027,"o":"m 555 67 q 738 114 663 67 q 854 248 814 161 q 894 453 894 334 q 851 684 894 588 q 729 830 808 779 q 543 881 650 881 q 360 834 436 881 q 244 700 284 787 q 204 495 204 614 q 247 265 204 360 q 369 118 290 169 q 555 67 449 67 m 548 962 q 629 957 591 962 q 704 948 667 953 q 781 943 742 943 q 867 959 842 943 q 892 1002 892 976 q 887 1034 892 1022 q 877 1057 882 1047 q 872 1077 872 1067 q 889 1111 872 1097 q 929 1124 906 1124 q 983 1103 963 1124 q 1004 1041 1004 1082 q 954 925 1004 967 q 797 888 904 884 l 797 899 q 921 795 869 859 q 1000 650 972 731 q 1027 475 1027 569 q 993 278 1027 367 q 895 123 958 189 q 744 22 831 58 q 550 -14 657 -14 q 356 22 444 -14 q 204 122 268 58 q 106 276 140 187 q 71 472 71 365 q 105 669 71 580 q 203 825 140 759 q 354 926 267 890 q 548 962 442 962 m 549 -250 q 483 -227 507 -250 q 459 -168 459 -205 q 483 -109 459 -131 q 549 -87 507 -87 q 614 -109 590 -87 q 638 -168 638 -131 q 614 -227 638 -205 q 549 -250 590 -250 z "},"Ø":{"ha":1120,"x_min":82,"x_max":1038,"o":"m 266 196 l 815 813 l 840 842 l 935 948 l 1038 948 l 893 786 l 858 752 l 309 135 l 285 106 l 190 0 l 86 0 l 231 162 l 266 196 m 559 962 q 753 926 665 962 q 905 825 842 890 q 1003 672 969 760 q 1038 475 1038 583 q 1004 278 1038 367 q 906 123 969 189 q 755 22 842 58 q 561 -14 668 -14 q 367 22 455 -14 q 215 122 279 58 q 117 276 151 187 q 82 472 82 365 q 116 669 82 580 q 214 825 151 759 q 365 926 278 890 q 559 962 453 962 m 566 67 q 749 114 674 67 q 865 248 825 161 q 906 453 906 334 q 862 684 906 588 q 740 830 819 779 q 554 881 661 881 q 371 834 447 881 q 255 700 295 787 q 215 495 215 614 q 258 265 215 360 q 381 118 301 169 q 566 67 460 67 z "},"Ǿ":{"ha":1120,"x_min":82,"x_max":1038,"o":"m 266 196 l 815 813 l 840 842 l 935 948 l 1038 948 l 893 786 l 858 752 l 309 135 l 285 106 l 190 0 l 86 0 l 231 162 l 266 196 m 559 962 q 753 926 665 962 q 905 825 842 890 q 1003 672 969 760 q 1038 475 1038 583 q 1004 278 1038 367 q 906 123 969 189 q 755 22 842 58 q 561 -14 668 -14 q 367 22 455 -14 q 215 122 279 58 q 117 276 151 187 q 82 472 82 365 q 116 669 82 580 q 214 825 151 759 q 365 926 278 890 q 559 962 453 962 m 566 67 q 749 114 674 67 q 865 248 825 161 q 906 453 906 334 q 862 684 906 588 q 740 830 819 779 q 554 881 661 881 q 371 834 447 881 q 255 700 295 787 q 215 495 215 614 q 258 265 215 360 q 381 118 301 169 q 566 67 460 67 m 526 1041 l 617 1227 l 779 1227 l 779 1209 l 582 1041 l 526 1041 z "},"Œ":{"ha":1494,"x_min":72,"x_max":1440,"o":"m 1226 676 l 1226 496 l 1226 315 l 1162 315 l 1148 456 l 809 456 l 809 536 l 1148 536 l 1162 676 l 1226 676 m 760 948 l 884 948 l 884 0 l 760 0 l 760 948 m 612 0 q 315 52 435 0 q 134 205 195 103 q 72 456 72 307 q 113 667 72 576 q 227 822 154 759 q 399 916 301 884 q 613 948 498 948 l 1281 948 l 1351 987 l 1384 987 l 1414 687 l 1360 683 l 1265 897 l 1308 868 l 628 868 q 406 826 501 868 q 258 693 311 783 q 205 460 205 603 q 258 246 205 330 q 411 121 312 162 q 650 80 511 80 l 1307 80 l 1271 48 l 1390 276 l 1440 272 l 1388 -44 l 1351 -44 l 1289 0 l 612 0 z "},"Ŕ":{"ha":931,"x_min":65,"x_max":917,"o":"m 477 517 q 620 561 565 517 q 675 693 675 605 q 651 789 675 750 q 568 848 626 828 q 410 868 510 868 l 220 868 l 222 948 l 477 948 q 668 917 596 948 q 772 832 740 885 q 805 710 805 778 q 780 599 805 647 q 703 518 754 550 q 577 474 653 486 l 577 479 q 657 460 626 476 q 708 413 688 444 q 744 331 728 382 l 801 151 q 829 85 815 106 q 864 58 843 64 q 917 53 884 53 l 917 0 q 808 -2 849 -4 q 742 14 767 1 q 704 53 718 26 q 676 124 690 79 l 623 295 q 590 382 606 351 q 548 425 574 413 q 475 438 522 438 l 222 438 l 220 517 l 477 517 m 308 948 l 308 77 l 426 42 l 426 0 l 65 0 l 65 42 l 183 77 l 183 871 l 65 905 l 65 948 l 308 948 m 427 1041 l 518 1227 l 680 1227 l 680 1209 l 483 1041 l 427 1041 z "},"Ŗ":{"ha":931,"x_min":65,"x_max":917,"o":"m 477 517 q 620 561 565 517 q 675 693 675 605 q 651 789 675 750 q 568 848 626 828 q 410 868 510 868 l 220 868 l 222 948 l 477 948 q 668 917 596 948 q 772 832 740 885 q 805 710 805 778 q 780 599 805 647 q 703 518 754 550 q 577 474 653 486 l 577 479 q 657 460 626 476 q 708 413 688 444 q 744 331 728 382 l 801 151 q 829 85 815 106 q 864 58 843 64 q 917 53 884 53 l 917 0 q 808 -2 849 -4 q 742 14 767 1 q 704 53 718 26 q 676 124 690 79 l 623 295 q 590 382 606 351 q 548 425 574 413 q 475 438 522 438 l 222 438 l 220 517 l 477 517 m 308 948 l 308 77 l 426 42 l 426 0 l 65 0 l 65 42 l 183 77 l 183 871 l 65 905 l 65 948 l 308 948 m 433 -301 q 508 -271 488 -287 q 528 -230 528 -255 q 515 -200 528 -211 q 484 -180 501 -188 q 453 -165 466 -172 q 440 -148 440 -157 q 462 -91 440 -112 q 526 -69 485 -69 q 590 -94 565 -69 q 616 -173 616 -120 q 602 -246 616 -212 q 552 -307 588 -281 q 446 -349 515 -333 l 433 -301 z "},"Ř":{"ha":931,"x_min":65,"x_max":917,"o":"m 477 517 q 620 561 565 517 q 675 693 675 605 q 651 789 675 750 q 568 848 626 828 q 410 868 510 868 l 220 868 l 222 948 l 477 948 q 668 917 596 948 q 772 832 740 885 q 805 710 805 778 q 780 599 805 647 q 703 518 754 550 q 577 474 653 486 l 577 479 q 657 460 626 476 q 708 413 688 444 q 744 331 728 382 l 801 151 q 829 85 815 106 q 864 58 843 64 q 917 53 884 53 l 917 0 q 808 -2 849 -4 q 742 14 767 1 q 704 53 718 26 q 676 124 690 79 l 623 295 q 590 382 606 351 q 548 425 574 413 q 475 438 522 438 l 222 438 l 220 517 l 477 517 m 308 948 l 308 77 l 426 42 l 426 0 l 65 0 l 65 42 l 183 77 l 183 871 l 65 905 l 65 948 l 308 948 m 472 1117 l 449 1117 l 603 1227 l 675 1227 l 517 1041 l 403 1041 l 246 1227 l 318 1227 l 472 1117 z "},"Ȑ":{"ha":931,"x_min":65,"x_max":917,"o":"m 477 517 q 620 561 565 517 q 675 693 675 605 q 651 789 675 750 q 568 848 626 828 q 410 868 510 868 l 220 868 l 222 948 l 477 948 q 668 917 596 948 q 772 832 740 885 q 805 710 805 778 q 780 599 805 647 q 703 518 754 550 q 577 474 653 486 l 577 479 q 657 460 626 476 q 708 413 688 444 q 744 331 728 382 l 801 151 q 829 85 815 106 q 864 58 843 64 q 917 53 884 53 l 917 0 q 808 -2 849 -4 q 742 14 767 1 q 704 53 718 26 q 676 124 690 79 l 623 295 q 590 382 606 351 q 548 425 574 413 q 475 438 522 438 l 222 438 l 220 517 l 477 517 m 308 948 l 308 77 l 426 42 l 426 0 l 65 0 l 65 42 l 183 77 l 183 871 l 65 905 l 65 948 l 308 948 m 399 1041 l 341 1041 l 119 1210 l 119 1227 l 283 1227 l 399 1041 m 582 1041 l 531 1041 l 379 1212 l 379 1227 l 530 1227 l 582 1041 z "},"Ȓ":{"ha":931,"x_min":65,"x_max":917,"o":"m 477 517 q 620 561 565 517 q 675 693 675 605 q 651 789 675 750 q 568 848 626 828 q 410 868 510 868 l 220 868 l 222 948 l 477 948 q 668 917 596 948 q 772 832 740 885 q 805 710 805 778 q 780 599 805 647 q 703 518 754 550 q 577 474 653 486 l 577 479 q 657 460 626 476 q 708 413 688 444 q 744 331 728 382 l 801 151 q 829 85 815 106 q 864 58 843 64 q 917 53 884 53 l 917 0 q 808 -2 849 -4 q 742 14 767 1 q 704 53 718 26 q 676 124 690 79 l 623 295 q 590 382 606 351 q 548 425 574 413 q 475 438 522 438 l 222 438 l 220 517 l 477 517 m 308 948 l 308 77 l 426 42 l 426 0 l 65 0 l 65 42 l 183 77 l 183 871 l 65 905 l 65 948 l 308 948 m 460 1141 q 368 1118 403 1141 q 317 1041 332 1095 l 261 1041 q 301 1156 276 1115 q 365 1215 326 1197 q 460 1232 403 1232 q 557 1215 518 1232 q 620 1156 595 1197 q 660 1041 644 1115 l 603 1041 q 553 1118 589 1095 q 460 1141 518 1141 z "},"Ś":{"ha":799,"x_min":66,"x_max":724,"o":"m 653 903 l 553 926 l 629 991 l 665 991 l 694 671 l 637 667 l 538 878 l 569 841 q 490 879 530 868 q 401 890 449 890 q 255 851 308 890 q 202 738 202 812 q 222 661 202 692 q 275 609 241 630 q 353 574 309 589 q 445 544 397 559 q 543 512 494 530 q 633 465 592 494 q 699 388 674 435 q 724 269 724 341 q 679 111 724 174 q 554 17 634 49 q 366 -14 474 -14 q 237 -5 294 -14 q 120 26 180 3 l 66 281 l 129 281 l 277 29 l 151 116 q 254 74 208 87 q 358 61 301 61 q 496 80 440 61 q 581 138 552 98 q 610 238 610 177 q 586 325 610 291 q 523 381 563 360 q 435 418 483 403 q 338 449 387 433 q 247 484 290 465 q 169 532 203 503 q 115 603 135 560 q 96 707 96 645 q 134 844 96 788 q 244 932 172 901 q 417 962 317 962 q 539 948 483 962 q 653 903 596 934 m 359 1041 l 450 1227 l 612 1227 l 612 1209 l 415 1041 l 359 1041 z "},"Ŝ":{"ha":799,"x_min":66,"x_max":724,"o":"m 653 903 l 553 926 l 629 991 l 665 991 l 694 671 l 637 667 l 538 878 l 569 841 q 490 879 530 868 q 401 890 449 890 q 255 851 308 890 q 202 738 202 812 q 222 661 202 692 q 275 609 241 630 q 353 574 309 589 q 445 544 397 559 q 543 512 494 530 q 633 465 592 494 q 699 388 674 435 q 724 269 724 341 q 679 111 724 174 q 554 17 634 49 q 366 -14 474 -14 q 237 -5 294 -14 q 120 26 180 3 l 66 281 l 129 281 l 277 29 l 151 116 q 254 74 208 87 q 358 61 301 61 q 496 80 440 61 q 581 138 552 98 q 610 238 610 177 q 586 325 610 291 q 523 381 563 360 q 435 418 483 403 q 338 449 387 433 q 247 484 290 465 q 169 532 203 503 q 115 603 135 560 q 96 707 96 645 q 134 844 96 788 q 244 932 172 901 q 417 962 317 962 q 539 948 483 962 q 653 903 596 934 m 381 1151 l 404 1151 l 250 1041 l 178 1041 l 335 1227 l 449 1227 l 607 1041 l 535 1041 l 381 1151 z "},"Ş":{"ha":799,"x_min":66,"x_max":724,"o":"m 653 903 l 553 926 l 629 991 l 665 991 l 694 671 l 637 667 l 538 878 l 569 841 q 490 879 530 868 q 401 890 449 890 q 255 851 308 890 q 202 738 202 812 q 222 661 202 692 q 275 609 241 630 q 353 574 309 589 q 445 544 397 559 q 543 512 494 530 q 633 465 592 494 q 699 388 674 435 q 724 269 724 341 q 679 111 724 174 q 554 17 634 49 q 366 -14 474 -14 q 237 -5 294 -14 q 120 26 180 3 l 66 281 l 129 281 l 277 29 l 151 116 q 254 74 208 87 q 358 61 301 61 q 496 80 440 61 q 581 138 552 98 q 610 238 610 177 q 586 325 610 291 q 523 381 563 360 q 435 418 483 403 q 338 449 387 433 q 247 484 290 465 q 169 532 203 503 q 115 603 135 560 q 96 707 96 645 q 134 844 96 788 q 244 932 172 901 q 417 962 317 962 q 539 948 483 962 q 653 903 596 934 m 338 -353 q 259 -336 282 -353 q 237 -294 237 -319 q 249 -267 237 -277 q 275 -256 260 -256 q 303 -267 290 -256 q 330 -290 315 -278 q 367 -301 344 -301 q 421 -285 401 -301 q 440 -239 440 -268 q 426 -201 440 -217 q 378 -174 413 -185 q 282 -155 344 -163 l 282 -142 l 413 28 l 474 28 l 347 -142 l 343 -81 q 449 -111 411 -92 q 501 -155 486 -131 q 516 -209 516 -180 q 491 -286 516 -253 q 426 -335 467 -318 q 338 -353 386 -353 z "},"Š":{"ha":799,"x_min":66,"x_max":724,"o":"m 653 903 l 553 926 l 629 991 l 665 991 l 694 671 l 637 667 l 538 878 l 569 841 q 490 879 530 868 q 401 890 449 890 q 255 851 308 890 q 202 738 202 812 q 222 661 202 692 q 275 609 241 630 q 353 574 309 589 q 445 544 397 559 q 543 512 494 530 q 633 465 592 494 q 699 388 674 435 q 724 269 724 341 q 679 111 724 174 q 554 17 634 49 q 366 -14 474 -14 q 237 -5 294 -14 q 120 26 180 3 l 66 281 l 129 281 l 277 29 l 151 116 q 254 74 208 87 q 358 61 301 61 q 496 80 440 61 q 581 138 552 98 q 610 238 610 177 q 586 325 610 291 q 523 381 563 360 q 435 418 483 403 q 338 449 387 433 q 247 484 290 465 q 169 532 203 503 q 115 603 135 560 q 96 707 96 645 q 134 844 96 788 q 244 932 172 901 q 417 962 317 962 q 539 948 483 962 q 653 903 596 934 m 404 1117 l 381 1117 l 535 1227 l 607 1227 l 449 1041 l 335 1041 l 178 1227 l 250 1227 l 404 1117 z "},"Ș":{"ha":799,"x_min":66,"x_max":724,"o":"m 653 903 l 553 926 l 629 991 l 665 991 l 694 671 l 637 667 l 538 878 l 569 841 q 490 879 530 868 q 401 890 449 890 q 255 851 308 890 q 202 738 202 812 q 222 661 202 692 q 275 609 241 630 q 353 574 309 589 q 445 544 397 559 q 543 512 494 530 q 633 465 592 494 q 699 388 674 435 q 724 269 724 341 q 679 111 724 174 q 554 17 634 49 q 366 -14 474 -14 q 237 -5 294 -14 q 120 26 180 3 l 66 281 l 129 281 l 277 29 l 151 116 q 254 74 208 87 q 358 61 301 61 q 496 80 440 61 q 581 138 552 98 q 610 238 610 177 q 586 325 610 291 q 523 381 563 360 q 435 418 483 403 q 338 449 387 433 q 247 484 290 465 q 169 532 203 503 q 115 603 135 560 q 96 707 96 645 q 134 844 96 788 q 244 932 172 901 q 417 962 317 962 q 539 948 483 962 q 653 903 596 934 m 315 -301 q 389 -271 369 -287 q 409 -230 409 -255 q 396 -200 409 -211 q 365 -180 383 -188 q 334 -165 347 -172 q 321 -148 321 -157 q 343 -91 321 -112 q 407 -69 366 -69 q 472 -94 446 -69 q 497 -173 497 -120 q 483 -246 497 -212 q 433 -307 469 -281 q 327 -349 397 -333 l 315 -301 z "},"ẞ":{"ha":1585,"x_min":66,"x_max":1510,"o":"m 653 903 l 553 926 l 629 991 l 665 991 l 694 671 l 637 667 l 538 878 l 569 841 q 490 879 530 868 q 401 890 449 890 q 255 851 308 890 q 202 738 202 812 q 222 661 202 692 q 275 609 241 630 q 353 574 309 589 q 445 544 397 559 q 543 512 494 530 q 633 465 592 494 q 699 388 674 435 q 724 269 724 341 q 679 111 724 174 q 554 17 634 49 q 366 -14 474 -14 q 237 -5 294 -14 q 120 26 180 3 l 66 281 l 129 281 l 277 29 l 151 116 q 254 74 208 87 q 358 61 301 61 q 496 80 440 61 q 581 138 552 98 q 610 238 610 177 q 586 325 610 291 q 523 381 563 360 q 435 418 483 403 q 338 449 387 433 q 247 484 290 465 q 169 532 203 503 q 115 603 135 560 q 96 707 96 645 q 134 844 96 788 q 244 932 172 901 q 417 962 317 962 q 539 948 483 962 q 653 903 596 934 m 1440 903 l 1340 926 l 1416 991 l 1452 991 l 1481 671 l 1424 667 l 1325 878 l 1356 841 q 1276 879 1317 868 q 1188 890 1236 890 q 1042 851 1094 890 q 989 738 989 812 q 1008 661 989 692 q 1062 609 1028 630 q 1140 574 1096 589 q 1232 544 1183 559 q 1330 512 1281 530 q 1419 465 1378 494 q 1485 388 1460 435 q 1510 269 1510 341 q 1466 111 1510 174 q 1341 17 1421 49 q 1153 -14 1260 -14 q 1024 -5 1081 -14 q 907 26 967 3 l 853 281 l 916 281 l 1064 29 l 938 116 q 1041 74 994 87 q 1145 61 1088 61 q 1283 80 1226 61 q 1368 138 1339 98 q 1397 238 1397 177 q 1373 325 1397 291 q 1309 381 1349 360 q 1222 418 1269 403 q 1125 449 1174 433 q 1033 484 1077 465 q 956 532 990 503 q 902 603 922 560 q 883 707 883 645 q 921 844 883 788 q 1031 932 959 901 q 1203 962 1103 962 q 1326 948 1269 962 q 1440 903 1383 934 z "},"Ţ":{"ha":960,"x_min":34,"x_max":926,"o":"m 417 905 l 542 905 l 542 77 l 665 42 l 665 0 l 294 0 l 294 42 l 417 77 l 417 905 m 834 868 l 126 868 l 181 885 l 90 673 l 34 677 l 70 1000 l 105 1000 l 188 935 l 119 948 l 841 948 l 772 935 l 855 1000 l 890 1000 l 926 677 l 869 673 l 778 885 l 834 868 m 415 -353 q 338 -336 360 -353 q 315 -294 315 -319 q 327 -267 315 -277 q 353 -256 338 -256 q 381 -267 369 -256 q 408 -290 393 -278 q 446 -301 423 -301 q 499 -285 480 -301 q 518 -239 518 -268 q 504 -201 518 -217 q 456 -174 490 -185 q 360 -155 422 -163 l 360 -142 l 491 28 l 551 28 l 424 -142 l 421 -81 q 526 -111 489 -92 q 579 -155 564 -131 q 594 -209 594 -180 q 569 -286 594 -253 q 505 -335 545 -318 q 415 -353 464 -353 z "},"Ť":{"ha":960,"x_min":34,"x_max":926,"o":"m 417 905 l 542 905 l 542 77 l 665 42 l 665 0 l 294 0 l 294 42 l 417 77 l 417 905 m 834 868 l 126 868 l 181 885 l 90 673 l 34 677 l 70 1000 l 105 1000 l 188 935 l 119 948 l 841 948 l 772 935 l 855 1000 l 890 1000 l 926 677 l 869 673 l 778 885 l 834 868 m 492 1117 l 468 1117 l 622 1227 l 694 1227 l 537 1041 l 423 1041 l 265 1227 l 338 1227 l 492 1117 z "},"Ŧ":{"ha":962,"x_min":35,"x_max":926,"o":"m 217 451 l 217 525 l 744 525 l 744 451 l 217 451 m 419 905 l 543 905 l 543 77 l 666 42 l 666 0 l 295 0 l 295 42 l 419 77 l 419 905 m 835 868 l 126 868 l 182 885 l 91 673 l 35 677 l 72 1000 l 106 1000 l 190 935 l 120 948 l 842 948 l 772 935 l 856 1000 l 890 1000 l 926 677 l 871 673 l 779 885 l 835 868 z "},"Ț":{"ha":960,"x_min":34,"x_max":926,"o":"m 417 905 l 542 905 l 542 77 l 665 42 l 665 0 l 294 0 l 294 42 l 417 77 l 417 905 m 834 868 l 126 868 l 181 885 l 90 673 l 34 677 l 70 1000 l 105 1000 l 188 935 l 119 948 l 841 948 l 772 935 l 855 1000 l 890 1000 l 926 677 l 869 673 l 778 885 l 834 868 m 392 -301 q 467 -271 447 -287 q 487 -230 487 -255 q 474 -200 487 -211 q 443 -180 460 -188 q 412 -165 425 -172 q 399 -148 399 -157 q 421 -91 399 -112 q 485 -69 444 -69 q 549 -94 524 -69 q 575 -173 575 -120 q 561 -246 575 -212 q 511 -307 547 -281 q 405 -349 474 -333 l 392 -301 z "},"Ù":{"ha":1092,"x_min":42,"x_max":1049,"o":"m 847 342 l 847 871 l 728 905 l 728 948 l 1049 948 l 1049 905 l 931 871 l 931 354 q 886 154 931 236 q 758 29 842 72 q 555 -14 674 -14 q 339 29 426 -14 q 205 158 251 72 q 160 372 160 244 l 160 871 l 42 905 l 42 948 l 403 948 l 403 905 l 285 871 l 285 368 q 316 208 285 272 q 410 114 347 144 q 568 83 474 83 q 721 113 659 83 q 815 199 783 142 q 847 342 847 257 m 599 1041 l 543 1041 l 346 1209 l 346 1227 l 508 1227 l 599 1041 z "},"Ú":{"ha":1092,"x_min":42,"x_max":1049,"o":"m 847 342 l 847 871 l 728 905 l 728 948 l 1049 948 l 1049 905 l 931 871 l 931 354 q 886 154 931 236 q 758 29 842 72 q 555 -14 674 -14 q 339 29 426 -14 q 205 158 251 72 q 160 372 160 244 l 160 871 l 42 905 l 42 948 l 403 948 l 403 905 l 285 871 l 285 368 q 316 208 285 272 q 410 114 347 144 q 568 83 474 83 q 721 113 659 83 q 815 199 783 142 q 847 342 847 257 m 532 1041 l 623 1227 l 785 1227 l 785 1209 l 588 1041 l 532 1041 z "},"Û":{"ha":1092,"x_min":42,"x_max":1049,"o":"m 847 342 l 847 871 l 728 905 l 728 948 l 1049 948 l 1049 905 l 931 871 l 931 354 q 886 154 931 236 q 758 29 842 72 q 555 -14 674 -14 q 339 29 426 -14 q 205 158 251 72 q 160 372 160 244 l 160 871 l 42 905 l 42 948 l 403 948 l 403 905 l 285 871 l 285 368 q 316 208 285 272 q 410 114 347 144 q 568 83 474 83 q 721 113 659 83 q 815 199 783 142 q 847 342 847 257 m 553 1151 l 577 1151 l 423 1041 l 351 1041 l 508 1227 l 622 1227 l 780 1041 l 708 1041 l 553 1151 z "},"Ü":{"ha":1092,"x_min":42,"x_max":1049,"o":"m 847 342 l 847 871 l 728 905 l 728 948 l 1049 948 l 1049 905 l 931 871 l 931 354 q 886 154 931 236 q 758 29 842 72 q 555 -14 674 -14 q 339 29 426 -14 q 205 158 251 72 q 160 372 160 244 l 160 871 l 42 905 l 42 948 l 403 948 l 403 905 l 285 871 l 285 368 q 316 208 285 272 q 410 114 347 144 q 568 83 474 83 q 721 113 659 83 q 815 199 783 142 q 847 342 847 257 m 429 1057 q 370 1079 392 1057 q 349 1135 349 1101 q 370 1190 349 1169 q 429 1211 392 1211 q 489 1190 467 1211 q 510 1135 510 1169 q 489 1079 510 1101 q 429 1057 467 1057 m 701 1057 q 642 1079 664 1057 q 620 1135 620 1101 q 642 1190 620 1169 q 701 1211 664 1211 q 760 1190 739 1211 q 782 1135 782 1169 q 760 1079 782 1101 q 701 1057 739 1057 z "},"Ũ":{"ha":1092,"x_min":42,"x_max":1049,"o":"m 847 342 l 847 871 l 728 905 l 728 948 l 1049 948 l 1049 905 l 931 871 l 931 354 q 886 154 931 236 q 758 29 842 72 q 555 -14 674 -14 q 339 29 426 -14 q 205 158 251 72 q 160 372 160 244 l 160 871 l 42 905 l 42 948 l 403 948 l 403 905 l 285 871 l 285 368 q 316 208 285 272 q 410 114 347 144 q 568 83 474 83 q 721 113 659 83 q 815 199 783 142 q 847 342 847 257 m 769 1224 q 742 1108 757 1148 q 706 1053 727 1068 q 650 1039 684 1039 q 599 1053 624 1039 q 551 1085 574 1067 q 509 1117 528 1103 q 472 1131 489 1131 q 451 1125 460 1131 q 434 1100 442 1119 q 417 1044 426 1081 l 358 1044 q 386 1160 372 1120 q 423 1215 401 1200 q 478 1229 444 1229 q 529 1215 504 1229 q 577 1183 554 1201 q 619 1151 599 1165 q 656 1137 639 1137 q 676 1143 667 1137 q 694 1168 685 1149 q 710 1224 702 1188 l 769 1224 z "},"Ū":{"ha":1092,"x_min":42,"x_max":1049,"o":"m 847 342 l 847 871 l 728 905 l 728 948 l 1049 948 l 1049 905 l 931 871 l 931 354 q 886 154 931 236 q 758 29 842 72 q 555 -14 674 -14 q 339 29 426 -14 q 205 158 251 72 q 160 372 160 244 l 160 871 l 42 905 l 42 948 l 403 948 l 403 905 l 285 871 l 285 368 q 316 208 285 272 q 410 114 347 144 q 568 83 474 83 q 721 113 659 83 q 815 199 783 142 q 847 342 847 257 m 378 1094 l 378 1174 l 753 1174 l 753 1094 l 378 1094 z "},"Ŭ":{"ha":1092,"x_min":42,"x_max":1049,"o":"m 847 342 l 847 871 l 728 905 l 728 948 l 1049 948 l 1049 905 l 931 871 l 931 354 q 886 154 931 236 q 758 29 842 72 q 555 -14 674 -14 q 339 29 426 -14 q 205 158 251 72 q 160 372 160 244 l 160 871 l 42 905 l 42 948 l 403 948 l 403 905 l 285 871 l 285 368 q 316 208 285 272 q 410 114 347 144 q 568 83 474 83 q 721 113 659 83 q 815 199 783 142 q 847 342 847 257 m 565 1127 q 658 1150 623 1127 q 708 1227 694 1173 l 765 1227 q 725 1113 749 1154 q 662 1053 701 1071 q 565 1036 623 1036 q 469 1053 508 1036 q 406 1113 430 1071 q 366 1227 381 1154 l 422 1227 q 473 1150 437 1173 q 565 1127 508 1127 z "},"Ů":{"ha":1092,"x_min":42,"x_max":1049,"o":"m 847 342 l 847 871 l 728 905 l 728 948 l 1049 948 l 1049 905 l 931 871 l 931 354 q 886 154 931 236 q 758 29 842 72 q 555 -14 674 -14 q 339 29 426 -14 q 205 158 251 72 q 160 372 160 244 l 160 871 l 42 905 l 42 948 l 403 948 l 403 905 l 285 871 l 285 368 q 316 208 285 272 q 410 114 347 144 q 568 83 474 83 q 721 113 659 83 q 815 199 783 142 q 847 342 847 257 m 565 1258 q 656 1224 621 1258 q 690 1135 690 1190 q 656 1045 690 1080 q 565 1011 621 1011 q 475 1045 510 1011 q 440 1135 440 1080 q 475 1224 440 1190 q 565 1258 510 1258 m 565 1055 q 622 1077 601 1055 q 644 1135 644 1099 q 622 1193 644 1171 q 565 1215 601 1215 q 508 1193 529 1215 q 486 1135 486 1171 q 508 1077 486 1099 q 565 1055 529 1055 z "},"Ű":{"ha":1092,"x_min":42,"x_max":1049,"o":"m 847 342 l 847 871 l 728 905 l 728 948 l 1049 948 l 1049 905 l 931 871 l 931 354 q 886 154 931 236 q 758 29 842 72 q 555 -14 674 -14 q 339 29 426 -14 q 205 158 251 72 q 160 372 160 244 l 160 871 l 42 905 l 42 948 l 403 948 l 403 905 l 285 871 l 285 368 q 316 208 285 272 q 410 114 347 144 q 568 83 474 83 q 721 113 659 83 q 815 199 783 142 q 847 342 847 257 m 626 1041 l 742 1227 l 906 1227 l 906 1210 l 685 1041 l 626 1041 m 444 1041 l 496 1227 l 647 1227 l 647 1212 l 494 1041 l 444 1041 z "},"Ų":{"ha":1092,"x_min":42,"x_max":1049,"o":"m 847 342 l 847 871 l 728 905 l 728 948 l 1049 948 l 1049 905 l 931 871 l 931 354 q 886 154 931 236 q 758 29 842 72 q 555 -14 674 -14 q 339 29 426 -14 q 205 158 251 72 q 160 372 160 244 l 160 871 l 42 905 l 42 948 l 403 948 l 403 905 l 285 871 l 285 368 q 316 208 285 272 q 410 114 347 144 q 568 83 474 83 q 721 113 659 83 q 815 199 783 142 q 847 342 847 257 m 578 -80 q 555 -133 564 -110 q 543 -175 547 -156 q 540 -210 540 -194 q 559 -262 540 -244 q 610 -281 578 -281 q 653 -271 631 -281 q 708 -232 675 -261 l 721 -261 q 671 -315 695 -294 q 622 -344 647 -335 q 567 -353 597 -353 q 481 -322 513 -353 q 449 -240 449 -292 q 455 -195 449 -217 q 475 -144 460 -172 q 516 -76 489 -115 l 589 32 l 633 32 l 578 -80 z "},"Ư":{"ha":1103,"x_min":42,"x_max":1181,"o":"m 1068 1002 q 1063 1033 1068 1022 q 1053 1055 1058 1045 q 1048 1077 1048 1065 q 1065 1111 1048 1097 q 1106 1124 1082 1124 q 1160 1103 1139 1124 q 1181 1041 1181 1082 q 1157 960 1181 996 q 1078 903 1133 924 q 931 876 1024 881 l 931 354 q 886 154 931 236 q 758 29 842 72 q 555 -14 674 -14 q 339 29 426 -14 q 205 158 251 72 q 160 372 160 244 l 160 871 l 42 905 l 42 948 l 403 948 l 403 905 l 285 871 l 285 368 q 316 208 285 272 q 410 114 347 144 q 568 83 474 83 q 721 113 659 83 q 815 199 783 142 q 847 342 847 257 l 847 871 l 728 905 l 728 948 l 979 948 q 1033 955 1014 948 q 1060 973 1052 961 q 1068 1002 1068 985 z "},"Ȕ":{"ha":1092,"x_min":42,"x_max":1049,"o":"m 847 342 l 847 871 l 728 905 l 728 948 l 1049 948 l 1049 905 l 931 871 l 931 354 q 886 154 931 236 q 758 29 842 72 q 555 -14 674 -14 q 339 29 426 -14 q 205 158 251 72 q 160 372 160 244 l 160 871 l 42 905 l 42 948 l 403 948 l 403 905 l 285 871 l 285 368 q 316 208 285 272 q 410 114 347 144 q 568 83 474 83 q 721 113 659 83 q 815 199 783 142 q 847 342 847 257 m 504 1041 l 446 1041 l 224 1210 l 224 1227 l 388 1227 l 504 1041 m 687 1041 l 636 1041 l 484 1212 l 484 1227 l 635 1227 l 687 1041 z "},"Ȗ":{"ha":1092,"x_min":42,"x_max":1049,"o":"m 847 342 l 847 871 l 728 905 l 728 948 l 1049 948 l 1049 905 l 931 871 l 931 354 q 886 154 931 236 q 758 29 842 72 q 555 -14 674 -14 q 339 29 426 -14 q 205 158 251 72 q 160 372 160 244 l 160 871 l 42 905 l 42 948 l 403 948 l 403 905 l 285 871 l 285 368 q 316 208 285 272 q 410 114 347 144 q 568 83 474 83 q 721 113 659 83 q 815 199 783 142 q 847 342 847 257 m 565 1141 q 473 1118 508 1141 q 422 1041 437 1095 l 366 1041 q 406 1156 381 1115 q 469 1215 431 1197 q 565 1232 508 1232 q 661 1215 623 1232 q 725 1156 700 1197 q 765 1041 749 1115 l 708 1041 q 658 1118 694 1095 q 565 1141 623 1141 z "},"Ụ":{"ha":1092,"x_min":42,"x_max":1049,"o":"m 847 342 l 847 871 l 728 905 l 728 948 l 1049 948 l 1049 905 l 931 871 l 931 354 q 886 154 931 236 q 758 29 842 72 q 555 -14 674 -14 q 339 29 426 -14 q 205 158 251 72 q 160 372 160 244 l 160 871 l 42 905 l 42 948 l 403 948 l 403 905 l 285 871 l 285 368 q 316 208 285 272 q 410 114 347 144 q 568 83 474 83 q 721 113 659 83 q 815 199 783 142 q 847 342 847 257 m 558 -250 q 493 -227 517 -250 q 469 -168 469 -205 q 493 -109 469 -131 q 558 -87 517 -87 q 624 -109 600 -87 q 648 -168 648 -131 q 624 -227 648 -205 q 558 -250 600 -250 z "},"Ủ":{"ha":1092,"x_min":42,"x_max":1049,"o":"m 847 342 l 847 871 l 728 905 l 728 948 l 1049 948 l 1049 905 l 931 871 l 931 354 q 886 154 931 236 q 758 29 842 72 q 555 -14 674 -14 q 339 29 426 -14 q 205 158 251 72 q 160 372 160 244 l 160 871 l 42 905 l 42 948 l 403 948 l 403 905 l 285 871 l 285 368 q 316 208 285 272 q 410 114 347 144 q 568 83 474 83 q 721 113 659 83 q 815 199 783 142 q 847 342 847 257 m 451 1180 l 465 1274 q 580 1260 535 1270 q 649 1234 624 1249 q 684 1199 674 1219 q 694 1155 694 1178 q 680 1099 694 1124 q 628 1054 667 1074 q 515 1022 590 1035 l 506 1066 q 568 1083 547 1074 q 597 1101 589 1091 q 604 1126 604 1112 q 593 1152 604 1141 q 549 1169 582 1163 q 451 1180 517 1176 z "},"Ứ":{"ha":1103,"x_min":42,"x_max":1181,"o":"m 1068 1002 q 1063 1033 1068 1022 q 1053 1055 1058 1045 q 1048 1077 1048 1065 q 1065 1111 1048 1097 q 1106 1124 1082 1124 q 1160 1103 1139 1124 q 1181 1041 1181 1082 q 1157 960 1181 996 q 1078 903 1133 924 q 931 876 1024 881 l 931 354 q 886 154 931 236 q 758 29 842 72 q 555 -14 674 -14 q 339 29 426 -14 q 205 158 251 72 q 160 372 160 244 l 160 871 l 42 905 l 42 948 l 403 948 l 403 905 l 285 871 l 285 368 q 316 208 285 272 q 410 114 347 144 q 568 83 474 83 q 721 113 659 83 q 815 199 783 142 q 847 342 847 257 l 847 871 l 728 905 l 728 948 l 979 948 q 1033 955 1014 948 q 1060 973 1052 961 q 1068 1002 1068 985 m 532 1041 l 623 1227 l 785 1227 l 785 1209 l 588 1041 l 532 1041 z "},"Ừ":{"ha":1103,"x_min":42,"x_max":1181,"o":"m 1068 1002 q 1063 1033 1068 1022 q 1053 1055 1058 1045 q 1048 1077 1048 1065 q 1065 1111 1048 1097 q 1106 1124 1082 1124 q 1160 1103 1139 1124 q 1181 1041 1181 1082 q 1157 960 1181 996 q 1078 903 1133 924 q 931 876 1024 881 l 931 354 q 886 154 931 236 q 758 29 842 72 q 555 -14 674 -14 q 339 29 426 -14 q 205 158 251 72 q 160 372 160 244 l 160 871 l 42 905 l 42 948 l 403 948 l 403 905 l 285 871 l 285 368 q 316 208 285 272 q 410 114 347 144 q 568 83 474 83 q 721 113 659 83 q 815 199 783 142 q 847 342 847 257 l 847 871 l 728 905 l 728 948 l 979 948 q 1033 955 1014 948 q 1060 973 1052 961 q 1068 1002 1068 985 m 599 1041 l 543 1041 l 346 1209 l 346 1227 l 508 1227 l 599 1041 z "},"Ử":{"ha":1103,"x_min":42,"x_max":1181,"o":"m 1068 1002 q 1063 1033 1068 1022 q 1053 1055 1058 1045 q 1048 1077 1048 1065 q 1065 1111 1048 1097 q 1106 1124 1082 1124 q 1160 1103 1139 1124 q 1181 1041 1181 1082 q 1157 960 1181 996 q 1078 903 1133 924 q 931 876 1024 881 l 931 354 q 886 154 931 236 q 758 29 842 72 q 555 -14 674 -14 q 339 29 426 -14 q 205 158 251 72 q 160 372 160 244 l 160 871 l 42 905 l 42 948 l 403 948 l 403 905 l 285 871 l 285 368 q 316 208 285 272 q 410 114 347 144 q 568 83 474 83 q 721 113 659 83 q 815 199 783 142 q 847 342 847 257 l 847 871 l 728 905 l 728 948 l 979 948 q 1033 955 1014 948 q 1060 973 1052 961 q 1068 1002 1068 985 m 451 1180 l 465 1274 q 580 1260 535 1270 q 649 1234 624 1249 q 684 1199 674 1219 q 694 1155 694 1178 q 680 1099 694 1124 q 628 1054 667 1074 q 515 1022 590 1035 l 506 1066 q 568 1083 547 1074 q 597 1101 589 1091 q 604 1126 604 1112 q 593 1152 604 1141 q 549 1169 582 1163 q 451 1180 517 1176 z "},"Ữ":{"ha":1103,"x_min":42,"x_max":1181,"o":"m 1068 1002 q 1063 1033 1068 1022 q 1053 1055 1058 1045 q 1048 1077 1048 1065 q 1065 1111 1048 1097 q 1106 1124 1082 1124 q 1160 1103 1139 1124 q 1181 1041 1181 1082 q 1157 960 1181 996 q 1078 903 1133 924 q 931 876 1024 881 l 931 354 q 886 154 931 236 q 758 29 842 72 q 555 -14 674 -14 q 339 29 426 -14 q 205 158 251 72 q 160 372 160 244 l 160 871 l 42 905 l 42 948 l 403 948 l 403 905 l 285 871 l 285 368 q 316 208 285 272 q 410 114 347 144 q 568 83 474 83 q 721 113 659 83 q 815 199 783 142 q 847 342 847 257 l 847 871 l 728 905 l 728 948 l 979 948 q 1033 955 1014 948 q 1060 973 1052 961 q 1068 1002 1068 985 m 769 1224 q 742 1108 757 1148 q 706 1053 727 1068 q 650 1039 684 1039 q 599 1053 624 1039 q 551 1085 574 1067 q 509 1117 528 1103 q 472 1131 489 1131 q 451 1125 460 1131 q 434 1100 442 1119 q 417 1044 426 1081 l 358 1044 q 386 1160 372 1120 q 423 1215 401 1200 q 478 1229 444 1229 q 529 1215 504 1229 q 577 1183 554 1201 q 619 1151 599 1165 q 656 1137 639 1137 q 676 1143 667 1137 q 694 1168 685 1149 q 710 1224 702 1188 l 769 1224 z "},"Ự":{"ha":1103,"x_min":42,"x_max":1181,"o":"m 1068 1002 q 1063 1033 1068 1022 q 1053 1055 1058 1045 q 1048 1077 1048 1065 q 1065 1111 1048 1097 q 1106 1124 1082 1124 q 1160 1103 1139 1124 q 1181 1041 1181 1082 q 1157 960 1181 996 q 1078 903 1133 924 q 931 876 1024 881 l 931 354 q 886 154 931 236 q 758 29 842 72 q 555 -14 674 -14 q 339 29 426 -14 q 205 158 251 72 q 160 372 160 244 l 160 871 l 42 905 l 42 948 l 403 948 l 403 905 l 285 871 l 285 368 q 316 208 285 272 q 410 114 347 144 q 568 83 474 83 q 721 113 659 83 q 815 199 783 142 q 847 342 847 257 l 847 871 l 728 905 l 728 948 l 979 948 q 1033 955 1014 948 q 1060 973 1052 961 q 1068 1002 1068 985 m 558 -250 q 493 -227 517 -250 q 469 -168 469 -205 q 493 -109 469 -131 q 558 -87 517 -87 q 624 -109 600 -87 q 648 -168 648 -131 q 624 -227 648 -205 q 558 -250 600 -250 z "},"Ŵ":{"ha":1385,"x_min":1,"x_max":1381,"o":"m 714 828 l 410 -9 l 319 -9 l 113 869 l 1 905 l 1 948 l 367 948 l 367 905 l 244 871 l 415 127 l 388 127 l 677 957 l 760 957 l 1073 101 l 1022 83 l 1191 871 l 1069 905 l 1069 948 l 1381 948 l 1381 905 l 1274 871 l 1071 -9 l 983 -9 l 681 812 l 714 828 m 698 1151 l 722 1151 l 567 1041 l 495 1041 l 653 1227 l 767 1227 l 924 1041 l 852 1041 l 698 1151 z "},"Ẁ":{"ha":1385,"x_min":1,"x_max":1381,"o":"m 714 828 l 410 -9 l 319 -9 l 113 869 l 1 905 l 1 948 l 367 948 l 367 905 l 244 871 l 415 127 l 388 127 l 677 957 l 760 957 l 1073 101 l 1022 83 l 1191 871 l 1069 905 l 1069 948 l 1381 948 l 1381 905 l 1274 871 l 1071 -9 l 983 -9 l 681 812 l 714 828 m 743 1041 l 688 1041 l 490 1209 l 490 1227 l 652 1227 l 743 1041 z "},"Ẃ":{"ha":1385,"x_min":1,"x_max":1381,"o":"m 714 828 l 410 -9 l 319 -9 l 113 869 l 1 905 l 1 948 l 367 948 l 367 905 l 244 871 l 415 127 l 388 127 l 677 957 l 760 957 l 1073 101 l 1022 83 l 1191 871 l 1069 905 l 1069 948 l 1381 948 l 1381 905 l 1274 871 l 1071 -9 l 983 -9 l 681 812 l 714 828 m 676 1041 l 767 1227 l 929 1227 l 929 1209 l 732 1041 l 676 1041 z "},"Ẅ":{"ha":1385,"x_min":1,"x_max":1381,"o":"m 714 828 l 410 -9 l 319 -9 l 113 869 l 1 905 l 1 948 l 367 948 l 367 905 l 244 871 l 415 127 l 388 127 l 677 957 l 760 957 l 1073 101 l 1022 83 l 1191 871 l 1069 905 l 1069 948 l 1381 948 l 1381 905 l 1274 871 l 1071 -9 l 983 -9 l 681 812 l 714 828 m 574 1057 q 515 1079 536 1057 q 493 1135 493 1101 q 515 1190 493 1169 q 574 1211 536 1211 q 633 1190 612 1211 q 655 1135 655 1169 q 633 1079 655 1101 q 574 1057 612 1057 m 846 1057 q 786 1079 808 1057 q 765 1135 765 1101 q 786 1190 765 1169 q 846 1211 808 1211 q 905 1190 883 1211 q 926 1135 926 1169 q 905 1079 926 1101 q 846 1057 883 1057 z "},"Ý":{"ha":977,"x_min":-3,"x_max":965,"o":"m 104 869 l -3 905 l -3 948 l 381 948 l 381 905 l 261 871 l 556 455 l 518 456 l 765 871 l 644 905 l 644 948 l 965 948 l 965 905 l 860 871 l 566 409 l 566 77 l 685 42 l 685 0 l 323 0 l 323 42 l 442 77 l 442 403 l 104 869 m 469 1041 l 560 1227 l 722 1227 l 722 1209 l 524 1041 l 469 1041 z "},"Ŷ":{"ha":977,"x_min":-3,"x_max":965,"o":"m 104 869 l -3 905 l -3 948 l 381 948 l 381 905 l 261 871 l 556 455 l 518 456 l 765 871 l 644 905 l 644 948 l 965 948 l 965 905 l 860 871 l 566 409 l 566 77 l 685 42 l 685 0 l 323 0 l 323 42 l 442 77 l 442 403 l 104 869 m 490 1151 l 514 1151 l 360 1041 l 288 1041 l 445 1227 l 559 1227 l 717 1041 l 644 1041 l 490 1151 z "},"Ÿ":{"ha":977,"x_min":-3,"x_max":965,"o":"m 104 869 l -3 905 l -3 948 l 381 948 l 381 905 l 261 871 l 556 455 l 518 456 l 765 871 l 644 905 l 644 948 l 965 948 l 965 905 l 860 871 l 566 409 l 566 77 l 685 42 l 685 0 l 323 0 l 323 42 l 442 77 l 442 403 l 104 869 m 366 1057 q 307 1079 328 1057 q 285 1135 285 1101 q 307 1190 285 1169 q 366 1211 328 1211 q 426 1190 404 1211 q 447 1135 447 1169 q 426 1079 447 1101 q 366 1057 404 1057 m 638 1057 q 579 1079 601 1057 q 557 1135 557 1101 q 579 1190 557 1169 q 638 1211 601 1211 q 697 1190 676 1211 q 719 1135 719 1169 q 697 1079 719 1101 q 638 1057 676 1057 z "},"Ȳ":{"ha":977,"x_min":-3,"x_max":965,"o":"m 104 869 l -3 905 l -3 948 l 381 948 l 381 905 l 261 871 l 556 455 l 518 456 l 765 871 l 644 905 l 644 948 l 965 948 l 965 905 l 860 871 l 566 409 l 566 77 l 685 42 l 685 0 l 323 0 l 323 42 l 442 77 l 442 403 l 104 869 m 315 1094 l 315 1174 l 690 1174 l 690 1094 l 315 1094 z "},"Ỳ":{"ha":977,"x_min":-3,"x_max":965,"o":"m 104 869 l -3 905 l -3 948 l 381 948 l 381 905 l 261 871 l 556 455 l 518 456 l 765 871 l 644 905 l 644 948 l 965 948 l 965 905 l 860 871 l 566 409 l 566 77 l 685 42 l 685 0 l 323 0 l 323 42 l 442 77 l 442 403 l 104 869 m 535 1041 l 480 1041 l 283 1209 l 283 1227 l 444 1227 l 535 1041 z "},"Ỵ":{"ha":977,"x_min":-3,"x_max":965,"o":"m 104 869 l -3 905 l -3 948 l 381 948 l 381 905 l 261 871 l 556 455 l 518 456 l 765 871 l 644 905 l 644 948 l 965 948 l 965 905 l 860 871 l 566 409 l 566 77 l 685 42 l 685 0 l 323 0 l 323 42 l 442 77 l 442 403 l 104 869 m 503 -250 q 437 -227 461 -250 q 413 -168 413 -205 q 437 -109 413 -131 q 503 -87 461 -87 q 568 -109 544 -87 q 592 -168 592 -131 q 568 -227 592 -205 q 503 -250 544 -250 z "},"Ỷ":{"ha":977,"x_min":-3,"x_max":965,"o":"m 104 869 l -3 905 l -3 948 l 381 948 l 381 905 l 261 871 l 556 455 l 518 456 l 765 871 l 644 905 l 644 948 l 965 948 l 965 905 l 860 871 l 566 409 l 566 77 l 685 42 l 685 0 l 323 0 l 323 42 l 442 77 l 442 403 l 104 869 m 388 1180 l 402 1274 q 516 1260 472 1270 q 586 1234 561 1249 q 621 1199 611 1219 q 631 1155 631 1178 q 617 1099 631 1124 q 565 1054 603 1074 q 452 1022 526 1035 l 443 1066 q 505 1083 484 1074 q 533 1101 526 1091 q 541 1126 541 1112 q 530 1152 541 1141 q 486 1169 519 1163 q 388 1180 453 1176 z "},"Ỹ":{"ha":977,"x_min":-3,"x_max":965,"o":"m 104 869 l -3 905 l -3 948 l 381 948 l 381 905 l 261 871 l 556 455 l 518 456 l 765 871 l 644 905 l 644 948 l 965 948 l 965 905 l 860 871 l 566 409 l 566 77 l 685 42 l 685 0 l 323 0 l 323 42 l 442 77 l 442 403 l 104 869 m 706 1224 q 679 1108 694 1148 q 642 1053 664 1068 q 587 1039 621 1039 q 535 1053 560 1039 q 488 1085 510 1067 q 445 1117 465 1103 q 409 1131 426 1131 q 388 1125 397 1131 q 371 1100 379 1119 q 354 1044 363 1081 l 295 1044 q 323 1160 308 1120 q 359 1215 338 1200 q 415 1229 381 1229 q 466 1215 441 1229 q 514 1183 491 1201 q 556 1151 536 1165 q 592 1137 576 1137 q 613 1143 604 1137 q 631 1168 622 1149 q 647 1224 639 1188 l 706 1224 z "},"Ź":{"ha":897,"x_min":63,"x_max":849,"o":"m 815 948 l 815 907 l 226 63 l 206 80 l 706 80 l 798 263 l 849 260 l 803 -40 l 767 -40 l 705 0 l 76 0 l 76 41 l 663 885 l 683 868 l 208 868 l 115 675 l 63 680 l 97 991 l 133 991 l 206 948 l 815 948 m 431 1041 l 522 1227 l 684 1227 l 684 1209 l 487 1041 l 431 1041 z "},"Ż":{"ha":897,"x_min":63,"x_max":849,"o":"m 815 948 l 815 907 l 226 63 l 206 80 l 706 80 l 798 263 l 849 260 l 803 -40 l 767 -40 l 705 0 l 76 0 l 76 41 l 663 885 l 683 868 l 208 868 l 115 675 l 63 680 l 97 991 l 133 991 l 206 948 l 815 948 m 465 1052 q 399 1075 423 1052 q 375 1135 375 1098 q 399 1194 375 1172 q 465 1216 423 1216 q 530 1194 506 1216 q 554 1135 554 1172 q 530 1075 554 1098 q 465 1052 506 1052 z "},"Ž":{"ha":897,"x_min":63,"x_max":849,"o":"m 815 948 l 815 907 l 226 63 l 206 80 l 706 80 l 798 263 l 849 260 l 803 -40 l 767 -40 l 705 0 l 76 0 l 76 41 l 663 885 l 683 868 l 208 868 l 115 675 l 63 680 l 97 991 l 133 991 l 206 948 l 815 948 m 476 1117 l 453 1117 l 607 1227 l 679 1227 l 522 1041 l 408 1041 l 250 1227 l 322 1227 l 476 1117 z "},"Þ":{"ha":891,"x_min":65,"x_max":831,"o":"m 700 485 q 674 591 700 548 q 588 656 649 634 q 420 678 526 678 l 215 678 l 221 758 l 475 758 q 682 723 604 758 q 795 629 760 689 q 831 491 831 569 q 795 349 831 413 q 683 248 760 285 q 483 210 606 210 l 221 210 l 215 290 l 492 290 q 600 311 553 290 q 674 376 647 333 q 700 485 700 419 m 426 42 l 426 0 l 65 0 l 65 42 l 183 77 l 183 871 l 65 905 l 65 948 l 426 948 l 426 905 l 308 871 l 308 77 l 426 42 z "},"Ð":{"ha":1083,"x_min":67,"x_max":1011,"o":"m 67 443 l 67 517 l 535 517 l 535 443 l 67 443 m 878 486 q 764 774 878 681 q 438 868 650 868 l 235 868 l 235 948 l 476 948 q 774 898 655 948 q 952 748 892 848 q 1011 499 1011 649 q 942 228 1011 340 q 752 58 873 117 q 475 0 631 0 l 235 0 l 235 80 l 460 80 q 683 122 589 80 q 827 253 776 163 q 878 486 878 342 m 67 0 l 67 42 l 185 77 l 185 871 l 67 905 l 67 948 l 310 948 l 310 0 l 67 0 z "},"Ə":{"ha":982,"x_min":67,"x_max":909,"o":"m 183 344 l 215 365 q 252 198 220 264 q 339 100 283 132 q 471 67 394 67 q 595 91 539 67 q 692 162 651 115 q 756 278 733 208 q 778 438 778 347 q 737 668 778 576 q 617 806 696 760 q 425 851 539 851 q 302 839 360 851 q 193 805 244 827 q 95 753 142 783 l 74 809 q 208 895 143 862 q 337 945 272 929 q 470 962 402 962 q 705 902 606 962 q 856 735 803 842 q 909 485 909 628 q 878 288 909 379 q 788 130 847 197 q 646 24 728 62 q 461 -14 564 -14 q 250 37 335 -14 q 120 186 165 88 q 67 424 74 284 l 847 424 l 845 344 l 183 344 z "},"Ǆ":{"ha":1957,"x_min":65,"x_max":1909,"o":"m 876 486 q 762 774 876 681 q 435 868 648 868 l 233 868 l 233 948 l 474 948 q 772 898 653 948 q 950 748 890 848 q 1009 499 1009 649 q 940 228 1009 340 q 750 58 871 117 q 473 0 629 0 l 233 0 l 233 80 l 458 80 q 681 122 587 80 q 825 253 774 163 q 876 486 876 342 m 65 0 l 65 42 l 183 77 l 183 871 l 65 905 l 65 948 l 308 948 l 308 0 l 65 0 m 1875 948 l 1875 907 l 1286 63 l 1266 80 l 1766 80 l 1858 263 l 1909 260 l 1863 -40 l 1826 -40 l 1765 0 l 1136 0 l 1136 41 l 1722 885 l 1742 868 l 1268 868 l 1174 675 l 1122 680 l 1157 991 l 1192 991 l 1265 948 l 1875 948 m 1536 1117 l 1513 1117 l 1667 1227 l 1739 1227 l 1581 1041 l 1467 1041 l 1310 1227 l 1382 1227 l 1536 1117 z "},"ǅ":{"ha":1685,"x_min":65,"x_max":1649,"o":"m 876 486 q 762 774 876 681 q 435 868 648 868 l 233 868 l 233 948 l 474 948 q 772 898 653 948 q 950 748 890 848 q 1009 499 1009 649 q 940 228 1009 340 q 750 58 871 117 q 473 0 629 0 l 233 0 l 233 80 l 458 80 q 681 122 587 80 q 825 253 774 163 q 876 486 876 342 m 65 0 l 65 42 l 183 77 l 183 871 l 65 905 l 65 948 l 308 948 l 308 0 l 65 0 m 1108 0 l 1108 27 l 1500 600 l 1534 563 l 1167 563 l 1255 613 l 1157 433 l 1114 433 l 1139 645 l 1177 645 l 1218 631 l 1631 631 l 1631 604 l 1236 30 l 1213 69 l 1541 69 l 1490 24 l 1603 208 l 1649 208 l 1601 0 l 1108 0 m 1403 814 l 1378 814 l 1533 959 l 1601 959 l 1451 731 l 1331 731 l 1181 959 l 1249 959 l 1403 814 z "},"Ǉ":{"ha":1512,"x_min":65,"x_max":1465,"o":"m 775 -44 l 736 -44 l 672 0 l 233 0 l 233 80 l 735 80 l 652 47 l 781 300 l 831 295 l 775 -44 m 308 871 l 308 0 l 65 0 l 65 42 l 183 77 l 183 871 l 65 905 l 65 948 l 426 948 l 426 905 l 308 871 m 1349 289 q 1326 161 1349 217 q 1260 67 1303 106 q 1159 7 1218 28 q 1026 -13 1099 -13 q 940 -2 974 -13 q 890 30 906 10 q 874 76 874 50 q 890 123 874 104 q 938 142 906 142 q 964 131 950 142 q 997 106 978 120 q 1037 81 1015 92 q 1089 70 1060 70 q 1185 110 1149 70 q 1222 245 1222 149 l 1222 871 l 1104 905 l 1104 948 l 1465 948 l 1465 905 l 1347 871 l 1349 289 z "},"ǈ":{"ha":1204,"x_min":65,"x_max":1123,"o":"m 775 -44 l 736 -44 l 672 0 l 233 0 l 233 80 l 735 80 l 652 47 l 781 300 l 831 295 l 775 -44 m 308 871 l 308 0 l 65 0 l 65 42 l 183 77 l 183 871 l 65 905 l 65 948 l 426 948 l 426 905 l 308 871 m 1031 827 q 964 851 990 827 q 938 914 938 875 q 964 977 938 953 q 1031 1001 990 1001 q 1097 977 1072 1001 q 1123 914 1123 953 q 1097 851 1123 875 q 1031 827 1072 827 m 983 501 q 957 518 976 508 q 917 539 939 528 q 873 558 894 550 l 873 586 l 1081 645 l 1103 645 l 1097 519 l 1097 -41 q 1093 -109 1097 -80 q 1077 -164 1089 -139 q 1043 -215 1066 -189 q 982 -274 1020 -241 q 888 -353 944 -307 l 847 -308 q 921 -227 894 -260 q 962 -172 949 -195 q 979 -125 975 -148 q 983 -73 983 -103 l 983 501 z "},"Ǌ":{"ha":1737,"x_min":65,"x_max":1690,"o":"m 184 77 l 184 863 l 65 905 l 65 948 l 324 948 l 881 136 l 844 86 l 844 871 l 717 905 l 717 948 l 1044 948 l 1044 905 l 927 871 l 927 -9 l 841 -9 l 243 853 l 267 870 l 267 77 l 394 42 l 394 0 l 67 0 l 67 42 l 184 77 m 1574 289 q 1551 161 1574 217 q 1486 67 1528 106 q 1384 7 1444 28 q 1252 -13 1325 -13 q 1166 -2 1200 -13 q 1116 30 1132 10 q 1099 76 1099 50 q 1116 123 1099 104 q 1163 142 1132 142 q 1190 131 1176 142 q 1222 106 1204 120 q 1263 81 1240 92 q 1315 70 1285 70 q 1411 110 1374 70 q 1448 245 1448 149 l 1448 871 l 1330 905 l 1330 948 l 1691 948 l 1691 905 l 1573 871 l 1574 289 z "},"ǋ":{"ha":1429,"x_min":65,"x_max":1348,"o":"m 184 77 l 184 863 l 65 905 l 65 948 l 324 948 l 881 136 l 844 86 l 844 871 l 717 905 l 717 948 l 1044 948 l 1044 905 l 927 871 l 927 -9 l 841 -9 l 243 853 l 267 870 l 267 77 l 394 42 l 394 0 l 67 0 l 67 42 l 184 77 m 1256 827 q 1189 851 1215 827 q 1163 914 1163 875 q 1189 977 1163 953 q 1256 1001 1215 1001 q 1322 977 1297 1001 q 1348 914 1348 953 q 1322 851 1348 875 q 1256 827 1297 827 m 1208 501 q 1182 518 1201 508 q 1142 539 1164 528 q 1098 558 1119 550 l 1098 586 l 1306 645 l 1328 645 l 1322 519 l 1322 -41 q 1318 -109 1322 -80 q 1302 -164 1314 -139 q 1268 -215 1291 -189 q 1207 -274 1245 -241 q 1113 -353 1169 -307 l 1072 -308 q 1146 -227 1119 -260 q 1187 -172 1174 -195 q 1204 -125 1200 -148 q 1208 -73 1208 -103 l 1208 501 z "},"a":{"ha":676,"x_min":66,"x_max":676,"o":"m 488 404 l 484 341 q 331 306 390 324 q 241 268 273 288 q 198 225 210 248 q 186 174 186 202 q 215 100 186 125 q 293 74 244 74 q 361 91 331 74 q 411 135 392 108 q 429 196 429 163 l 429 446 q 401 538 429 506 q 303 569 373 569 q 245 564 275 569 q 188 547 215 558 l 229 585 q 220 542 225 563 q 210 506 216 522 q 197 478 205 490 q 168 456 185 462 q 131 450 151 450 q 86 462 102 450 q 70 492 70 474 q 93 540 70 515 q 153 589 115 566 q 241 626 192 612 q 345 641 291 641 q 460 620 417 641 q 523 559 503 599 q 542 463 542 519 l 542 142 q 550 103 542 118 q 571 80 557 88 q 606 73 585 73 q 640 78 622 73 q 676 91 658 83 l 676 49 q 612 3 646 18 q 548 -12 578 -12 q 485 5 511 -12 q 445 56 459 22 q 430 138 431 89 l 435 142 q 399 60 426 96 q 334 6 373 25 q 247 -14 294 -14 q 115 29 165 -14 q 66 151 66 72 q 83 230 66 194 q 146 295 101 265 q 274 352 192 325 q 488 404 357 378 z "},"b":{"ha":791,"x_min":-10,"x_max":731,"o":"m 174 81 l 238 81 l 132 -8 l 85 -2 l 112 165 l 112 855 q 84 874 103 863 q 42 895 66 884 q -10 918 17 907 l -10 945 l 215 1001 l 235 1001 l 225 878 l 225 210 q 246 129 225 163 q 307 76 267 94 q 403 57 347 57 q 511 88 466 57 q 580 177 556 119 q 603 317 603 236 q 578 447 603 394 q 506 527 553 500 q 394 554 459 554 q 314 547 353 554 q 241 526 276 540 q 175 492 206 513 l 175 549 q 260 594 222 576 q 332 623 299 612 q 392 640 364 635 q 444 645 420 645 q 601 608 537 645 q 698 503 665 571 q 731 345 731 436 q 707 197 731 263 q 636 83 682 131 q 529 11 591 36 q 393 -15 467 -15 q 314 -5 351 -15 q 242 26 276 6 q 174 81 208 47 z "},"c":{"ha":638,"x_min":58,"x_max":592,"o":"m 415 645 q 520 630 482 645 q 576 594 559 615 q 592 552 592 572 q 583 513 592 531 q 557 486 574 496 q 519 476 540 476 q 487 486 503 476 q 455 510 471 496 q 421 539 438 524 q 386 563 404 553 q 350 572 368 572 q 261 548 302 572 q 197 475 221 524 q 172 352 172 426 q 200 207 172 267 q 281 114 228 146 q 408 82 334 82 q 494 97 451 82 q 581 141 538 113 l 592 103 q 515 39 554 65 q 434 -1 476 13 q 349 -14 393 -14 q 198 26 263 -14 q 95 136 132 65 q 58 301 58 207 q 82 439 58 376 q 152 548 106 502 q 264 620 197 594 q 415 645 330 645 z "},"d":{"ha":806,"x_min":59,"x_max":780,"o":"m 565 431 q 524 535 565 495 q 397 575 483 575 q 282 544 329 575 q 211 455 235 513 q 187 318 187 397 q 213 185 187 239 q 285 105 238 132 q 396 78 331 78 q 506 95 453 78 q 611 147 559 112 l 611 106 q 511 43 552 67 q 442 7 471 19 q 391 -10 413 -6 q 344 -14 368 -14 q 187 24 251 -14 q 91 129 124 61 q 59 286 59 197 q 86 436 59 369 q 162 549 114 502 q 273 620 210 596 q 408 645 337 645 q 483 639 448 645 q 554 620 518 633 q 631 585 590 607 l 565 547 l 565 868 q 539 885 557 876 q 498 904 520 894 q 456 922 476 914 l 456 949 l 669 1001 l 688 1001 l 678 878 l 678 120 q 697 107 685 115 q 725 93 710 100 q 754 80 740 85 q 780 71 769 74 l 780 47 l 607 -12 l 589 -12 l 565 109 l 565 431 z "},"e":{"ha":672,"x_min":58,"x_max":615,"o":"m 357 645 q 495 610 440 645 q 580 509 550 576 q 615 344 610 442 l 153 344 l 153 407 l 536 418 l 491 394 q 470 493 488 453 q 424 555 453 534 q 349 576 394 576 q 256 550 295 576 q 194 472 216 524 q 173 342 173 419 q 203 200 173 258 q 290 112 233 142 q 426 82 346 82 q 489 89 458 82 q 548 110 519 97 q 603 141 577 123 l 615 103 q 535 39 576 65 q 451 -1 494 13 q 363 -14 408 -14 q 205 26 273 -14 q 97 138 136 66 q 58 307 58 210 q 95 481 58 404 q 198 601 131 557 q 357 645 265 645 z "},"f":{"ha":508,"x_min":35,"x_max":670,"o":"m 187 553 l 158 536 l 35 563 l 35 592 l 168 637 l 197 631 l 488 631 l 479 553 l 187 553 m 272 71 l 394 40 l 394 0 l 49 0 l 49 40 l 158 71 l 158 665 q 186 816 158 753 q 264 920 215 880 q 376 981 313 961 q 507 1001 439 1001 q 583 994 552 1001 q 634 976 615 988 q 661 950 653 965 q 670 918 670 935 q 649 867 670 887 q 597 848 628 848 q 564 860 578 848 q 534 886 549 872 q 497 913 518 901 q 442 925 475 925 q 355 906 394 925 q 294 843 317 886 q 272 726 272 799 l 272 71 z "},"g":{"ha":717,"x_min":18,"x_max":713,"o":"m 324 -353 q 190 -342 247 -353 q 94 -309 133 -331 q 37 -257 56 -287 q 18 -186 18 -226 q 33 -132 18 -158 q 79 -85 47 -106 q 160 -47 110 -63 q 279 -22 209 -31 l 322 -22 l 322 -37 q 210 -65 251 -46 q 153 -110 169 -83 q 136 -171 136 -137 q 157 -236 136 -209 q 221 -276 177 -262 q 334 -290 265 -290 q 461 -272 409 -290 q 541 -225 514 -255 q 569 -156 569 -194 q 558 -110 569 -129 q 519 -79 547 -92 q 445 -60 492 -67 q 324 -50 397 -53 q 202 -36 250 -47 q 128 -6 155 -24 q 90 36 101 13 q 79 88 79 60 q 124 167 79 134 q 255 214 168 200 l 267 199 q 210 179 229 195 q 190 133 190 163 q 197 103 190 116 q 223 80 203 90 q 284 65 243 71 q 394 56 325 58 q 517 42 463 53 q 607 10 570 31 q 662 -44 643 -11 q 681 -124 681 -76 q 638 -239 681 -187 q 516 -322 596 -291 q 324 -353 437 -353 m 324 188 q 188 216 248 188 q 95 296 128 244 q 62 416 62 348 q 95 537 62 485 q 188 617 128 588 q 324 645 248 645 q 430 629 382 645 q 513 582 478 613 q 567 510 547 552 q 586 417 586 468 q 553 296 586 348 q 460 216 519 244 q 324 188 401 188 m 330 249 q 431 291 392 249 q 469 410 469 332 q 430 538 469 493 q 320 583 392 583 q 219 542 258 583 q 180 422 180 501 q 219 295 180 340 q 330 249 258 249 m 423 584 l 394 634 q 482 631 440 630 q 558 635 523 631 q 623 642 594 638 q 674 645 652 645 q 703 633 693 645 q 713 594 713 620 q 700 547 713 566 q 667 528 686 528 q 633 535 651 528 q 590 553 616 543 q 525 572 565 563 q 423 584 485 581 z "},"h":{"ha":813,"x_min":15,"x_max":794,"o":"m 463 40 l 571 71 l 571 410 q 555 480 571 451 q 505 522 538 508 q 422 537 472 537 q 320 520 369 537 q 245 479 272 503 l 223 503 q 305 574 269 546 q 370 617 340 601 q 431 639 401 633 q 497 645 462 645 q 639 590 593 645 q 684 420 684 535 l 684 71 l 794 40 l 794 0 l 463 0 l 463 40 m 359 0 l 28 0 l 28 40 l 137 71 l 137 855 q 110 874 128 863 q 67 895 92 884 q 15 918 42 907 l 15 945 l 241 1001 l 260 1001 l 251 878 l 251 71 l 359 40 l 359 0 z "},"i":{"ha":407,"x_min":45,"x_max":377,"o":"m 203 827 q 136 851 162 827 q 110 914 110 875 q 136 977 110 953 q 203 1001 162 1001 q 269 977 244 1001 q 295 914 295 953 q 269 851 295 875 q 203 827 244 827 m 275 645 l 269 519 l 269 71 l 377 40 l 377 0 l 47 0 l 47 40 l 156 71 l 156 501 q 130 518 148 508 q 89 539 112 528 q 45 558 67 550 l 45 586 l 253 645 l 275 645 z "},"j":{"ha":360,"x_min":2,"x_max":278,"o":"m 186 827 q 119 851 145 827 q 94 914 94 875 q 119 977 94 953 q 186 1001 145 1001 q 253 977 227 1001 q 278 914 278 953 q 253 851 278 875 q 186 827 227 827 m 139 501 q 113 518 131 508 q 72 539 94 528 q 28 558 50 550 l 28 586 l 236 645 l 258 645 l 252 519 l 252 -41 q 248 -109 252 -80 q 233 -164 244 -139 q 199 -215 222 -189 q 138 -274 176 -241 q 43 -353 99 -307 l 2 -308 q 77 -227 49 -260 q 117 -172 104 -195 q 135 -125 131 -148 q 139 -73 139 -103 l 139 501 z "},"k":{"ha":785,"x_min":15,"x_max":785,"o":"m 404 347 l 417 385 l 696 72 l 785 40 l 785 0 l 502 0 l 502 40 l 556 66 l 335 315 l 228 315 l 228 387 l 360 387 l 540 565 l 444 590 l 444 631 l 731 631 l 731 590 l 640 565 l 404 347 m 251 71 l 359 40 l 359 0 l 28 0 l 28 40 l 137 71 l 137 855 q 110 874 128 863 q 67 895 92 884 q 15 918 42 907 l 15 945 l 241 1001 l 260 1001 l 251 878 l 251 71 z "},"l":{"ha":391,"x_min":17,"x_max":361,"o":"m 253 71 l 361 40 l 361 0 l 30 0 l 30 40 l 139 71 l 139 855 q 112 874 130 863 q 69 895 94 884 q 17 918 44 907 l 17 945 l 243 1001 l 262 1001 l 253 878 l 253 71 z "},"m":{"ha":1206,"x_min":44,"x_max":1186,"o":"m 267 511 l 267 71 l 371 40 l 371 0 l 45 0 l 45 40 l 154 71 l 154 490 q 117 515 143 501 q 44 549 91 529 l 44 570 l 222 647 l 240 647 l 267 511 m 672 467 l 672 71 l 775 40 l 775 0 l 454 0 l 454 40 l 558 71 l 558 420 q 542 486 558 460 q 496 524 526 512 q 422 537 466 537 q 330 522 376 537 q 260 484 285 507 l 240 512 q 316 578 283 552 q 378 619 349 604 q 434 639 406 633 q 496 645 463 645 q 597 623 558 645 q 654 560 636 600 q 672 467 672 519 m 1076 437 l 1076 71 l 1186 40 l 1186 0 l 858 0 l 858 40 l 963 71 l 963 420 q 947 486 963 460 q 900 524 931 512 q 826 537 869 537 q 733 522 779 537 q 663 484 688 507 l 642 512 q 719 578 686 552 q 781 619 753 604 q 838 639 810 633 q 900 645 866 645 q 1034 592 992 645 q 1076 437 1076 538 z "},"n":{"ha":831,"x_min":44,"x_max":811,"o":"m 267 511 l 267 71 l 376 40 l 376 0 l 45 0 l 45 40 l 154 71 l 154 490 q 117 515 143 501 q 44 549 91 529 l 44 570 l 222 647 l 240 647 l 267 511 m 479 40 l 588 71 l 588 410 q 572 480 588 451 q 523 522 556 508 q 439 537 490 537 q 337 520 386 537 q 262 479 288 503 l 240 503 q 322 574 286 546 q 388 617 358 601 q 448 639 418 633 q 514 645 478 645 q 655 590 610 645 q 701 420 701 535 l 701 71 l 811 40 l 811 0 l 479 0 l 479 40 z "},"o":{"ha":760,"x_min":58,"x_max":702,"o":"m 379 56 q 484 82 440 56 q 554 162 529 108 q 578 299 578 215 q 555 451 578 390 q 488 544 532 513 q 381 575 444 575 q 276 549 321 575 q 207 470 231 524 q 182 333 182 416 q 205 181 182 242 q 273 88 228 119 q 379 56 317 56 m 377 -14 q 209 27 281 -14 q 98 141 138 68 q 58 311 58 215 q 100 485 58 410 q 214 603 141 560 q 383 645 288 645 q 551 605 480 645 q 663 491 623 564 q 702 320 702 417 q 661 146 702 222 q 546 28 619 71 q 377 -14 473 -14 z "},"p":{"ha":817,"x_min":27,"x_max":758,"o":"m 629 311 q 573 492 629 431 q 421 554 516 554 q 342 547 380 554 q 270 527 304 540 q 205 494 236 514 l 205 551 q 287 595 249 578 q 357 624 325 613 q 417 640 390 635 q 468 645 444 645 q 627 608 563 645 q 724 503 691 571 q 758 345 758 436 q 712 154 758 235 q 591 30 667 73 q 424 -14 515 -14 q 340 -1 379 -14 q 268 35 301 13 q 208 89 235 58 l 251 89 l 251 -269 l 374 -300 l 374 -339 l 28 -339 l 28 -300 l 138 -268 l 138 490 q 113 508 128 499 q 75 528 97 517 q 27 549 53 538 l 27 570 l 206 647 l 224 647 l 251 549 l 251 201 q 274 125 251 158 q 336 75 296 92 q 429 57 376 57 q 537 88 492 57 q 606 176 582 119 q 629 311 629 233 z "},"q":{"ha":788,"x_min":59,"x_max":789,"o":"m 187 318 q 213 185 187 239 q 285 105 238 132 q 396 78 331 78 q 512 93 457 78 q 616 142 567 109 l 616 101 q 525 44 565 67 q 453 10 485 22 q 395 -8 422 -3 q 344 -14 369 -14 q 187 24 251 -14 q 91 129 124 61 q 59 286 59 197 q 105 475 59 394 q 232 601 151 556 q 414 645 312 645 q 485 638 451 645 q 555 616 520 631 q 626 573 590 600 l 556 574 l 674 644 l 699 633 l 678 484 l 678 -268 l 789 -300 l 789 -339 l 442 -339 l 442 -300 l 565 -269 l 565 431 q 522 535 565 494 q 392 575 478 575 q 281 544 326 575 q 211 455 235 513 q 187 318 187 397 z "},"r":{"ha":570,"x_min":44,"x_max":549,"o":"m 478 642 q 531 624 513 642 q 549 576 549 606 q 531 520 549 540 q 486 499 514 499 q 443 504 465 499 q 400 513 422 508 q 354 517 378 517 q 320 513 338 517 q 283 502 301 510 q 249 483 265 494 l 231 507 q 316 571 278 545 q 382 612 353 597 q 435 635 411 628 q 478 642 459 642 m 267 511 l 267 71 l 383 40 l 383 0 l 45 0 l 45 40 l 154 71 l 154 490 q 129 508 145 499 q 91 528 113 517 q 44 549 69 538 l 44 570 l 231 647 l 250 647 l 267 511 z "},"s":{"ha":576,"x_min":58,"x_max":513,"o":"m 312 645 q 393 638 355 645 q 478 610 431 630 l 492 440 l 441 440 l 369 610 l 438 545 q 372 574 403 565 q 308 584 340 584 q 209 561 244 584 q 174 494 174 538 q 197 434 174 456 q 255 399 219 413 q 334 372 292 385 q 398 349 366 363 q 455 316 429 336 q 497 263 481 295 q 513 181 513 230 q 482 75 513 119 q 393 9 450 32 q 256 -13 335 -13 q 168 -6 211 -13 q 90 16 124 1 l 58 194 l 113 194 l 203 13 l 118 74 q 166 57 144 63 q 206 50 187 51 q 245 48 226 48 q 368 75 325 48 q 410 156 410 101 q 394 210 410 190 q 349 243 377 231 q 289 266 322 256 q 226 286 257 275 q 151 322 185 301 q 97 377 117 342 q 76 469 76 413 q 106 565 76 526 q 189 625 135 604 q 312 645 242 645 z "},"t":{"ha":502,"x_min":33,"x_max":483,"o":"m 241 183 q 271 108 241 131 q 359 84 301 84 q 416 89 385 84 q 483 105 447 94 l 483 63 q 404 17 438 34 q 343 -6 370 1 q 291 -12 316 -12 q 206 5 243 -12 q 148 57 169 22 q 127 142 127 91 l 127 533 l 33 580 l 33 603 q 77 627 57 615 q 114 650 97 638 q 147 676 131 663 q 177 705 162 690 q 208 738 192 720 l 241 738 l 241 610 l 241 183 m 197 553 l 198 631 l 465 631 l 458 553 l 197 553 z "},"u":{"ha":780,"x_min":21,"x_max":749,"o":"m 242 213 q 255 144 242 169 q 298 107 268 118 q 379 95 328 95 q 472 110 426 95 q 542 148 517 125 l 563 120 q 487 53 520 79 q 426 13 454 27 q 371 -8 399 -2 q 310 -14 343 -14 q 173 40 217 -14 q 129 199 129 93 l 129 548 l 21 592 l 21 632 l 252 641 l 242 553 l 242 213 m 558 -12 l 534 114 l 534 548 l 428 592 l 428 632 l 658 641 l 648 553 l 648 120 q 667 107 654 115 q 694 93 679 100 q 724 80 709 85 q 749 71 738 74 l 749 47 l 576 -12 l 558 -12 z "},"v":{"ha":773,"x_min":2,"x_max":747,"o":"m 668 565 l 430 -14 l 363 -14 l 96 556 l 2 590 l 2 631 l 318 631 l 318 590 l 221 560 l 432 108 l 417 108 l 594 564 l 499 590 l 499 631 l 747 631 l 747 590 l 668 565 z "},"w":{"ha":1072,"x_min":9,"x_max":1049,"o":"m 901 564 l 804 590 l 804 631 l 1049 631 l 1049 590 l 971 565 l 797 -14 l 731 -14 l 523 526 l 558 528 l 346 -14 l 279 -14 l 103 556 l 9 590 l 9 631 l 317 631 l 317 590 l 221 560 l 360 101 l 327 101 l 536 645 l 595 645 l 802 109 l 772 109 l 901 564 z "},"x":{"ha":738,"x_min":22,"x_max":722,"o":"m 635 74 l 722 41 l 722 0 l 417 0 l 417 41 l 504 69 l 342 276 l 325 296 l 117 557 l 30 590 l 30 631 l 335 631 l 335 590 l 248 562 l 394 373 l 411 355 l 635 74 m 367 285 l 181 66 l 266 41 l 266 0 l 22 0 l 22 41 l 97 67 l 328 329 l 365 359 l 541 566 l 457 590 l 457 631 l 699 631 l 699 590 l 624 565 l 403 315 l 367 285 z "},"y":{"ha":762,"x_min":11,"x_max":743,"o":"m 446 100 l 376 -22 l 105 556 l 11 590 l 11 631 l 327 631 l 327 590 l 230 560 l 446 100 m 173 -353 q 102 -331 128 -353 q 75 -269 75 -308 q 82 -236 75 -250 q 101 -213 90 -222 q 124 -205 113 -205 q 153 -210 138 -205 q 186 -222 169 -216 q 220 -228 204 -228 q 258 -218 241 -228 q 292 -185 276 -208 q 326 -122 308 -162 l 389 36 l 415 103 l 589 564 l 492 590 l 492 631 l 743 631 l 743 590 l 665 565 l 381 -144 q 319 -268 350 -223 q 253 -333 289 -314 q 173 -353 218 -353 z "},"z":{"ha":629,"x_min":52,"x_max":593,"o":"m 52 0 l 52 27 l 444 600 l 478 563 l 111 563 l 199 613 l 101 433 l 58 433 l 83 645 l 121 645 l 162 631 l 575 631 l 575 604 l 180 30 l 157 69 l 485 69 l 434 24 l 547 208 l 593 208 l 544 0 l 52 0 z "},"à":{"ha":676,"x_min":66,"x_max":676,"o":"m 488 404 l 484 341 q 331 306 390 324 q 241 268 273 288 q 198 225 210 248 q 186 174 186 202 q 215 100 186 125 q 293 74 244 74 q 361 91 331 74 q 411 135 392 108 q 429 196 429 163 l 429 446 q 401 538 429 506 q 303 569 373 569 q 245 564 275 569 q 188 547 215 558 l 229 585 q 220 542 225 563 q 210 506 216 522 q 197 478 205 490 q 168 456 185 462 q 131 450 151 450 q 86 462 102 450 q 70 492 70 474 q 93 540 70 515 q 153 589 115 566 q 241 626 192 612 q 345 641 291 641 q 460 620 417 641 q 523 559 503 599 q 542 463 542 519 l 542 142 q 550 103 542 118 q 571 80 557 88 q 606 73 585 73 q 640 78 622 73 q 676 91 658 83 l 676 49 q 612 3 646 18 q 548 -12 578 -12 q 485 5 511 -12 q 445 56 459 22 q 430 138 431 89 l 435 142 q 399 60 426 96 q 334 6 373 25 q 247 -14 294 -14 q 115 29 165 -14 q 66 151 66 72 q 83 230 66 194 q 146 295 101 265 q 274 352 192 325 q 488 404 357 378 m 362 731 l 304 731 l 87 940 l 87 959 l 246 959 l 362 731 z "},"á":{"ha":676,"x_min":66,"x_max":676,"o":"m 488 404 l 484 341 q 331 306 390 324 q 241 268 273 288 q 198 225 210 248 q 186 174 186 202 q 215 100 186 125 q 293 74 244 74 q 361 91 331 74 q 411 135 392 108 q 429 196 429 163 l 429 446 q 401 538 429 506 q 303 569 373 569 q 245 564 275 569 q 188 547 215 558 l 229 585 q 220 542 225 563 q 210 506 216 522 q 197 478 205 490 q 168 456 185 462 q 131 450 151 450 q 86 462 102 450 q 70 492 70 474 q 93 540 70 515 q 153 589 115 566 q 241 626 192 612 q 345 641 291 641 q 460 620 417 641 q 523 559 503 599 q 542 463 542 519 l 542 142 q 550 103 542 118 q 571 80 557 88 q 606 73 585 73 q 640 78 622 73 q 676 91 658 83 l 676 49 q 612 3 646 18 q 548 -12 578 -12 q 485 5 511 -12 q 445 56 459 22 q 430 138 431 89 l 435 142 q 399 60 426 96 q 334 6 373 25 q 247 -14 294 -14 q 115 29 165 -14 q 66 151 66 72 q 83 230 66 194 q 146 295 101 265 q 274 352 192 325 q 488 404 357 378 m 273 731 l 389 959 l 548 959 l 548 940 l 331 731 l 273 731 z "},"â":{"ha":676,"x_min":66,"x_max":676,"o":"m 488 404 l 484 341 q 331 306 390 324 q 241 268 273 288 q 198 225 210 248 q 186 174 186 202 q 215 100 186 125 q 293 74 244 74 q 361 91 331 74 q 411 135 392 108 q 429 196 429 163 l 429 446 q 401 538 429 506 q 303 569 373 569 q 245 564 275 569 q 188 547 215 558 l 229 585 q 220 542 225 563 q 210 506 216 522 q 197 478 205 490 q 168 456 185 462 q 131 450 151 450 q 86 462 102 450 q 70 492 70 474 q 93 540 70 515 q 153 589 115 566 q 241 626 192 612 q 345 641 291 641 q 460 620 417 641 q 523 559 503 599 q 542 463 542 519 l 542 142 q 550 103 542 118 q 571 80 557 88 q 606 73 585 73 q 640 78 622 73 q 676 91 658 83 l 676 49 q 612 3 646 18 q 548 -12 578 -12 q 485 5 511 -12 q 445 56 459 22 q 430 138 431 89 l 435 142 q 399 60 426 96 q 334 6 373 25 q 247 -14 294 -14 q 115 29 165 -14 q 66 151 66 72 q 83 230 66 194 q 146 295 101 265 q 274 352 192 325 q 488 404 357 378 m 108 731 l 258 959 l 377 959 l 527 731 l 460 731 l 305 876 l 330 876 l 175 731 l 108 731 z "},"ã":{"ha":676,"x_min":66,"x_max":676,"o":"m 488 404 l 484 341 q 331 306 390 324 q 241 268 273 288 q 198 225 210 248 q 186 174 186 202 q 215 100 186 125 q 293 74 244 74 q 361 91 331 74 q 411 135 392 108 q 429 196 429 163 l 429 446 q 401 538 429 506 q 303 569 373 569 q 245 564 275 569 q 188 547 215 558 l 229 585 q 220 542 225 563 q 210 506 216 522 q 197 478 205 490 q 168 456 185 462 q 131 450 151 450 q 86 462 102 450 q 70 492 70 474 q 93 540 70 515 q 153 589 115 566 q 241 626 192 612 q 345 641 291 641 q 460 620 417 641 q 523 559 503 599 q 542 463 542 519 l 542 142 q 550 103 542 118 q 571 80 557 88 q 606 73 585 73 q 640 78 622 73 q 676 91 658 83 l 676 49 q 612 3 646 18 q 548 -12 578 -12 q 485 5 511 -12 q 445 56 459 22 q 430 138 431 89 l 435 142 q 399 60 426 96 q 334 6 373 25 q 247 -14 294 -14 q 115 29 165 -14 q 66 151 66 72 q 83 230 66 194 q 146 295 101 265 q 274 352 192 325 q 488 404 357 378 m 518 950 q 493 822 506 869 q 458 755 479 775 q 401 734 436 734 q 346 752 370 734 q 302 794 322 770 q 264 836 283 818 q 226 854 246 854 q 206 845 215 854 q 189 812 197 837 q 172 740 181 788 l 114 740 q 139 868 126 822 q 175 935 153 915 q 231 956 197 956 q 286 938 262 956 q 330 896 310 919 q 368 854 349 872 q 406 836 387 836 q 426 844 417 836 q 443 877 435 853 q 460 950 451 902 l 518 950 z "},"ä":{"ha":676,"x_min":66,"x_max":676,"o":"m 488 404 l 484 341 q 331 306 390 324 q 241 268 273 288 q 198 225 210 248 q 186 174 186 202 q 215 100 186 125 q 293 74 244 74 q 361 91 331 74 q 411 135 392 108 q 429 196 429 163 l 429 446 q 401 538 429 506 q 303 569 373 569 q 245 564 275 569 q 188 547 215 558 l 229 585 q 220 542 225 563 q 210 506 216 522 q 197 478 205 490 q 168 456 185 462 q 131 450 151 450 q 86 462 102 450 q 70 492 70 474 q 93 540 70 515 q 153 589 115 566 q 241 626 192 612 q 345 641 291 641 q 460 620 417 641 q 523 559 503 599 q 542 463 542 519 l 542 142 q 550 103 542 118 q 571 80 557 88 q 606 73 585 73 q 640 78 622 73 q 676 91 658 83 l 676 49 q 612 3 646 18 q 548 -12 578 -12 q 485 5 511 -12 q 445 56 459 22 q 430 138 431 89 l 435 142 q 399 60 426 96 q 334 6 373 25 q 247 -14 294 -14 q 115 29 165 -14 q 66 151 66 72 q 83 230 66 194 q 146 295 101 265 q 274 352 192 325 q 488 404 357 378 m 182 768 q 122 790 144 768 q 101 846 101 812 q 122 901 101 880 q 182 922 144 922 q 241 901 219 922 q 263 846 263 880 q 241 790 263 812 q 182 768 219 768 m 453 768 q 394 790 416 768 q 372 846 372 812 q 394 901 372 880 q 453 922 416 922 q 513 901 491 922 q 534 846 534 880 q 513 790 534 812 q 453 768 491 768 z "},"å":{"ha":676,"x_min":66,"x_max":676,"o":"m 488 404 l 484 341 q 331 306 390 324 q 241 268 273 288 q 198 225 210 248 q 186 174 186 202 q 215 100 186 125 q 293 74 244 74 q 361 91 331 74 q 411 135 392 108 q 429 196 429 163 l 429 446 q 401 538 429 506 q 303 569 373 569 q 245 564 275 569 q 188 547 215 558 l 229 585 q 220 542 225 563 q 210 506 216 522 q 197 478 205 490 q 168 456 185 462 q 131 450 151 450 q 86 462 102 450 q 70 492 70 474 q 93 540 70 515 q 153 589 115 566 q 241 626 192 612 q 345 641 291 641 q 460 620 417 641 q 523 559 503 599 q 542 463 542 519 l 542 142 q 550 103 542 118 q 571 80 557 88 q 606 73 585 73 q 640 78 622 73 q 676 91 658 83 l 676 49 q 612 3 646 18 q 548 -12 578 -12 q 485 5 511 -12 q 445 56 459 22 q 430 138 431 89 l 435 142 q 399 60 426 96 q 334 6 373 25 q 247 -14 294 -14 q 115 29 165 -14 q 66 151 66 72 q 83 230 66 194 q 146 295 101 265 q 274 352 192 325 q 488 404 357 378 m 317 969 q 408 935 373 969 q 442 846 442 901 q 408 757 442 791 q 317 722 373 722 q 227 757 262 722 q 192 846 192 791 q 227 935 192 901 q 317 969 262 969 m 317 766 q 374 788 353 766 q 396 846 396 810 q 374 904 396 882 q 317 926 353 926 q 260 904 281 926 q 238 846 238 882 q 260 788 238 810 q 317 766 281 766 z "},"ā":{"ha":676,"x_min":66,"x_max":676,"o":"m 488 404 l 484 341 q 331 306 390 324 q 241 268 273 288 q 198 225 210 248 q 186 174 186 202 q 215 100 186 125 q 293 74 244 74 q 361 91 331 74 q 411 135 392 108 q 429 196 429 163 l 429 446 q 401 538 429 506 q 303 569 373 569 q 245 564 275 569 q 188 547 215 558 l 229 585 q 220 542 225 563 q 210 506 216 522 q 197 478 205 490 q 168 456 185 462 q 131 450 151 450 q 86 462 102 450 q 70 492 70 474 q 93 540 70 515 q 153 589 115 566 q 241 626 192 612 q 345 641 291 641 q 460 620 417 641 q 523 559 503 599 q 542 463 542 519 l 542 142 q 550 103 542 118 q 571 80 557 88 q 606 73 585 73 q 640 78 622 73 q 676 91 658 83 l 676 49 q 612 3 646 18 q 548 -12 578 -12 q 485 5 511 -12 q 445 56 459 22 q 430 138 431 89 l 435 142 q 399 60 426 96 q 334 6 373 25 q 247 -14 294 -14 q 115 29 165 -14 q 66 151 66 72 q 83 230 66 194 q 146 295 101 265 q 274 352 192 325 q 488 404 357 378 m 130 806 l 130 885 l 505 885 l 505 806 l 130 806 z "},"ă":{"ha":676,"x_min":66,"x_max":676,"o":"m 488 404 l 484 341 q 331 306 390 324 q 241 268 273 288 q 198 225 210 248 q 186 174 186 202 q 215 100 186 125 q 293 74 244 74 q 361 91 331 74 q 411 135 392 108 q 429 196 429 163 l 429 446 q 401 538 429 506 q 303 569 373 569 q 245 564 275 569 q 188 547 215 558 l 229 585 q 220 542 225 563 q 210 506 216 522 q 197 478 205 490 q 168 456 185 462 q 131 450 151 450 q 86 462 102 450 q 70 492 70 474 q 93 540 70 515 q 153 589 115 566 q 241 626 192 612 q 345 641 291 641 q 460 620 417 641 q 523 559 503 599 q 542 463 542 519 l 542 142 q 550 103 542 118 q 571 80 557 88 q 606 73 585 73 q 640 78 622 73 q 676 91 658 83 l 676 49 q 612 3 646 18 q 548 -12 578 -12 q 485 5 511 -12 q 445 56 459 22 q 430 138 431 89 l 435 142 q 399 60 426 96 q 334 6 373 25 q 247 -14 294 -14 q 115 29 165 -14 q 66 151 66 72 q 83 230 66 194 q 146 295 101 265 q 274 352 192 325 q 488 404 357 378 m 317 821 q 386 835 357 821 q 435 880 415 849 q 465 959 455 910 l 519 959 q 478 818 503 869 q 415 746 453 767 q 317 725 376 725 q 221 746 260 725 q 157 818 182 767 q 116 959 132 869 l 170 959 q 200 880 181 910 q 249 835 219 849 q 317 821 278 821 z "},"ą":{"ha":676,"x_min":66,"x_max":692,"o":"m 676 49 l 578 -74 q 538 -131 553 -106 q 518 -174 524 -155 q 513 -210 513 -194 q 532 -262 513 -244 q 581 -281 551 -281 q 624 -271 602 -281 q 678 -232 646 -261 l 692 -261 q 642 -315 666 -294 q 592 -344 617 -335 q 538 -353 567 -353 q 454 -322 485 -353 q 422 -240 422 -292 q 431 -192 422 -216 q 459 -138 439 -167 q 517 -70 480 -109 l 594 9 l 601 -1 q 574 -9 588 -6 q 548 -12 560 -12 q 485 5 511 -12 q 445 56 459 22 q 430 138 431 89 l 435 142 q 399 60 426 96 q 334 6 373 25 q 247 -14 294 -14 q 115 29 165 -14 q 66 151 66 72 q 83 230 66 194 q 146 295 101 265 q 274 352 192 325 q 488 404 357 378 l 484 341 q 331 306 390 324 q 241 268 273 288 q 198 225 210 248 q 186 174 186 202 q 215 100 186 125 q 293 74 244 74 q 361 91 331 74 q 411 135 392 108 q 429 196 429 163 l 429 446 q 401 538 429 506 q 303 569 373 569 q 245 564 275 569 q 188 547 215 558 l 229 585 q 216 524 223 551 q 197 478 209 496 q 168 456 185 462 q 131 450 151 450 q 86 462 102 450 q 70 492 70 474 q 93 540 70 515 q 153 589 115 566 q 241 626 192 612 q 345 641 291 641 q 460 620 417 641 q 523 559 503 599 q 542 463 542 519 l 542 142 q 550 103 542 118 q 571 80 557 88 q 606 73 585 73 q 640 78 622 73 q 676 91 658 83 l 676 49 z "},"ǻ":{"ha":676,"x_min":66,"x_max":676,"o":"m 488 404 l 484 341 q 331 306 390 324 q 241 268 273 288 q 198 225 210 248 q 186 174 186 202 q 215 100 186 125 q 293 74 244 74 q 361 91 331 74 q 411 135 392 108 q 429 196 429 163 l 429 446 q 401 538 429 506 q 303 569 373 569 q 245 564 275 569 q 188 547 215 558 l 229 585 q 220 542 225 563 q 210 506 216 522 q 197 478 205 490 q 168 456 185 462 q 131 450 151 450 q 86 462 102 450 q 70 492 70 474 q 93 540 70 515 q 153 589 115 566 q 241 626 192 612 q 345 641 291 641 q 460 620 417 641 q 523 559 503 599 q 542 463 542 519 l 542 142 q 550 103 542 118 q 571 80 557 88 q 606 73 585 73 q 640 78 622 73 q 676 91 658 83 l 676 49 q 612 3 646 18 q 548 -12 578 -12 q 485 5 511 -12 q 445 56 459 22 q 430 138 431 89 l 435 142 q 399 60 426 96 q 334 6 373 25 q 247 -14 294 -14 q 115 29 165 -14 q 66 151 66 72 q 83 230 66 194 q 146 295 101 265 q 274 352 192 325 q 488 404 357 378 m 317 969 q 408 935 373 969 q 442 846 442 901 q 408 757 442 791 q 317 722 373 722 q 227 757 262 722 q 192 846 192 791 q 227 935 192 901 q 317 969 262 969 m 317 766 q 374 788 353 766 q 396 846 396 810 q 374 904 396 882 q 317 926 353 926 q 260 904 281 926 q 238 846 238 882 q 260 788 238 810 q 317 766 281 766 m 273 1058 l 389 1287 l 548 1287 l 548 1268 l 331 1058 l 273 1058 z "},"ȁ":{"ha":676,"x_min":-2,"x_max":676,"o":"m 488 404 l 484 341 q 331 306 390 324 q 241 268 273 288 q 198 225 210 248 q 186 174 186 202 q 215 100 186 125 q 293 74 244 74 q 361 91 331 74 q 411 135 392 108 q 429 196 429 163 l 429 446 q 401 538 429 506 q 303 569 373 569 q 245 564 275 569 q 188 547 215 558 l 229 585 q 220 542 225 563 q 210 506 216 522 q 197 478 205 490 q 168 456 185 462 q 131 450 151 450 q 86 462 102 450 q 70 492 70 474 q 93 540 70 515 q 153 589 115 566 q 241 626 192 612 q 345 641 291 641 q 460 620 417 641 q 523 559 503 599 q 542 463 542 519 l 542 142 q 550 103 542 118 q 571 80 557 88 q 606 73 585 73 q 640 78 622 73 q 676 91 658 83 l 676 49 q 612 3 646 18 q 548 -12 578 -12 q 485 5 511 -12 q 445 56 459 22 q 430 138 431 89 l 435 142 q 399 60 426 96 q 334 6 373 25 q 247 -14 294 -14 q 115 29 165 -14 q 66 151 66 72 q 83 230 66 194 q 146 295 101 265 q 274 352 192 325 q 488 404 357 378 m 265 731 l 207 731 l -2 940 l -2 959 l 153 959 l 265 731 m 449 731 l 397 731 l 249 941 l 249 959 l 393 959 l 449 731 z "},"ȃ":{"ha":676,"x_min":66,"x_max":676,"o":"m 488 404 l 484 341 q 331 306 390 324 q 241 268 273 288 q 198 225 210 248 q 186 174 186 202 q 215 100 186 125 q 293 74 244 74 q 361 91 331 74 q 411 135 392 108 q 429 196 429 163 l 429 446 q 401 538 429 506 q 303 569 373 569 q 245 564 275 569 q 188 547 215 558 l 229 585 q 220 542 225 563 q 210 506 216 522 q 197 478 205 490 q 168 456 185 462 q 131 450 151 450 q 86 462 102 450 q 70 492 70 474 q 93 540 70 515 q 153 589 115 566 q 241 626 192 612 q 345 641 291 641 q 460 620 417 641 q 523 559 503 599 q 542 463 542 519 l 542 142 q 550 103 542 118 q 571 80 557 88 q 606 73 585 73 q 640 78 622 73 q 676 91 658 83 l 676 49 q 612 3 646 18 q 548 -12 578 -12 q 485 5 511 -12 q 445 56 459 22 q 430 138 431 89 l 435 142 q 399 60 426 96 q 334 6 373 25 q 247 -14 294 -14 q 115 29 165 -14 q 66 151 66 72 q 83 230 66 194 q 146 295 101 265 q 274 352 192 325 q 488 404 357 378 m 317 869 q 249 855 278 869 q 200 810 219 841 q 170 731 181 780 l 116 731 q 157 872 132 821 q 221 944 182 922 q 317 965 260 965 q 415 944 376 965 q 478 872 453 922 q 519 731 503 821 l 465 731 q 435 810 455 780 q 386 855 415 841 q 317 869 357 869 z "},"ạ":{"ha":676,"x_min":66,"x_max":676,"o":"m 488 404 l 484 341 q 331 306 390 324 q 241 268 273 288 q 198 225 210 248 q 186 174 186 202 q 215 100 186 125 q 293 74 244 74 q 361 91 331 74 q 411 135 392 108 q 429 196 429 163 l 429 446 q 401 538 429 506 q 303 569 373 569 q 245 564 275 569 q 188 547 215 558 l 229 585 q 220 542 225 563 q 210 506 216 522 q 197 478 205 490 q 168 456 185 462 q 131 450 151 450 q 86 462 102 450 q 70 492 70 474 q 93 540 70 515 q 153 589 115 566 q 241 626 192 612 q 345 641 291 641 q 460 620 417 641 q 523 559 503 599 q 542 463 542 519 l 542 142 q 550 103 542 118 q 571 80 557 88 q 606 73 585 73 q 640 78 622 73 q 676 91 658 83 l 676 49 q 612 3 646 18 q 548 -12 578 -12 q 485 5 511 -12 q 445 56 459 22 q 430 138 431 89 l 435 142 q 399 60 426 96 q 334 6 373 25 q 247 -14 294 -14 q 115 29 165 -14 q 66 151 66 72 q 83 230 66 194 q 146 295 101 265 q 274 352 192 325 q 488 404 357 378 m 350 -250 q 284 -227 308 -250 q 260 -168 260 -205 q 284 -109 260 -131 q 350 -87 308 -87 q 416 -109 392 -87 q 440 -168 440 -131 q 416 -227 440 -205 q 350 -250 392 -250 z "},"ả":{"ha":676,"x_min":66,"x_max":676,"o":"m 488 404 l 484 341 q 331 306 390 324 q 241 268 273 288 q 198 225 210 248 q 186 174 186 202 q 215 100 186 125 q 293 74 244 74 q 361 91 331 74 q 411 135 392 108 q 429 196 429 163 l 429 446 q 401 538 429 506 q 303 569 373 569 q 245 564 275 569 q 188 547 215 558 l 229 585 q 220 542 225 563 q 210 506 216 522 q 197 478 205 490 q 168 456 185 462 q 131 450 151 450 q 86 462 102 450 q 70 492 70 474 q 93 540 70 515 q 153 589 115 566 q 241 626 192 612 q 345 641 291 641 q 460 620 417 641 q 523 559 503 599 q 542 463 542 519 l 542 142 q 550 103 542 118 q 571 80 557 88 q 606 73 585 73 q 640 78 622 73 q 676 91 658 83 l 676 49 q 612 3 646 18 q 548 -12 578 -12 q 485 5 511 -12 q 445 56 459 22 q 430 138 431 89 l 435 142 q 399 60 426 96 q 334 6 373 25 q 247 -14 294 -14 q 115 29 165 -14 q 66 151 66 72 q 83 230 66 194 q 146 295 101 265 q 274 352 192 325 q 488 404 357 378 m 199 894 l 215 988 q 334 972 288 983 q 405 946 381 962 q 439 910 429 931 q 448 865 448 890 q 433 807 448 834 q 379 757 419 780 q 263 718 340 735 l 252 761 q 318 783 296 772 q 348 806 340 794 q 356 833 356 819 q 345 862 356 849 q 302 882 335 874 q 199 894 269 890 z "},"ấ":{"ha":676,"x_min":66,"x_max":721,"o":"m 488 404 l 484 341 q 331 306 390 324 q 241 268 273 288 q 198 225 210 248 q 186 174 186 202 q 215 100 186 125 q 293 74 244 74 q 361 91 331 74 q 411 135 392 108 q 429 196 429 163 l 429 446 q 401 538 429 506 q 303 569 373 569 q 245 564 275 569 q 188 547 215 558 l 229 585 q 220 542 225 563 q 210 506 216 522 q 197 478 205 490 q 168 456 185 462 q 131 450 151 450 q 86 462 102 450 q 70 492 70 474 q 93 540 70 515 q 153 589 115 566 q 241 626 192 612 q 345 641 291 641 q 460 620 417 641 q 523 559 503 599 q 542 463 542 519 l 542 142 q 550 103 542 118 q 571 80 557 88 q 606 73 585 73 q 640 78 622 73 q 676 91 658 83 l 676 49 q 612 3 646 18 q 548 -12 578 -12 q 485 5 511 -12 q 445 56 459 22 q 430 138 431 89 l 435 142 q 399 60 426 96 q 334 6 373 25 q 247 -14 294 -14 q 115 29 165 -14 q 66 151 66 72 q 83 230 66 194 q 146 295 101 265 q 274 352 192 325 q 488 404 357 378 m 490 869 l 565 1056 l 721 1056 l 721 1038 l 543 869 l 490 869 m 305 876 l 330 876 l 175 731 l 108 731 l 258 959 l 377 959 l 527 731 l 460 731 l 305 876 z "},"ầ":{"ha":676,"x_min":-86,"x_max":676,"o":"m 488 404 l 484 341 q 331 306 390 324 q 241 268 273 288 q 198 225 210 248 q 186 174 186 202 q 215 100 186 125 q 293 74 244 74 q 361 91 331 74 q 411 135 392 108 q 429 196 429 163 l 429 446 q 401 538 429 506 q 303 569 373 569 q 245 564 275 569 q 188 547 215 558 l 229 585 q 220 542 225 563 q 210 506 216 522 q 197 478 205 490 q 168 456 185 462 q 131 450 151 450 q 86 462 102 450 q 70 492 70 474 q 93 540 70 515 q 153 589 115 566 q 241 626 192 612 q 345 641 291 641 q 460 620 417 641 q 523 559 503 599 q 542 463 542 519 l 542 142 q 550 103 542 118 q 571 80 557 88 q 606 73 585 73 q 640 78 622 73 q 676 91 658 83 l 676 49 q 612 3 646 18 q 548 -12 578 -12 q 485 5 511 -12 q 445 56 459 22 q 430 138 431 89 l 435 142 q 399 60 426 96 q 334 6 373 25 q 247 -14 294 -14 q 115 29 165 -14 q 66 151 66 72 q 83 230 66 194 q 146 295 101 265 q 274 352 192 325 q 488 404 357 378 m 145 869 l 92 869 l -86 1038 l -86 1056 l 69 1056 l 145 869 m 330 876 l 175 731 l 108 731 l 258 959 l 377 959 l 527 731 l 460 731 l 305 876 l 330 876 z "},"ẩ":{"ha":676,"x_min":66,"x_max":678,"o":"m 488 404 l 484 341 q 331 306 390 324 q 241 268 273 288 q 198 225 210 248 q 186 174 186 202 q 215 100 186 125 q 293 74 244 74 q 361 91 331 74 q 411 135 392 108 q 429 196 429 163 l 429 446 q 401 538 429 506 q 303 569 373 569 q 245 564 275 569 q 188 547 215 558 l 229 585 q 220 542 225 563 q 210 506 216 522 q 197 478 205 490 q 168 456 185 462 q 131 450 151 450 q 86 462 102 450 q 70 492 70 474 q 93 540 70 515 q 153 589 115 566 q 241 626 192 612 q 345 641 291 641 q 460 620 417 641 q 523 559 503 599 q 542 463 542 519 l 542 142 q 550 103 542 118 q 571 80 557 88 q 606 73 585 73 q 640 78 622 73 q 676 91 658 83 l 676 49 q 612 3 646 18 q 548 -12 578 -12 q 485 5 511 -12 q 445 56 459 22 q 430 138 431 89 l 435 142 q 399 60 426 96 q 334 6 373 25 q 247 -14 294 -14 q 115 29 165 -14 q 66 151 66 72 q 83 230 66 194 q 146 295 101 265 q 274 352 192 325 q 488 404 357 378 m 330 876 l 175 731 l 108 731 l 258 959 l 377 959 l 527 731 l 460 731 l 305 876 l 330 876 m 490 909 q 567 942 549 924 q 586 983 586 960 q 576 1011 586 999 q 534 1033 567 1024 q 433 1045 502 1042 l 450 1139 q 567 1123 522 1134 q 636 1097 612 1113 q 669 1060 660 1081 q 678 1015 678 1040 q 664 956 678 983 q 613 906 651 928 q 501 866 576 883 l 490 909 z "},"ẫ":{"ha":676,"x_min":66,"x_max":676,"o":"m 488 404 l 484 341 q 331 306 390 324 q 241 268 273 288 q 198 225 210 248 q 186 174 186 202 q 215 100 186 125 q 293 74 244 74 q 361 91 331 74 q 411 135 392 108 q 429 196 429 163 l 429 446 q 401 538 429 506 q 303 569 373 569 q 245 564 275 569 q 188 547 215 558 l 229 585 q 220 542 225 563 q 210 506 216 522 q 197 478 205 490 q 168 456 185 462 q 131 450 151 450 q 86 462 102 450 q 70 492 70 474 q 93 540 70 515 q 153 589 115 566 q 241 626 192 612 q 345 641 291 641 q 460 620 417 641 q 523 559 503 599 q 542 463 542 519 l 542 142 q 550 103 542 118 q 571 80 557 88 q 606 73 585 73 q 640 78 622 73 q 676 91 658 83 l 676 49 q 612 3 646 18 q 548 -12 578 -12 q 485 5 511 -12 q 445 56 459 22 q 430 138 431 89 l 435 142 q 399 60 426 96 q 334 6 373 25 q 247 -14 294 -14 q 115 29 165 -14 q 66 151 66 72 q 83 230 66 194 q 146 295 101 265 q 274 352 192 325 q 488 404 357 378 m 330 794 l 181 703 l 115 703 l 260 868 l 375 868 l 520 703 l 453 703 l 304 794 l 330 794 m 183 912 l 129 912 q 151 998 139 966 q 182 1043 163 1029 q 232 1057 201 1057 q 277 1048 254 1057 q 324 1026 301 1039 q 367 1005 347 1014 q 402 996 387 996 q 434 1008 422 996 q 452 1053 445 1019 l 506 1053 q 484 968 496 1000 q 453 922 472 936 q 403 908 435 908 q 357 918 381 908 q 311 939 334 927 q 268 960 288 951 q 233 969 248 969 q 202 958 213 969 q 183 912 190 946 z "},"ậ":{"ha":676,"x_min":66,"x_max":676,"o":"m 488 404 l 484 341 q 331 306 390 324 q 241 268 273 288 q 198 225 210 248 q 186 174 186 202 q 215 100 186 125 q 293 74 244 74 q 361 91 331 74 q 411 135 392 108 q 429 196 429 163 l 429 446 q 401 538 429 506 q 303 569 373 569 q 245 564 275 569 q 188 547 215 558 l 229 585 q 220 542 225 563 q 210 506 216 522 q 197 478 205 490 q 168 456 185 462 q 131 450 151 450 q 86 462 102 450 q 70 492 70 474 q 93 540 70 515 q 153 589 115 566 q 241 626 192 612 q 345 641 291 641 q 460 620 417 641 q 523 559 503 599 q 542 463 542 519 l 542 142 q 550 103 542 118 q 571 80 557 88 q 606 73 585 73 q 640 78 622 73 q 676 91 658 83 l 676 49 q 612 3 646 18 q 548 -12 578 -12 q 485 5 511 -12 q 445 56 459 22 q 430 138 431 89 l 435 142 q 399 60 426 96 q 334 6 373 25 q 247 -14 294 -14 q 115 29 165 -14 q 66 151 66 72 q 83 230 66 194 q 146 295 101 265 q 274 352 192 325 q 488 404 357 378 m 108 731 l 258 959 l 377 959 l 527 731 l 460 731 l 305 876 l 330 876 l 175 731 l 108 731 m 350 -250 q 284 -227 308 -250 q 260 -168 260 -205 q 284 -109 260 -131 q 350 -87 308 -87 q 416 -109 392 -87 q 440 -168 440 -131 q 416 -227 440 -205 q 350 -250 392 -250 z "},"ắ":{"ha":676,"x_min":66,"x_max":676,"o":"m 488 404 l 484 341 q 331 306 390 324 q 241 268 273 288 q 198 225 210 248 q 186 174 186 202 q 215 100 186 125 q 293 74 244 74 q 361 91 331 74 q 411 135 392 108 q 429 196 429 163 l 429 446 q 401 538 429 506 q 303 569 373 569 q 245 564 275 569 q 188 547 215 558 l 229 585 q 220 542 225 563 q 210 506 216 522 q 197 478 205 490 q 168 456 185 462 q 131 450 151 450 q 86 462 102 450 q 70 492 70 474 q 93 540 70 515 q 153 589 115 566 q 241 626 192 612 q 345 641 291 641 q 460 620 417 641 q 523 559 503 599 q 542 463 542 519 l 542 142 q 550 103 542 118 q 571 80 557 88 q 606 73 585 73 q 640 78 622 73 q 676 91 658 83 l 676 49 q 612 3 646 18 q 548 -12 578 -12 q 485 5 511 -12 q 445 56 459 22 q 430 138 431 89 l 435 142 q 399 60 426 96 q 334 6 373 25 q 247 -14 294 -14 q 115 29 165 -14 q 66 151 66 72 q 83 230 66 194 q 146 295 101 265 q 274 352 192 325 q 488 404 357 378 m 290 855 l 365 1053 l 509 1053 l 509 1038 l 339 855 l 290 855 m 317 783 q 407 801 375 783 q 453 867 440 819 l 506 867 q 467 760 491 797 q 408 710 444 724 q 317 697 372 697 q 227 710 264 697 q 167 760 191 724 q 128 867 144 797 l 181 867 q 227 802 195 821 q 317 783 260 783 z "},"ằ":{"ha":676,"x_min":66,"x_max":676,"o":"m 488 404 l 484 341 q 331 306 390 324 q 241 268 273 288 q 198 225 210 248 q 186 174 186 202 q 215 100 186 125 q 293 74 244 74 q 361 91 331 74 q 411 135 392 108 q 429 196 429 163 l 429 446 q 401 538 429 506 q 303 569 373 569 q 245 564 275 569 q 188 547 215 558 l 229 585 q 220 542 225 563 q 210 506 216 522 q 197 478 205 490 q 168 456 185 462 q 131 450 151 450 q 86 462 102 450 q 70 492 70 474 q 93 540 70 515 q 153 589 115 566 q 241 626 192 612 q 345 641 291 641 q 460 620 417 641 q 523 559 503 599 q 542 463 542 519 l 542 142 q 550 103 542 118 q 571 80 557 88 q 606 73 585 73 q 640 78 622 73 q 676 91 658 83 l 676 49 q 612 3 646 18 q 548 -12 578 -12 q 485 5 511 -12 q 445 56 459 22 q 430 138 431 89 l 435 142 q 399 60 426 96 q 334 6 373 25 q 247 -14 294 -14 q 115 29 165 -14 q 66 151 66 72 q 83 230 66 194 q 146 295 101 265 q 274 352 192 325 q 488 404 357 378 m 344 855 l 296 855 l 126 1038 l 126 1053 l 270 1053 l 344 855 m 317 783 q 407 802 375 783 q 453 867 440 821 l 506 867 q 467 760 491 797 q 408 710 444 724 q 317 697 372 697 q 227 710 264 697 q 167 760 191 724 q 128 867 144 797 l 181 867 q 227 801 195 819 q 317 783 260 783 z "},"ẳ":{"ha":676,"x_min":66,"x_max":676,"o":"m 488 404 l 484 341 q 331 306 390 324 q 241 268 273 288 q 198 225 210 248 q 186 174 186 202 q 215 100 186 125 q 293 74 244 74 q 361 91 331 74 q 411 135 392 108 q 429 196 429 163 l 429 446 q 401 538 429 506 q 303 569 373 569 q 245 564 275 569 q 188 547 215 558 l 229 585 q 220 542 225 563 q 210 506 216 522 q 197 478 205 490 q 168 456 185 462 q 131 450 151 450 q 86 462 102 450 q 70 492 70 474 q 93 540 70 515 q 153 589 115 566 q 241 626 192 612 q 345 641 291 641 q 460 620 417 641 q 523 559 503 599 q 542 463 542 519 l 542 142 q 550 103 542 118 q 571 80 557 88 q 606 73 585 73 q 640 78 622 73 q 676 91 658 83 l 676 49 q 612 3 646 18 q 548 -12 578 -12 q 485 5 511 -12 q 445 56 459 22 q 430 138 431 89 l 435 142 q 399 60 426 96 q 334 6 373 25 q 247 -14 294 -14 q 115 29 165 -14 q 66 151 66 72 q 83 230 66 194 q 146 295 101 265 q 274 352 192 325 q 488 404 357 378 m 283 853 l 273 898 q 347 925 330 910 q 364 956 364 939 q 355 980 364 969 q 318 997 347 990 q 229 1006 289 1003 l 243 1090 q 370 1070 326 1085 q 431 1032 415 1055 q 448 981 448 1010 q 435 929 448 953 q 387 886 422 905 q 283 853 351 867 m 317 783 q 407 802 375 783 q 453 867 440 821 l 506 867 q 467 760 491 797 q 408 710 444 724 q 317 697 372 697 q 227 710 264 697 q 167 760 191 724 q 128 867 144 797 l 181 867 q 227 801 195 819 q 317 783 260 783 z "},"ẵ":{"ha":676,"x_min":66,"x_max":676,"o":"m 488 404 l 484 341 q 331 306 390 324 q 241 268 273 288 q 198 225 210 248 q 186 174 186 202 q 215 100 186 125 q 293 74 244 74 q 361 91 331 74 q 411 135 392 108 q 429 196 429 163 l 429 446 q 401 538 429 506 q 303 569 373 569 q 245 564 275 569 q 188 547 215 558 l 229 585 q 220 542 225 563 q 210 506 216 522 q 197 478 205 490 q 168 456 185 462 q 131 450 151 450 q 86 462 102 450 q 70 492 70 474 q 93 540 70 515 q 153 589 115 566 q 241 626 192 612 q 345 641 291 641 q 460 620 417 641 q 523 559 503 599 q 542 463 542 519 l 542 142 q 550 103 542 118 q 571 80 557 88 q 606 73 585 73 q 640 78 622 73 q 676 91 658 83 l 676 49 q 612 3 646 18 q 548 -12 578 -12 q 485 5 511 -12 q 445 56 459 22 q 430 138 431 89 l 435 142 q 399 60 426 96 q 334 6 373 25 q 247 -14 294 -14 q 115 29 165 -14 q 66 151 66 72 q 83 230 66 194 q 146 295 101 265 q 274 352 192 325 q 488 404 357 378 m 183 912 l 129 912 q 151 998 139 966 q 182 1043 163 1029 q 232 1057 201 1057 q 278 1048 254 1057 q 327 1028 303 1040 q 371 1008 351 1017 q 405 999 391 999 q 434 1011 423 999 q 452 1053 445 1022 l 506 1053 q 484 968 496 1000 q 453 922 472 936 q 403 908 435 908 q 356 917 381 908 q 308 938 332 926 q 264 957 284 949 q 230 966 244 966 q 201 955 212 966 q 183 912 190 943 m 317 783 q 407 802 375 783 q 453 867 440 821 l 506 867 q 467 760 491 797 q 408 710 444 724 q 317 697 372 697 q 227 710 264 697 q 167 760 191 724 q 128 867 144 797 l 181 867 q 227 801 195 819 q 317 783 260 783 z "},"ặ":{"ha":676,"x_min":66,"x_max":676,"o":"m 488 404 l 484 341 q 331 306 390 324 q 241 268 273 288 q 198 225 210 248 q 186 174 186 202 q 215 100 186 125 q 293 74 244 74 q 361 91 331 74 q 411 135 392 108 q 429 196 429 163 l 429 446 q 401 538 429 506 q 303 569 373 569 q 245 564 275 569 q 188 547 215 558 l 229 585 q 220 542 225 563 q 210 506 216 522 q 197 478 205 490 q 168 456 185 462 q 131 450 151 450 q 86 462 102 450 q 70 492 70 474 q 93 540 70 515 q 153 589 115 566 q 241 626 192 612 q 345 641 291 641 q 460 620 417 641 q 523 559 503 599 q 542 463 542 519 l 542 142 q 550 103 542 118 q 571 80 557 88 q 606 73 585 73 q 640 78 622 73 q 676 91 658 83 l 676 49 q 612 3 646 18 q 548 -12 578 -12 q 485 5 511 -12 q 445 56 459 22 q 430 138 431 89 l 435 142 q 399 60 426 96 q 334 6 373 25 q 247 -14 294 -14 q 115 29 165 -14 q 66 151 66 72 q 83 230 66 194 q 146 295 101 265 q 274 352 192 325 q 488 404 357 378 m 317 821 q 386 835 357 821 q 435 880 415 849 q 465 959 455 910 l 519 959 q 478 818 503 869 q 415 746 453 767 q 317 725 376 725 q 221 746 260 725 q 157 818 182 767 q 116 959 132 869 l 170 959 q 200 880 181 910 q 249 835 219 849 q 317 821 278 821 m 350 -250 q 284 -227 308 -250 q 260 -168 260 -205 q 284 -109 260 -131 q 350 -87 308 -87 q 416 -109 392 -87 q 440 -168 440 -131 q 416 -227 440 -205 q 350 -250 392 -250 z "},"æ":{"ha":1040,"x_min":65,"x_max":984,"o":"m 317 569 q 251 565 285 569 q 187 547 217 560 l 228 585 q 220 542 224 563 q 210 506 215 522 q 196 478 204 490 q 167 456 185 462 q 129 450 150 450 q 85 462 101 450 q 69 492 69 474 q 93 540 69 515 q 157 589 117 566 q 249 626 197 612 q 358 641 301 641 q 457 625 419 641 q 515 580 494 610 q 542 508 535 551 l 489 508 q 585 608 522 572 q 726 645 649 645 q 866 609 810 645 q 950 502 921 572 q 983 332 979 433 l 535 332 l 535 394 l 905 406 l 860 394 q 839 493 856 453 q 792 555 822 534 q 717 576 763 576 q 632 550 668 576 q 575 472 595 524 q 556 342 556 419 q 584 200 556 258 q 665 112 612 142 q 794 82 719 82 q 858 89 827 82 q 917 110 888 97 q 972 141 946 123 l 984 103 q 902 38 944 64 q 816 -1 860 11 q 725 -14 772 -14 q 602 11 658 -14 q 507 82 547 36 q 445 192 467 128 l 465 194 q 428 78 458 124 q 353 9 399 32 q 249 -14 308 -14 q 115 29 166 -14 q 65 151 65 72 q 81 226 65 192 q 143 289 97 260 q 274 346 188 319 q 500 401 360 374 l 497 341 q 330 302 392 322 q 236 263 267 283 q 195 220 206 242 q 185 174 185 199 q 215 100 185 125 q 292 74 244 74 q 369 91 335 74 q 423 139 403 108 q 442 216 442 171 l 442 446 q 414 538 442 506 q 317 569 385 569 z "},"ǽ":{"ha":1040,"x_min":65,"x_max":984,"o":"m 317 569 q 251 565 285 569 q 187 547 217 560 l 228 585 q 220 542 224 563 q 210 506 215 522 q 196 478 204 490 q 167 456 185 462 q 129 450 150 450 q 85 462 101 450 q 69 492 69 474 q 93 540 69 515 q 157 589 117 566 q 249 626 197 612 q 358 641 301 641 q 457 625 419 641 q 515 580 494 610 q 542 508 535 551 l 489 508 q 585 608 522 572 q 726 645 649 645 q 866 609 810 645 q 950 502 921 572 q 983 332 979 433 l 535 332 l 535 394 l 905 406 l 860 394 q 839 493 856 453 q 792 555 822 534 q 717 576 763 576 q 632 550 668 576 q 575 472 595 524 q 556 342 556 419 q 584 200 556 258 q 665 112 612 142 q 794 82 719 82 q 858 89 827 82 q 917 110 888 97 q 972 141 946 123 l 984 103 q 902 38 944 64 q 816 -1 860 11 q 725 -14 772 -14 q 602 11 658 -14 q 507 82 547 36 q 445 192 467 128 l 465 194 q 428 78 458 124 q 353 9 399 32 q 249 -14 308 -14 q 115 29 166 -14 q 65 151 65 72 q 81 226 65 192 q 143 289 97 260 q 274 346 188 319 q 500 401 360 374 l 497 341 q 330 302 392 322 q 236 263 267 283 q 195 220 206 242 q 185 174 185 199 q 215 100 185 125 q 292 74 244 74 q 369 91 335 74 q 423 139 403 108 q 442 216 442 171 l 442 446 q 414 538 442 506 q 317 569 385 569 m 480 731 l 596 959 l 755 959 l 755 940 l 538 731 l 480 731 z "},"ç":{"ha":638,"x_min":58,"x_max":592,"o":"m 415 645 q 520 630 482 645 q 576 594 559 615 q 592 552 592 572 q 583 513 592 531 q 557 486 574 496 q 519 476 540 476 q 487 486 503 476 q 455 510 471 496 q 421 539 438 524 q 386 563 404 553 q 350 572 368 572 q 263 548 303 572 q 197 475 222 524 q 172 352 172 426 q 200 207 172 267 q 281 114 228 146 q 408 82 334 82 q 494 97 451 82 q 581 141 538 113 l 592 103 q 515 39 554 65 q 434 -1 476 13 q 349 -14 393 -14 q 198 26 263 -14 q 95 136 132 65 q 58 301 58 207 q 83 439 58 376 q 153 548 107 502 q 265 620 199 594 q 415 645 331 645 m 278 -353 q 201 -336 223 -353 q 178 -294 178 -319 q 190 -267 178 -277 q 217 -256 201 -256 q 244 -267 232 -256 q 271 -290 256 -278 q 309 -301 286 -301 q 362 -285 343 -301 q 381 -239 381 -268 q 367 -201 381 -217 q 319 -174 353 -185 q 223 -155 285 -163 l 223 -142 l 354 28 l 415 28 l 288 -142 l 284 -81 q 390 -111 352 -92 q 442 -155 427 -131 q 457 -209 457 -180 q 433 -286 457 -253 q 368 -335 408 -318 q 278 -353 327 -353 z "},"ć":{"ha":638,"x_min":58,"x_max":592,"o":"m 415 645 q 520 630 482 645 q 576 594 559 615 q 592 552 592 572 q 583 513 592 531 q 557 486 574 496 q 519 476 540 476 q 487 486 503 476 q 455 510 471 496 q 421 539 438 524 q 386 563 404 553 q 350 572 368 572 q 261 548 302 572 q 197 475 221 524 q 172 352 172 426 q 200 207 172 267 q 281 114 228 146 q 408 82 334 82 q 494 97 451 82 q 581 141 538 113 l 592 103 q 515 39 554 65 q 434 -1 476 13 q 349 -14 393 -14 q 198 26 263 -14 q 95 136 132 65 q 58 301 58 207 q 82 439 58 376 q 152 548 106 502 q 264 620 197 594 q 415 645 330 645 m 312 731 l 428 959 l 587 959 l 587 940 l 369 731 l 312 731 z "},"ĉ":{"ha":638,"x_min":58,"x_max":592,"o":"m 415 645 q 520 630 482 645 q 576 594 559 615 q 592 552 592 572 q 583 513 592 531 q 557 486 574 496 q 519 476 540 476 q 487 486 503 476 q 455 510 471 496 q 421 539 438 524 q 386 563 404 553 q 350 572 368 572 q 261 548 302 572 q 197 475 221 524 q 172 352 172 426 q 200 207 172 267 q 281 114 228 146 q 408 82 334 82 q 494 97 451 82 q 581 141 538 113 l 592 103 q 515 39 554 65 q 434 -1 476 13 q 349 -14 393 -14 q 198 26 263 -14 q 95 136 132 65 q 58 301 58 207 q 82 439 58 376 q 152 548 106 502 q 264 620 197 594 q 415 645 330 645 m 147 731 l 297 959 l 416 959 l 566 731 l 499 731 l 344 876 l 369 876 l 214 731 l 147 731 z "},"ċ":{"ha":638,"x_min":58,"x_max":592,"o":"m 415 645 q 520 630 482 645 q 576 594 559 615 q 592 552 592 572 q 583 513 592 531 q 557 486 574 496 q 519 476 540 476 q 487 486 503 476 q 455 510 471 496 q 421 539 438 524 q 386 563 404 553 q 350 572 368 572 q 261 548 302 572 q 197 475 221 524 q 172 352 172 426 q 200 207 172 267 q 281 114 228 146 q 408 82 334 82 q 494 97 451 82 q 581 141 538 113 l 592 103 q 515 39 554 65 q 434 -1 476 13 q 349 -14 393 -14 q 198 26 263 -14 q 95 136 132 65 q 58 301 58 207 q 82 439 58 376 q 152 548 106 502 q 264 620 197 594 q 415 645 330 645 m 356 763 q 291 786 315 763 q 267 846 267 809 q 291 905 267 883 q 356 927 315 927 q 422 905 398 927 q 446 846 446 883 q 422 786 446 809 q 356 763 398 763 z "},"č":{"ha":638,"x_min":58,"x_max":592,"o":"m 415 645 q 520 630 482 645 q 576 594 559 615 q 592 552 592 572 q 583 513 592 531 q 557 486 574 496 q 519 476 540 476 q 487 486 503 476 q 455 510 471 496 q 421 539 438 524 q 386 563 404 553 q 350 572 368 572 q 261 548 302 572 q 197 475 221 524 q 172 352 172 426 q 200 207 172 267 q 281 114 228 146 q 408 82 334 82 q 494 97 451 82 q 581 141 538 113 l 592 103 q 515 39 554 65 q 434 -1 476 13 q 349 -14 393 -14 q 198 26 263 -14 q 95 136 132 65 q 58 301 58 207 q 82 439 58 376 q 152 548 106 502 q 264 620 197 594 q 415 645 330 645 m 369 814 l 344 814 l 499 959 l 566 959 l 416 731 l 297 731 l 147 959 l 214 959 l 369 814 z "},"ď":{"ha":808,"x_min":59,"x_max":944,"o":"m 565 431 q 524 535 565 495 q 397 575 483 575 q 282 544 329 575 q 211 455 235 513 q 187 318 187 397 q 213 185 187 239 q 285 105 238 132 q 396 78 331 78 q 506 95 453 78 q 611 147 559 112 l 611 106 q 511 43 552 67 q 442 7 471 19 q 391 -10 413 -6 q 344 -14 368 -14 q 187 24 251 -14 q 91 129 124 61 q 59 286 59 197 q 86 436 59 369 q 162 549 114 502 q 273 620 210 596 q 408 645 337 645 q 483 639 448 645 q 554 620 518 633 q 631 585 590 607 l 565 547 l 565 868 q 539 885 557 876 q 498 904 520 894 q 456 922 476 914 l 456 949 l 669 1001 l 688 1001 l 678 878 l 678 120 q 697 107 685 115 q 725 93 710 100 q 754 80 740 85 q 780 71 769 74 l 780 47 l 607 -12 l 589 -12 l 565 109 l 565 431 m 770 726 l 805 987 l 944 987 l 944 969 l 826 726 l 770 726 z "},"đ":{"ha":806,"x_min":59,"x_max":810,"o":"m 565 431 q 524 535 565 495 q 397 575 483 575 q 282 544 329 575 q 211 455 235 513 q 187 318 187 397 q 213 185 187 239 q 285 105 238 132 q 396 78 331 78 q 506 95 453 78 q 611 147 559 112 l 611 106 q 511 43 552 67 q 442 7 471 19 q 391 -10 413 -6 q 344 -14 368 -14 q 187 24 251 -14 q 91 129 124 61 q 59 286 59 197 q 86 436 59 369 q 162 549 114 502 q 273 620 210 596 q 408 645 337 645 q 483 639 448 645 q 554 620 518 633 q 631 585 590 607 l 565 547 l 565 876 q 541 891 558 883 q 503 907 524 899 q 463 922 482 915 l 463 949 l 669 1001 l 688 1001 l 678 878 l 678 120 q 697 107 685 115 q 725 93 710 100 q 754 80 740 85 q 780 71 769 74 l 780 47 l 607 -12 l 589 -12 l 565 109 l 565 431 m 369 732 l 369 802 l 810 802 l 810 732 l 369 732 z "},"è":{"ha":672,"x_min":58,"x_max":615,"o":"m 357 645 q 495 610 440 645 q 580 509 550 576 q 615 344 610 442 l 153 344 l 153 407 l 536 418 l 491 394 q 470 493 488 453 q 424 555 453 534 q 349 576 394 576 q 256 550 295 576 q 194 472 216 524 q 173 342 173 419 q 203 200 173 258 q 290 112 233 142 q 426 82 346 82 q 489 89 458 82 q 548 110 519 97 q 603 141 577 123 l 615 103 q 535 39 576 65 q 451 -1 494 13 q 363 -14 408 -14 q 205 26 273 -14 q 97 138 136 66 q 58 307 58 210 q 95 481 58 404 q 198 601 131 557 q 357 645 265 645 m 397 731 l 339 731 l 122 940 l 122 959 l 281 959 l 397 731 z "},"é":{"ha":672,"x_min":58,"x_max":615,"o":"m 357 645 q 495 610 440 645 q 580 509 550 576 q 615 344 610 442 l 153 344 l 153 407 l 536 418 l 491 394 q 470 493 488 453 q 424 555 453 534 q 349 576 394 576 q 256 550 295 576 q 194 472 216 524 q 173 342 173 419 q 203 200 173 258 q 290 112 233 142 q 426 82 346 82 q 489 89 458 82 q 548 110 519 97 q 603 141 577 123 l 615 103 q 535 39 576 65 q 451 -1 494 13 q 363 -14 408 -14 q 205 26 273 -14 q 97 138 136 66 q 58 307 58 210 q 95 481 58 404 q 198 601 131 557 q 357 645 265 645 m 308 731 l 424 959 l 583 959 l 583 940 l 365 731 l 308 731 z "},"ê":{"ha":672,"x_min":58,"x_max":615,"o":"m 357 645 q 495 610 440 645 q 580 509 550 576 q 615 344 610 442 l 153 344 l 153 407 l 536 418 l 491 394 q 470 493 488 453 q 424 555 453 534 q 349 576 394 576 q 256 550 295 576 q 194 472 216 524 q 173 342 173 419 q 203 200 173 258 q 290 112 233 142 q 426 82 346 82 q 489 89 458 82 q 548 110 519 97 q 603 141 577 123 l 615 103 q 535 39 576 65 q 451 -1 494 13 q 363 -14 408 -14 q 205 26 273 -14 q 97 138 136 66 q 58 307 58 210 q 95 481 58 404 q 198 601 131 557 q 357 645 265 645 m 142 731 l 292 959 l 412 959 l 562 731 l 494 731 l 340 876 l 365 876 l 210 731 l 142 731 z "},"ë":{"ha":672,"x_min":58,"x_max":615,"o":"m 357 645 q 495 610 440 645 q 580 509 550 576 q 615 344 610 442 l 153 344 l 153 407 l 536 418 l 491 394 q 470 493 488 453 q 424 555 453 534 q 349 576 394 576 q 256 550 295 576 q 194 472 216 524 q 173 342 173 419 q 203 200 173 258 q 290 112 233 142 q 426 82 346 82 q 489 89 458 82 q 548 110 519 97 q 603 141 577 123 l 615 103 q 535 39 576 65 q 451 -1 494 13 q 363 -14 408 -14 q 205 26 273 -14 q 97 138 136 66 q 58 307 58 210 q 95 481 58 404 q 198 601 131 557 q 357 645 265 645 m 217 768 q 157 790 178 768 q 135 846 135 812 q 157 901 135 880 q 217 922 178 922 q 276 901 254 922 q 297 846 297 880 q 276 790 297 812 q 217 768 254 768 m 488 768 q 429 790 451 768 q 407 846 407 812 q 429 901 407 880 q 488 922 451 922 q 547 901 526 922 q 569 846 569 880 q 547 790 569 812 q 488 768 526 768 z "},"ē":{"ha":672,"x_min":58,"x_max":615,"o":"m 357 645 q 495 610 440 645 q 580 509 550 576 q 615 344 610 442 l 153 344 l 153 407 l 536 418 l 491 394 q 470 493 488 453 q 424 555 453 534 q 349 576 394 576 q 256 550 295 576 q 194 472 216 524 q 173 342 173 419 q 203 200 173 258 q 290 112 233 142 q 426 82 346 82 q 489 89 458 82 q 548 110 519 97 q 603 141 577 123 l 615 103 q 535 39 576 65 q 451 -1 494 13 q 363 -14 408 -14 q 205 26 273 -14 q 97 138 136 66 q 58 307 58 210 q 95 481 58 404 q 198 601 131 557 q 357 645 265 645 m 165 806 l 165 885 l 540 885 l 540 806 l 165 806 z "},"ĕ":{"ha":672,"x_min":58,"x_max":615,"o":"m 357 645 q 495 610 440 645 q 580 509 550 576 q 615 344 610 442 l 153 344 l 153 407 l 536 418 l 491 394 q 470 493 488 453 q 424 555 453 534 q 349 576 394 576 q 256 550 295 576 q 194 472 216 524 q 173 342 173 419 q 203 200 173 258 q 290 112 233 142 q 426 82 346 82 q 489 89 458 82 q 548 110 519 97 q 603 141 577 123 l 615 103 q 535 39 576 65 q 451 -1 494 13 q 363 -14 408 -14 q 205 26 273 -14 q 97 138 136 66 q 58 307 58 210 q 95 481 58 404 q 198 601 131 557 q 357 645 265 645 m 352 821 q 421 835 392 821 q 470 880 450 849 q 499 959 490 910 l 553 959 q 513 818 538 869 q 449 746 488 767 q 352 725 410 725 q 256 746 294 725 q 192 818 217 767 q 151 959 167 869 l 205 959 q 235 880 215 910 q 284 835 254 849 q 352 821 313 821 z "},"ė":{"ha":672,"x_min":58,"x_max":615,"o":"m 357 645 q 495 610 440 645 q 580 509 550 576 q 615 344 610 442 l 153 344 l 153 407 l 536 418 l 491 394 q 470 493 488 453 q 424 555 453 534 q 349 576 394 576 q 256 550 295 576 q 194 472 216 524 q 173 342 173 419 q 203 200 173 258 q 290 112 233 142 q 426 82 346 82 q 489 89 458 82 q 548 110 519 97 q 603 141 577 123 l 615 103 q 535 39 576 65 q 451 -1 494 13 q 363 -14 408 -14 q 205 26 273 -14 q 97 138 136 66 q 58 307 58 210 q 95 481 58 404 q 198 601 131 557 q 357 645 265 645 m 352 763 q 286 786 310 763 q 263 846 263 809 q 286 905 263 883 q 352 927 310 927 q 418 905 394 927 q 442 846 442 883 q 418 786 442 809 q 352 763 394 763 z "},"ę":{"ha":672,"x_min":58,"x_max":631,"o":"m 615 103 l 513 -48 q 473 -115 488 -85 q 452 -167 458 -144 q 447 -210 447 -190 q 467 -263 447 -245 q 519 -281 488 -281 q 563 -271 541 -281 q 617 -232 585 -261 l 631 -261 q 581 -315 605 -294 q 533 -344 558 -335 q 479 -353 509 -353 q 390 -322 424 -353 q 357 -237 357 -291 q 365 -185 357 -211 q 390 -128 372 -159 q 441 -58 408 -97 l 522 43 l 530 34 q 448 -2 490 10 q 363 -14 406 -14 q 205 26 273 -14 q 97 138 136 66 q 58 307 58 210 q 95 481 58 404 q 198 601 131 557 q 357 645 265 645 q 495 610 440 645 q 580 509 550 576 q 615 344 610 442 l 153 344 l 153 407 l 536 418 l 491 394 q 470 493 488 453 q 424 555 453 534 q 349 576 394 576 q 256 550 295 576 q 194 472 216 524 q 173 342 173 419 q 203 200 173 258 q 290 112 233 142 q 426 82 346 82 q 489 89 458 82 q 548 110 519 97 q 603 141 577 123 l 615 103 z "},"ě":{"ha":672,"x_min":58,"x_max":615,"o":"m 357 645 q 495 610 440 645 q 580 509 550 576 q 615 344 610 442 l 153 344 l 153 407 l 536 418 l 491 394 q 470 493 488 453 q 424 555 453 534 q 349 576 394 576 q 256 550 295 576 q 194 472 216 524 q 173 342 173 419 q 203 200 173 258 q 290 112 233 142 q 426 82 346 82 q 489 89 458 82 q 548 110 519 97 q 603 141 577 123 l 615 103 q 535 39 576 65 q 451 -1 494 13 q 363 -14 408 -14 q 205 26 273 -14 q 97 138 136 66 q 58 307 58 210 q 95 481 58 404 q 198 601 131 557 q 357 645 265 645 m 365 814 l 340 814 l 494 959 l 562 959 l 412 731 l 292 731 l 142 959 l 210 959 l 365 814 z "},"ȅ":{"ha":672,"x_min":33,"x_max":615,"o":"m 358 645 q 495 610 440 645 q 581 509 551 576 q 615 344 610 442 l 153 344 l 153 407 l 537 418 l 492 394 q 471 493 488 453 q 424 555 454 534 q 349 576 394 576 q 256 550 296 576 q 195 472 217 524 q 174 342 174 419 q 204 200 174 258 q 290 112 234 142 q 426 82 347 82 q 490 89 459 82 q 549 110 520 97 q 604 141 578 123 l 616 103 q 536 39 577 65 q 452 -1 495 13 q 363 -14 408 -14 q 205 26 274 -14 q 98 138 137 66 q 59 307 59 210 q 95 481 59 404 q 199 601 132 557 q 358 645 266 645 m 300 731 l 242 731 l 33 940 l 33 959 l 188 959 l 300 731 m 483 731 l 432 731 l 283 941 l 283 959 l 428 959 l 483 731 z "},"ȇ":{"ha":672,"x_min":58,"x_max":615,"o":"m 357 645 q 495 610 440 645 q 580 509 550 576 q 615 344 610 442 l 153 344 l 153 407 l 536 418 l 491 394 q 470 493 488 453 q 424 555 453 534 q 349 576 394 576 q 256 550 295 576 q 194 472 216 524 q 173 342 173 419 q 203 200 173 258 q 290 112 233 142 q 426 82 346 82 q 489 89 458 82 q 548 110 519 97 q 603 141 577 123 l 615 103 q 535 39 576 65 q 451 -1 494 13 q 363 -14 408 -14 q 205 26 273 -14 q 97 138 136 66 q 58 307 58 210 q 95 481 58 404 q 198 601 131 557 q 357 645 265 645 m 352 869 q 284 855 313 869 q 235 810 254 841 q 205 731 215 780 l 151 731 q 192 872 167 821 q 256 944 217 922 q 352 965 294 965 q 449 944 410 965 q 513 872 488 922 q 553 731 538 821 l 499 731 q 470 810 490 780 q 421 855 450 841 q 352 869 392 869 z "},"ẹ":{"ha":672,"x_min":58,"x_max":615,"o":"m 357 645 q 495 610 440 645 q 580 509 550 576 q 615 344 610 442 l 153 344 l 153 407 l 536 418 l 491 394 q 470 493 488 453 q 424 555 453 534 q 349 576 394 576 q 256 550 295 576 q 194 472 216 524 q 173 342 173 419 q 203 200 173 258 q 290 112 233 142 q 426 82 346 82 q 489 89 458 82 q 548 110 519 97 q 603 141 577 123 l 615 103 q 535 39 576 65 q 451 -1 494 13 q 363 -14 408 -14 q 205 26 273 -14 q 97 138 136 66 q 58 307 58 210 q 95 481 58 404 q 198 601 131 557 q 357 645 265 645 m 366 -250 q 300 -227 324 -250 q 276 -168 276 -205 q 300 -109 276 -131 q 366 -87 324 -87 q 432 -109 408 -87 q 456 -168 456 -131 q 432 -227 456 -205 q 366 -250 408 -250 z "},"ẻ":{"ha":672,"x_min":58,"x_max":615,"o":"m 357 645 q 495 610 440 645 q 580 509 550 576 q 615 344 610 442 l 153 344 l 153 407 l 536 418 l 491 394 q 470 493 488 453 q 424 555 453 534 q 349 576 394 576 q 256 550 295 576 q 194 472 216 524 q 173 342 173 419 q 203 200 173 258 q 290 112 233 142 q 426 82 346 82 q 489 89 458 82 q 548 110 519 97 q 603 141 577 123 l 615 103 q 535 39 576 65 q 451 -1 494 13 q 363 -14 408 -14 q 205 26 273 -14 q 97 138 136 66 q 58 307 58 210 q 95 481 58 404 q 198 601 131 557 q 357 645 265 645 m 233 894 l 249 988 q 369 972 323 983 q 440 946 415 962 q 473 910 464 931 q 483 865 483 890 q 468 807 483 834 q 414 757 453 780 q 298 718 374 735 l 287 761 q 353 783 331 772 q 383 806 375 794 q 390 833 390 819 q 380 862 390 849 q 337 882 370 874 q 233 894 303 890 z "},"ẽ":{"ha":672,"x_min":58,"x_max":615,"o":"m 357 645 q 495 610 440 645 q 580 509 550 576 q 615 344 610 442 l 153 344 l 153 407 l 536 418 l 491 394 q 470 493 488 453 q 424 555 453 534 q 349 576 394 576 q 256 550 295 576 q 194 472 216 524 q 173 342 173 419 q 203 200 173 258 q 290 112 233 142 q 426 82 346 82 q 489 89 458 82 q 548 110 519 97 q 603 141 577 123 l 615 103 q 535 39 576 65 q 451 -1 494 13 q 363 -14 408 -14 q 205 26 273 -14 q 97 138 136 66 q 58 307 58 210 q 95 481 58 404 q 198 601 131 557 q 357 645 265 645 m 553 950 q 527 822 541 869 q 492 755 514 775 q 435 734 471 734 q 381 752 405 734 q 337 794 357 770 q 299 836 317 818 q 261 854 281 854 q 241 845 250 854 q 224 812 232 837 q 207 740 216 788 l 149 740 q 174 868 160 822 q 209 935 188 915 q 266 956 231 956 q 320 938 297 956 q 364 896 344 919 q 403 854 384 872 q 440 836 422 836 q 460 844 451 836 q 477 877 469 853 q 494 950 485 902 l 553 950 z "},"ế":{"ha":672,"x_min":58,"x_max":756,"o":"m 357 645 q 495 610 440 645 q 580 509 550 576 q 615 344 610 442 l 153 344 l 153 407 l 536 418 l 491 394 q 470 493 488 453 q 424 555 453 534 q 349 576 394 576 q 256 550 295 576 q 194 472 216 524 q 173 342 173 419 q 203 200 173 258 q 290 112 233 142 q 426 82 346 82 q 489 89 458 82 q 548 110 519 97 q 603 141 577 123 l 615 103 q 535 39 576 65 q 451 -1 494 13 q 363 -14 408 -14 q 205 26 273 -14 q 97 138 136 66 q 58 307 58 210 q 95 481 58 404 q 198 601 131 557 q 357 645 265 645 m 524 869 l 600 1056 l 756 1056 l 756 1038 l 578 869 l 524 869 m 340 876 l 365 876 l 210 731 l 142 731 l 292 959 l 412 959 l 562 731 l 494 731 l 340 876 z "},"ề":{"ha":672,"x_min":-51,"x_max":615,"o":"m 358 645 q 495 610 440 645 q 581 509 551 576 q 615 344 610 442 l 153 344 l 153 407 l 537 418 l 492 394 q 471 493 488 453 q 424 555 454 534 q 349 576 394 576 q 256 550 296 576 q 195 472 217 524 q 174 342 174 419 q 204 200 174 258 q 290 112 234 142 q 426 82 347 82 q 490 89 459 82 q 549 110 520 97 q 604 141 578 123 l 616 103 q 536 39 577 65 q 452 -1 495 13 q 363 -14 408 -14 q 205 26 274 -14 q 98 138 137 66 q 59 307 59 210 q 95 481 59 404 q 199 601 132 557 q 358 645 266 645 m 180 869 l 126 869 l -51 1038 l -51 1056 l 104 1056 l 180 869 m 365 876 l 210 731 l 142 731 l 292 959 l 412 959 l 562 731 l 494 731 l 340 876 l 365 876 z "},"ể":{"ha":672,"x_min":58,"x_max":713,"o":"m 357 645 q 495 610 440 645 q 580 509 550 576 q 615 344 610 442 l 153 344 l 153 407 l 536 418 l 491 394 q 470 493 488 453 q 424 555 453 534 q 349 576 394 576 q 256 550 295 576 q 194 472 216 524 q 173 342 173 419 q 203 200 173 258 q 290 112 233 142 q 426 82 346 82 q 489 89 458 82 q 548 110 519 97 q 603 141 577 123 l 615 103 q 535 39 576 65 q 451 -1 494 13 q 363 -14 408 -14 q 205 26 273 -14 q 97 138 136 66 q 58 307 58 210 q 95 481 58 404 q 198 601 131 557 q 357 645 265 645 m 365 876 l 210 731 l 142 731 l 292 959 l 412 959 l 562 731 l 494 731 l 340 876 l 365 876 m 525 909 q 602 942 583 924 q 621 983 621 960 q 611 1011 621 999 q 569 1033 601 1024 q 468 1045 537 1042 l 485 1139 q 602 1123 557 1134 q 670 1097 647 1113 q 703 1060 694 1081 q 713 1015 713 1040 q 699 956 713 983 q 648 906 685 928 q 536 866 610 883 l 525 909 z "},"ễ":{"ha":672,"x_min":58,"x_max":615,"o":"m 357 645 q 495 610 440 645 q 580 509 550 576 q 615 344 610 442 l 153 344 l 153 407 l 536 418 l 491 394 q 470 493 488 453 q 424 555 453 534 q 349 576 394 576 q 256 550 295 576 q 194 472 216 524 q 173 342 173 419 q 203 200 173 258 q 290 112 233 142 q 426 82 346 82 q 489 89 458 82 q 548 110 519 97 q 603 141 577 123 l 615 103 q 535 39 576 65 q 451 -1 494 13 q 363 -14 408 -14 q 205 26 273 -14 q 97 138 136 66 q 58 307 58 210 q 95 481 58 404 q 198 601 131 557 q 357 645 265 645 m 365 794 l 216 703 l 149 703 l 294 868 l 410 868 l 555 703 l 488 703 l 339 794 l 365 794 m 217 912 l 164 912 q 185 998 174 966 q 216 1043 197 1029 q 267 1057 235 1057 q 312 1048 289 1057 q 358 1026 335 1039 q 401 1005 381 1014 q 437 996 422 996 q 468 1008 457 996 q 487 1053 480 1019 l 540 1053 q 519 968 531 1000 q 488 922 507 936 q 438 908 469 908 q 392 918 415 908 q 346 939 369 927 q 303 960 323 951 q 267 969 283 969 q 236 958 248 969 q 217 912 225 946 z "},"ệ":{"ha":672,"x_min":58,"x_max":615,"o":"m 357 645 q 495 610 440 645 q 580 509 550 576 q 615 344 610 442 l 153 344 l 153 407 l 536 418 l 491 394 q 470 493 488 453 q 424 555 453 534 q 349 576 394 576 q 256 550 295 576 q 194 472 216 524 q 173 342 173 419 q 203 200 173 258 q 290 112 233 142 q 426 82 346 82 q 489 89 458 82 q 548 110 519 97 q 603 141 577 123 l 615 103 q 535 39 576 65 q 451 -1 494 13 q 363 -14 408 -14 q 205 26 273 -14 q 97 138 136 66 q 58 307 58 210 q 95 481 58 404 q 198 601 131 557 q 357 645 265 645 m 142 731 l 292 959 l 412 959 l 562 731 l 494 731 l 340 876 l 365 876 l 210 731 l 142 731 m 366 -250 q 300 -227 324 -250 q 276 -168 276 -205 q 300 -109 276 -131 q 366 -87 324 -87 q 432 -109 408 -87 q 456 -168 456 -131 q 432 -227 456 -205 q 366 -250 408 -250 z "},"ĝ":{"ha":717,"x_min":18,"x_max":713,"o":"m 324 -353 q 190 -342 247 -353 q 94 -309 133 -331 q 37 -257 56 -287 q 18 -186 18 -226 q 33 -132 18 -158 q 79 -85 47 -106 q 160 -47 110 -63 q 279 -22 209 -31 l 322 -22 l 322 -37 q 210 -65 251 -46 q 153 -110 169 -83 q 136 -171 136 -137 q 157 -236 136 -209 q 221 -276 177 -262 q 334 -290 265 -290 q 461 -272 409 -290 q 541 -225 514 -255 q 569 -156 569 -194 q 558 -110 569 -129 q 519 -79 547 -92 q 445 -60 492 -67 q 324 -50 397 -53 q 202 -36 250 -47 q 128 -6 155 -24 q 90 36 101 13 q 79 88 79 60 q 124 167 79 134 q 255 214 168 200 l 267 199 q 210 179 229 195 q 190 133 190 163 q 197 103 190 116 q 223 80 203 90 q 284 65 243 71 q 394 56 325 58 q 517 42 463 53 q 607 10 570 31 q 662 -44 643 -11 q 681 -124 681 -76 q 638 -239 681 -187 q 516 -322 596 -291 q 324 -353 437 -353 m 324 188 q 188 216 248 188 q 95 296 128 244 q 62 416 62 348 q 95 537 62 485 q 188 617 128 588 q 324 645 248 645 q 430 629 382 645 q 513 582 478 613 q 567 510 547 552 q 586 417 586 468 q 553 296 586 348 q 460 216 519 244 q 324 188 401 188 m 330 249 q 431 291 392 249 q 469 410 469 332 q 430 538 469 493 q 320 583 392 583 q 219 542 258 583 q 180 422 180 501 q 219 295 180 340 q 330 249 258 249 m 423 584 l 394 634 q 482 631 440 630 q 558 635 523 631 q 623 642 594 638 q 674 645 652 645 q 703 633 693 645 q 713 594 713 620 q 700 547 713 566 q 667 528 686 528 q 633 535 651 528 q 590 553 616 543 q 525 572 565 563 q 423 584 485 581 m 122 731 l 272 959 l 391 959 l 541 731 l 474 731 l 319 876 l 344 876 l 189 731 l 122 731 z "},"ğ":{"ha":717,"x_min":18,"x_max":713,"o":"m 324 -353 q 190 -342 247 -353 q 94 -309 133 -331 q 37 -257 56 -287 q 18 -186 18 -226 q 33 -132 18 -158 q 79 -85 47 -106 q 160 -47 110 -63 q 279 -22 209 -31 l 322 -22 l 322 -37 q 210 -65 251 -46 q 153 -110 169 -83 q 136 -171 136 -137 q 157 -236 136 -209 q 221 -276 177 -262 q 334 -290 265 -290 q 461 -272 409 -290 q 541 -225 514 -255 q 569 -156 569 -194 q 558 -110 569 -129 q 519 -79 547 -92 q 445 -60 492 -67 q 324 -50 397 -53 q 202 -36 250 -47 q 128 -6 155 -24 q 90 36 101 13 q 79 88 79 60 q 124 167 79 134 q 255 214 168 200 l 267 199 q 210 179 229 195 q 190 133 190 163 q 197 103 190 116 q 223 80 203 90 q 284 65 243 71 q 394 56 325 58 q 517 42 463 53 q 607 10 570 31 q 662 -44 643 -11 q 681 -124 681 -76 q 638 -239 681 -187 q 516 -322 596 -291 q 324 -353 437 -353 m 324 188 q 188 216 248 188 q 95 296 128 244 q 62 416 62 348 q 95 537 62 485 q 188 617 128 588 q 324 645 248 645 q 430 629 382 645 q 513 582 478 613 q 567 510 547 552 q 586 417 586 468 q 553 296 586 348 q 460 216 519 244 q 324 188 401 188 m 330 249 q 431 291 392 249 q 469 410 469 332 q 430 538 469 493 q 320 583 392 583 q 219 542 258 583 q 180 422 180 501 q 219 295 180 340 q 330 249 258 249 m 423 584 l 394 634 q 482 631 440 630 q 558 635 523 631 q 623 642 594 638 q 674 645 652 645 q 703 633 693 645 q 713 594 713 620 q 700 547 713 566 q 667 528 686 528 q 633 535 651 528 q 590 553 616 543 q 525 572 565 563 q 423 584 485 581 m 331 821 q 400 835 371 821 q 449 880 429 849 q 478 959 469 910 l 533 959 q 492 818 517 869 q 428 746 467 767 q 331 725 390 725 q 235 746 274 725 q 171 818 196 767 q 130 959 146 869 l 184 959 q 214 880 194 910 q 263 835 233 849 q 331 821 292 821 z "},"ġ":{"ha":717,"x_min":18,"x_max":713,"o":"m 324 -353 q 190 -342 247 -353 q 94 -309 133 -331 q 37 -257 56 -287 q 18 -186 18 -226 q 33 -132 18 -158 q 79 -85 47 -106 q 160 -47 110 -63 q 279 -22 209 -31 l 322 -22 l 322 -37 q 210 -65 251 -46 q 153 -110 169 -83 q 136 -171 136 -137 q 157 -236 136 -209 q 221 -276 177 -262 q 334 -290 265 -290 q 461 -272 409 -290 q 541 -225 514 -255 q 569 -156 569 -194 q 558 -110 569 -129 q 519 -79 547 -92 q 445 -60 492 -67 q 324 -50 397 -53 q 202 -36 250 -47 q 128 -6 155 -24 q 90 36 101 13 q 79 88 79 60 q 124 167 79 134 q 255 214 168 200 l 267 199 q 210 179 229 195 q 190 133 190 163 q 197 103 190 116 q 223 80 203 90 q 284 65 243 71 q 394 56 325 58 q 517 42 463 53 q 607 10 570 31 q 662 -44 643 -11 q 681 -124 681 -76 q 638 -239 681 -187 q 516 -322 596 -291 q 324 -353 437 -353 m 324 188 q 188 216 248 188 q 95 296 128 244 q 62 416 62 348 q 95 537 62 485 q 188 617 128 588 q 324 645 248 645 q 430 629 382 645 q 513 582 478 613 q 567 510 547 552 q 586 417 586 468 q 553 296 586 348 q 460 216 519 244 q 324 188 401 188 m 330 249 q 431 291 392 249 q 469 410 469 332 q 430 538 469 493 q 320 583 392 583 q 219 542 258 583 q 180 422 180 501 q 219 295 180 340 q 330 249 258 249 m 423 584 l 394 634 q 482 631 440 630 q 558 635 523 631 q 623 642 594 638 q 674 645 652 645 q 703 633 693 645 q 713 594 713 620 q 700 547 713 566 q 667 528 686 528 q 633 535 651 528 q 590 553 616 543 q 525 572 565 563 q 423 584 485 581 m 331 763 q 266 786 290 763 q 242 846 242 809 q 266 905 242 883 q 331 927 290 927 q 397 905 373 927 q 421 846 421 883 q 397 786 421 809 q 331 763 373 763 z "},"ģ":{"ha":717,"x_min":18,"x_max":713,"o":"m 324 -353 q 190 -342 247 -353 q 94 -309 133 -331 q 37 -257 56 -287 q 18 -186 18 -226 q 33 -132 18 -158 q 79 -85 47 -106 q 160 -47 110 -63 q 279 -22 209 -31 l 322 -22 l 322 -37 q 210 -65 251 -46 q 153 -110 169 -83 q 136 -171 136 -137 q 157 -236 136 -209 q 221 -276 177 -262 q 334 -290 265 -290 q 461 -272 409 -290 q 541 -225 514 -255 q 569 -156 569 -194 q 558 -110 569 -129 q 519 -79 547 -92 q 445 -60 492 -67 q 324 -50 397 -53 q 202 -36 250 -47 q 128 -6 155 -24 q 90 36 101 13 q 79 88 79 60 q 124 167 79 134 q 255 214 168 200 l 267 199 q 210 179 229 195 q 190 133 190 163 q 197 103 190 116 q 223 80 203 90 q 284 65 243 71 q 394 56 325 58 q 517 42 463 53 q 607 10 570 31 q 662 -44 643 -11 q 681 -124 681 -76 q 638 -239 681 -187 q 516 -322 596 -291 q 324 -353 437 -353 m 324 188 q 188 216 248 188 q 95 296 128 244 q 62 416 62 348 q 95 537 62 485 q 188 617 128 588 q 324 645 248 645 q 430 629 382 645 q 513 582 478 613 q 567 510 547 552 q 586 417 586 468 q 553 296 586 348 q 460 216 519 244 q 324 188 401 188 m 330 249 q 431 291 392 249 q 469 410 469 332 q 430 538 469 493 q 320 583 392 583 q 219 542 258 583 q 180 422 180 501 q 219 295 180 340 q 330 249 258 249 m 423 584 l 394 634 q 482 631 440 630 q 558 635 523 631 q 623 642 594 638 q 674 645 652 645 q 703 633 693 645 q 713 594 713 620 q 700 547 713 566 q 667 528 686 528 q 633 535 651 528 q 590 553 616 543 q 525 572 565 563 q 423 584 485 581 m 417 806 q 393 747 417 769 q 331 724 369 724 q 266 748 291 724 q 240 819 240 772 q 256 884 240 853 q 311 939 272 915 q 418 976 350 963 l 428 932 q 351 903 369 919 q 333 869 333 886 q 346 846 333 856 q 375 830 358 837 q 404 818 391 824 q 417 806 417 812 z "},"ǧ":{"ha":717,"x_min":18,"x_max":713,"o":"m 324 -353 q 190 -342 247 -353 q 94 -309 133 -331 q 37 -257 56 -287 q 18 -186 18 -226 q 33 -132 18 -158 q 79 -85 47 -106 q 160 -47 110 -63 q 279 -22 209 -31 l 322 -22 l 322 -37 q 210 -65 251 -46 q 153 -110 169 -83 q 136 -171 136 -137 q 157 -236 136 -209 q 221 -276 177 -262 q 334 -290 265 -290 q 461 -272 409 -290 q 541 -225 514 -255 q 569 -156 569 -194 q 558 -110 569 -129 q 519 -79 547 -92 q 445 -60 492 -67 q 324 -50 397 -53 q 202 -36 250 -47 q 128 -6 155 -24 q 90 36 101 13 q 79 88 79 60 q 124 167 79 134 q 255 214 168 200 l 267 199 q 210 179 229 195 q 190 133 190 163 q 197 103 190 116 q 223 80 203 90 q 284 65 243 71 q 394 56 325 58 q 517 42 463 53 q 607 10 570 31 q 662 -44 643 -11 q 681 -124 681 -76 q 638 -239 681 -187 q 516 -322 596 -291 q 324 -353 437 -353 m 324 188 q 188 216 248 188 q 95 296 128 244 q 62 416 62 348 q 95 537 62 485 q 188 617 128 588 q 324 645 248 645 q 430 629 382 645 q 513 582 478 613 q 567 510 547 552 q 586 417 586 468 q 553 296 586 348 q 460 216 519 244 q 324 188 401 188 m 330 249 q 431 291 392 249 q 469 410 469 332 q 430 538 469 493 q 320 583 392 583 q 219 542 258 583 q 180 422 180 501 q 219 295 180 340 q 330 249 258 249 m 423 584 l 394 634 q 482 631 440 630 q 558 635 523 631 q 623 642 594 638 q 674 645 652 645 q 703 633 693 645 q 713 594 713 620 q 700 547 713 566 q 667 528 686 528 q 633 535 651 528 q 590 553 616 543 q 525 572 565 563 q 423 584 485 581 m 344 814 l 319 814 l 474 959 l 541 959 l 391 731 l 272 731 l 122 959 l 189 959 l 344 814 z "},"ĥ":{"ha":813,"x_min":15,"x_max":794,"o":"m 463 40 l 571 71 l 571 410 q 555 480 571 451 q 505 522 538 508 q 422 537 472 537 q 320 520 369 537 q 245 479 272 503 l 223 503 q 305 574 269 546 q 370 617 340 601 q 431 639 401 633 q 497 645 462 645 q 639 590 593 645 q 684 420 684 535 l 684 71 l 794 40 l 794 0 l 463 0 l 463 40 m 359 0 l 28 0 l 28 40 l 137 71 l 137 855 q 110 874 128 863 q 67 895 92 884 q 15 918 42 907 l 15 945 l 241 1001 l 260 1001 l 251 878 l 251 71 l 359 40 l 359 0 m 408 1190 l 432 1190 l 278 1080 l 206 1080 l 363 1266 l 477 1266 l 635 1080 l 563 1080 l 408 1190 z "},"ħ":{"ha":813,"x_min":6,"x_max":794,"o":"m 463 40 l 571 71 l 571 410 q 555 480 571 451 q 505 522 538 508 q 422 537 472 537 q 320 520 369 537 q 245 479 272 503 l 223 503 q 305 574 269 546 q 370 617 340 601 q 431 639 401 633 q 497 645 462 645 q 639 590 593 645 q 684 420 684 535 l 684 71 l 794 40 l 794 0 l 463 0 l 463 40 m 359 0 l 28 0 l 28 40 l 137 71 l 137 863 q 111 880 128 871 q 70 899 93 890 q 23 918 47 909 l 23 945 l 241 1001 l 260 1001 l 251 878 l 251 71 l 359 40 l 359 0 m 6 732 l 6 802 l 447 802 l 447 732 l 6 732 z "},"ı":{"ha":407,"x_min":45,"x_max":377,"o":"m 275 645 l 269 519 l 269 71 l 377 40 l 377 0 l 47 0 l 47 40 l 156 71 l 156 501 q 130 518 148 508 q 89 539 112 528 q 45 558 67 550 l 45 586 l 253 645 l 275 645 z "},"ì":{"ha":407,"x_min":-28,"x_max":377,"o":"m 275 645 l 269 519 l 269 71 l 377 40 l 377 0 l 47 0 l 47 40 l 156 71 l 156 501 q 130 518 148 508 q 89 539 112 528 q 45 558 67 550 l 45 586 l 253 645 l 275 645 m 247 731 l 190 731 l -28 940 l -28 959 l 131 959 l 247 731 z "},"í":{"ha":407,"x_min":45,"x_max":433,"o":"m 275 645 l 269 519 l 269 71 l 377 40 l 377 0 l 47 0 l 47 40 l 156 71 l 156 501 q 130 518 148 508 q 89 539 112 528 q 45 558 67 550 l 45 586 l 253 645 l 275 645 m 158 731 l 274 959 l 433 959 l 433 940 l 216 731 l 158 731 z "},"î":{"ha":407,"x_min":-7,"x_max":413,"o":"m 275 645 l 269 519 l 269 71 l 377 40 l 377 0 l 47 0 l 47 40 l 156 71 l 156 501 q 130 518 148 508 q 89 539 112 528 q 45 558 67 550 l 45 586 l 253 645 l 275 645 m -7 731 l 143 959 l 263 959 l 413 731 l 345 731 l 190 876 l 215 876 l 60 731 l -7 731 z "},"ï":{"ha":407,"x_min":-14,"x_max":419,"o":"m 275 645 l 269 519 l 269 71 l 377 40 l 377 0 l 47 0 l 47 40 l 156 71 l 156 501 q 130 518 148 508 q 89 539 112 528 q 45 558 67 550 l 45 586 l 253 645 l 275 645 m 67 768 q 8 790 29 768 q -14 846 -14 812 q 8 901 -14 880 q 67 922 29 922 q 126 901 105 922 q 148 846 148 880 q 126 790 148 812 q 67 768 105 768 m 339 768 q 280 790 301 768 q 258 846 258 812 q 280 901 258 880 q 339 922 301 922 q 398 901 376 922 q 419 846 419 880 q 398 790 419 812 q 339 768 376 768 z "}}}
